<svg xmlns="http://www.w3.org/2000/svg" xmlns:xlink="http://www.w3.org/1999/xlink" width="1000" zoomAndPan="magnify" viewBox="0 0 750 149.999998" height="200" preserveAspectRatio="xMidYMid meet" version="1.0"><path fill="#e10600" d="M 626.25 61.144531 C 626.25 61.6875 626.519531 61.957031 627.0625 61.957031 L 664.632812 61.957031 C 664.804688 61.957031 664.949219 62.019531 665.070312 62.136719 C 665.191406 62.257812 665.25 62.402344 665.25 62.570312 L 665.25 71.03125 C 665.25 71.140625 665.210938 71.230469 665.132812 71.308594 C 665.054688 71.386719 664.960938 71.421875 664.851562 71.421875 L 613.816406 71.421875 C 613.648438 71.421875 613.503906 71.363281 613.382812 71.246094 C 613.261719 71.128906 613.199219 70.988281 613.199219 70.820312 C 613.148438 66.300781 613.128906 62.476562 613.132812 59.347656 C 613.136719 56.585938 613.503906 54.546875 614.230469 53.222656 C 616.777344 48.59375 620.210938 47.785156 625.660156 47.792969 C 635.355469 47.804688 643.382812 47.792969 649.746094 47.765625 C 651 47.761719 651.808594 47.058594 652.175781 45.65625 C 652.183594 45.632812 652.183594 45.597656 652.183594 45.5625 C 652.023438 43.929688 651.191406 43.117188 649.691406 43.117188 L 613.632812 43.136719 C 613.507812 43.136719 613.398438 43.09375 613.308594 43.003906 C 613.222656 42.914062 613.175781 42.804688 613.175781 42.679688 L 613.175781 33.933594 C 613.175781 33.832031 613.214844 33.742188 613.289062 33.671875 C 613.363281 33.597656 613.449219 33.5625 613.554688 33.5625 C 623.597656 33.582031 636.917969 33.585938 653.515625 33.570312 C 658.46875 33.570312 662.785156 36.679688 664.515625 41.414062 C 667.332031 49.105469 661.773438 57.128906 653.320312 57.257812 C 651.019531 57.292969 643.203125 57.300781 629.863281 57.289062 C 628.9375 57.289062 628.105469 57.339844 627.363281 57.449219 C 626.621094 57.550781 626.25 57.972656 626.25 58.714844 Z M 67.71875 54.40625 C 64.871094 57.214844 59.3125 62.613281 51.042969 70.601562 C 50.863281 70.777344 50.652344 70.863281 50.410156 70.863281 L 30.265625 70.863281 C 29.941406 70.863281 29.894531 70.746094 30.121094 70.515625 C 44.820312 55.933594 53.695312 47.148438 56.742188 44.15625 C 60.382812 40.578125 63.558594 38.109375 66.269531 36.757812 C 72.542969 33.636719 80.601562 33.484375 88.117188 33.667969 C 88.382812 33.675781 109.476562 33.671875 151.394531 33.660156 C 151.894531 33.660156 151.96875 33.839844 151.613281 34.195312 L 138.484375 47.320312 C 138.292969 47.511719 138.066406 47.605469 137.796875 47.605469 C 120.441406 47.601562 103.074219 47.601562 85.695312 47.613281 C 84.710938 47.613281 82.890625 47.722656 80.230469 47.941406 C 75.191406 48.347656 71.582031 50.59375 67.71875 54.40625 Z M 155.257812 33.652344 L 177.722656 33.652344 C 177.820312 33.652344 177.886719 33.699219 177.921875 33.785156 C 177.960938 33.875 177.945312 33.953125 177.875 34.023438 L 141.101562 70.796875 C 141.058594 70.839844 141.007812 70.863281 140.949219 70.863281 L 118.484375 70.863281 C 118.386719 70.863281 118.320312 70.816406 118.285156 70.726562 C 118.25 70.640625 118.261719 70.5625 118.332031 70.492188 L 155.105469 33.71875 C 155.148438 33.675781 155.199219 33.652344 155.257812 33.652344 Z M 714.355469 64.394531 C 714.191406 64.394531 714.046875 64.453125 713.929688 64.574219 C 713.8125 64.691406 713.753906 64.832031 713.753906 65 L 713.753906 71.050781 C 713.753906 71.304688 713.628906 71.429688 713.375 71.429688 L 701.117188 71.429688 C 700.988281 71.429688 700.882812 71.386719 700.792969 71.296875 C 700.703125 71.210938 700.65625 71.105469 700.65625 70.980469 L 700.65625 64.941406 C 700.65625 64.78125 700.601562 64.644531 700.488281 64.53125 C 700.375 64.417969 700.234375 64.363281 700.074219 64.367188 C 694.992188 64.429688 687.355469 64.4375 677.167969 64.394531 C 670.953125 64.375 667.402344 57.71875 671.8125 53.039062 C 674.765625 49.902344 680.246094 44.402344 688.246094 36.539062 C 690.667969 34.160156 692.664062 33.609375 696.234375 33.59375 C 702.855469 33.570312 709.679688 32.421875 712.878906 39.433594 C 713.550781 40.90625 713.851562 43.382812 713.78125 46.871094 C 713.738281 49.289062 713.738281 51.847656 713.78125 54.546875 C 713.785156 54.628906 713.816406 54.703125 713.875 54.761719 C 713.9375 54.820312 714.011719 54.851562 714.09375 54.851562 L 722.867188 54.851562 C 722.957031 54.851562 723.03125 54.882812 723.09375 54.945312 C 723.15625 55.007812 723.1875 55.082031 723.1875 55.171875 L 723.1875 64.089844 C 723.1875 64.292969 723.085938 64.394531 722.882812 64.394531 Z M 700.128906 54.878906 C 700.273438 54.878906 700.394531 54.828125 700.496094 54.726562 C 700.601562 54.625 700.652344 54.5 700.652344 54.355469 L 700.652344 44.738281 C 700.648438 44.414062 700.558594 44.113281 700.375 43.84375 C 700.195312 43.574219 699.953125 43.375 699.652344 43.253906 C 699.347656 43.128906 699.039062 43.097656 698.71875 43.160156 C 698.398438 43.226562 698.125 43.375 697.894531 43.605469 L 687.402344 54.09375 C 686.878906 54.617188 686.984375 54.878906 687.722656 54.878906 Z M 700.128906 54.878906 " fill-opacity="1" fill-rule="nonzero"/><path fill="#ffffff" d="M 226.082031 58.109375 C 238.09375 46.183594 244.699219 39.59375 245.890625 38.335938 C 248.0625 36.058594 250.183594 34.78125 252.257812 34.511719 C 257.128906 33.863281 261.722656 36.417969 263.210938 41.101562 C 263.527344 42.09375 263.683594 43.746094 263.683594 46.046875 C 263.671875 60.933594 263.691406 69.207031 263.742188 70.871094 C 263.75 71.136719 263.621094 71.269531 263.359375 71.269531 L 251.324219 71.269531 C 251.058594 71.269531 250.925781 71.136719 250.925781 70.871094 L 250.925781 49.910156 C 250.925781 49.558594 250.800781 49.507812 250.554688 49.757812 C 249.429688 50.882812 244.484375 55.84375 235.71875 64.644531 C 232.433594 67.941406 229.949219 69.933594 228.277344 70.617188 C 222.734375 72.886719 216.046875 69.648438 213.742188 63.84375 C 213.113281 62.257812 212.84375 60.054688 212.941406 57.238281 C 212.960938 56.738281 212.96875 54.289062 212.964844 49.898438 C 212.964844 49.546875 212.839844 49.496094 212.59375 49.742188 L 191.269531 71.066406 C 191.132812 71.203125 190.96875 71.269531 190.773438 71.269531 L 175.542969 71.269531 C 175.171875 71.269531 175.121094 71.140625 175.382812 70.878906 C 176.726562 69.515625 187.175781 59.046875 206.730469 39.480469 C 209.242188 36.964844 211.242188 35.433594 212.730469 34.882812 C 215.417969 33.886719 218.132812 34.191406 220.878906 35.796875 C 224.109375 37.6875 225.71875 40.691406 225.703125 44.804688 C 225.683594 50.773438 225.691406 55.160156 225.730469 57.964844 C 225.738281 58.285156 225.851562 58.332031 226.082031 58.109375 Z M 281.4375 57.390625 C 281.144531 57.390625 281 57.539062 281 57.832031 L 281 70.9375 C 281 71.164062 280.886719 71.277344 280.65625 71.277344 L 268.683594 71.277344 C 268.410156 71.277344 268.273438 71.144531 268.269531 70.878906 C 268.199219 62.417969 268.210938 55.835938 268.304688 51.125 C 268.34375 49.367188 269.230469 47.515625 270.96875 45.574219 C 271.316406 45.1875 274.125 42.355469 279.390625 37.078125 C 281.226562 35.246094 283.59375 34.328125 286.492188 34.328125 C 293.933594 34.339844 301.328125 34.339844 308.679688 34.328125 C 313.21875 34.320312 316.320312 36.160156 317.980469 39.855469 C 318.644531 41.335938 318.972656 43.539062 318.96875 46.46875 C 318.953125 60.730469 318.972656 68.863281 319.027344 70.871094 C 319.035156 71.136719 318.90625 71.269531 318.640625 71.269531 L 306.695312 71.269531 C 306.390625 71.269531 306.238281 71.121094 306.238281 70.820312 L 306.238281 57.753906 C 306.238281 57.511719 306.117188 57.390625 305.878906 57.390625 Z M 282.804688 48.15625 L 305.414062 48.15625 C 305.941406 48.15625 306.207031 47.894531 306.207031 47.371094 L 306.207031 44.875 C 306.207031 44.070312 305.804688 43.667969 305 43.667969 L 287.351562 43.667969 C 286.855469 43.667969 286.4375 43.839844 286.097656 44.179688 L 282.601562 47.671875 C 282.507812 47.761719 282.484375 47.863281 282.535156 47.984375 C 282.585938 48.101562 282.675781 48.160156 282.804688 48.15625 Z M 360.980469 58.050781 C 361.351562 58.433594 361.535156 58.359375 361.535156 57.828125 L 361.535156 34.75 C 361.535156 34.472656 361.667969 34.335938 361.941406 34.335938 L 373.800781 34.335938 C 374.082031 34.335938 374.222656 34.480469 374.222656 34.765625 C 374.285156 42.445312 374.292969 50.253906 374.242188 58.183594 C 374.222656 60.960938 373.882812 63.085938 373.226562 64.554688 C 369.964844 71.800781 360.601562 73.539062 354.71875 67.765625 C 348.542969 61.691406 342.542969 55.699219 336.71875 49.78125 C 336.429688 49.484375 336.28125 49.546875 336.28125 49.960938 L 336.28125 70.9375 C 336.28125 71.160156 336.171875 71.269531 335.949219 71.269531 L 323.761719 71.269531 C 323.691406 71.269531 323.628906 71.246094 323.578125 71.195312 C 323.53125 71.140625 323.503906 71.082031 323.507812 71.007812 C 323.53125 63.148438 323.53125 55.457031 323.507812 47.941406 C 323.496094 44.542969 323.714844 42.191406 324.164062 40.882812 C 325.769531 36.140625 330.8125 33.492188 335.628906 34.65625 C 338.625 35.375 339.957031 36.984375 342.058594 39.058594 C 348.957031 45.851562 355.261719 52.183594 360.980469 58.050781 Z M 391.574219 57.832031 L 391.574219 70.9375 C 391.574219 71.164062 391.457031 71.277344 391.230469 71.277344 L 379.253906 71.277344 C 378.984375 71.277344 378.847656 71.144531 378.839844 70.878906 C 378.773438 62.417969 378.785156 55.835938 378.878906 51.125 C 378.917969 49.367188 379.804688 47.515625 381.539062 45.574219 C 381.890625 45.1875 384.699219 42.355469 389.964844 37.078125 C 391.796875 35.246094 394.164062 34.328125 397.066406 34.328125 C 404.503906 34.339844 411.902344 34.339844 419.253906 34.328125 C 423.792969 34.320312 426.890625 36.160156 428.550781 39.855469 C 429.214844 41.335938 429.546875 43.539062 429.539062 46.46875 C 429.527344 60.730469 429.546875 68.863281 429.597656 70.871094 C 429.609375 71.136719 429.480469 71.269531 429.214844 71.269531 L 417.269531 71.269531 C 416.960938 71.269531 416.808594 71.121094 416.808594 70.820312 L 416.808594 57.753906 C 416.808594 57.511719 416.691406 57.390625 416.453125 57.390625 L 392.007812 57.390625 C 391.71875 57.390625 391.574219 57.539062 391.574219 57.832031 Z M 393.371094 48.164062 L 415.996094 48.15625 C 416.523438 48.15625 416.789062 47.894531 416.789062 47.371094 L 416.78125 44.875 C 416.78125 44.070312 416.378906 43.667969 415.574219 43.667969 L 397.917969 43.667969 C 397.421875 43.667969 397.003906 43.839844 396.664062 44.179688 L 393.164062 47.679688 C 393.074219 47.765625 393.050781 47.871094 393.101562 47.992188 C 393.152344 48.109375 393.242188 48.167969 393.371094 48.164062 Z M 472.203125 58.523438 C 472.285156 57.761719 471.941406 57.382812 471.175781 57.382812 L 451.714844 57.382812 C 451.617188 57.382812 451.535156 57.347656 451.46875 57.277344 C 451.398438 57.207031 451.367188 57.125 451.367188 57.027344 L 451.367188 48.574219 C 451.367188 48.292969 451.507812 48.152344 451.789062 48.152344 L 484.363281 48.152344 C 484.644531 48.152344 484.792969 48.292969 484.800781 48.574219 C 484.84375 50.351562 484.871094 54.058594 484.882812 59.695312 C 484.886719 62.449219 484.492188 64.535156 483.695312 65.945312 C 481.679688 69.523438 478.628906 71.308594 474.542969 71.292969 C 474.492188 71.289062 464.964844 71.28125 445.96875 71.269531 C 443.148438 71.269531 441.078125 70.953125 439.753906 70.316406 C 437.695312 69.328125 436.152344 67.804688 435.136719 65.75 C 434.460938 64.375 434.121094 62.34375 434.117188 59.652344 C 434.101562 50.972656 434.09375 46.597656 434.09375 46.535156 C 434.007812 43.476562 434.34375 41.238281 435.105469 39.828125 C 436.441406 37.367188 438.308594 35.746094 440.714844 34.953125 C 441.992188 34.535156 444.3125 34.332031 447.683594 34.335938 C 453.488281 34.339844 465.757812 34.34375 484.488281 34.34375 C 484.730469 34.34375 484.851562 34.464844 484.851562 34.707031 L 484.851562 43.125 C 484.851562 43.488281 484.671875 43.667969 484.308594 43.667969 C 467.78125 43.65625 456.042969 43.65625 449.082031 43.667969 C 446.972656 43.675781 446.832031 44.578125 446.847656 46.367188 C 446.859375 48.789062 446.859375 53.371094 446.855469 60.109375 C 446.855469 61.390625 447.496094 62.03125 448.777344 62.03125 L 470.425781 62.03125 C 471.355469 62.03125 471.875 61.566406 471.976562 60.640625 Z M 540.121094 43.398438 C 540.121094 43.472656 540.09375 43.539062 540.042969 43.589844 C 539.992188 43.644531 539.929688 43.667969 539.859375 43.667969 L 489.828125 43.667969 C 489.683594 43.671875 489.566406 43.613281 489.472656 43.5 C 489.382812 43.390625 489.351562 43.261719 489.378906 43.117188 C 490.164062 39.132812 492.121094 36.503906 495.25 35.230469 C 496.722656 34.628906 499.6875 34.328125 504.144531 34.328125 C 516.058594 34.34375 527.964844 34.34375 539.867188 34.335938 C 539.9375 34.335938 539.996094 34.359375 540.046875 34.414062 C 540.097656 34.464844 540.121094 34.523438 540.121094 34.597656 Z M 581.734375 48.019531 L 586.039062 43.714844 C 586.050781 43.699219 586.050781 43.6875 586.042969 43.675781 C 586.039062 43.660156 586.027344 43.65625 586.011719 43.65625 L 545.089844 43.65625 C 544.957031 43.65625 544.847656 43.605469 544.765625 43.5 C 544.679688 43.398438 544.648438 43.28125 544.675781 43.152344 C 545.4375 39.140625 547.386719 36.5 550.53125 35.222656 C 552.011719 34.625 554.980469 34.328125 559.441406 34.328125 C 568.152344 34.339844 580.046875 34.34375 595.128906 34.34375 C 601.703125 34.335938 604.765625 41.203125 599.964844 45.9375 C 595.121094 50.722656 591.378906 54.464844 588.746094 57.171875 C 588.578125 57.347656 588.578125 57.515625 588.746094 57.679688 L 602 70.9375 C 602.0625 70.996094 602.078125 71.070312 602.042969 71.148438 C 602.011719 71.230469 601.949219 71.269531 601.863281 71.269531 L 586.507812 71.269531 C 586.300781 71.269531 586.128906 71.199219 585.988281 71.058594 L 572.597656 57.667969 C 572.410156 57.480469 572.1875 57.390625 571.925781 57.390625 L 557.851562 57.390625 C 557.558594 57.390625 557.414062 57.53125 557.414062 57.820312 L 557.414062 70.941406 C 557.414062 71.160156 557.304688 71.269531 557.09375 71.269531 L 545.066406 71.269531 C 544.792969 71.269531 544.652344 71.136719 544.652344 70.863281 L 544.652344 48.628906 C 544.652344 48.5 544.699219 48.390625 544.792969 48.296875 C 544.882812 48.203125 544.996094 48.15625 545.125 48.15625 L 581.390625 48.15625 C 581.523438 48.15625 581.636719 48.113281 581.734375 48.019531 Z M 503.179688 57.382812 C 502.464844 57.382812 502.109375 57.738281 502.109375 58.445312 L 502.109375 60.335938 C 502.109375 60.5625 502.152344 60.777344 502.238281 60.988281 C 502.324219 61.195312 502.449219 61.378906 502.605469 61.539062 C 502.765625 61.699219 502.949219 61.824219 503.160156 61.910156 C 503.367188 61.996094 503.585938 62.039062 503.8125 62.039062 L 539.808594 62.039062 C 540.015625 62.039062 540.121094 62.144531 540.121094 62.351562 L 540.121094 70.957031 C 540.121094 71.042969 540.089844 71.113281 540.03125 71.175781 C 539.972656 71.234375 539.898438 71.261719 539.816406 71.261719 C 519.144531 71.261719 506.300781 71.28125 501.285156 71.3125 C 498.460938 71.339844 496.355469 71 494.972656 70.296875 C 492.875 69.234375 491.328125 67.660156 490.324219 65.574219 C 489.671875 64.234375 489.347656 62.183594 489.347656 59.417969 C 489.351562 56.492188 489.359375 52.835938 489.371094 48.457031 C 489.371094 48.375 489.398438 48.308594 489.457031 48.25 C 489.511719 48.195312 489.582031 48.164062 489.660156 48.164062 L 528.292969 48.164062 C 528.511719 48.164062 528.617188 48.273438 528.617188 48.484375 L 528.617188 56.828125 C 528.617188 57.199219 528.433594 57.382812 528.066406 57.382812 Z M 503.179688 57.382812 " fill-opacity="1" fill-rule="nonzero"/><path fill="#e10600" d="M 135.738281 50.035156 L 123.257812 62.519531 C 123.078125 62.699219 122.859375 62.789062 122.601562 62.796875 C 118.8125 62.816406 107.960938 62.824219 90.046875 62.824219 C 85.324219 62.832031 82.53125 62.5625 79.605469 65.378906 C 77.832031 67.085938 76.085938 68.820312 74.367188 70.578125 C 74.183594 70.769531 73.960938 70.863281 73.699219 70.863281 L 55.148438 70.863281 C 54.835938 70.863281 54.789062 70.753906 55.007812 70.535156 C 63.957031 61.480469 69.191406 56.195312 70.714844 54.683594 C 74.59375 50.835938 79.554688 49.832031 84.792969 49.808594 C 93.808594 49.761719 110.753906 49.746094 135.628906 49.765625 C 135.699219 49.769531 135.746094 49.800781 135.769531 49.867188 C 135.796875 49.929688 135.785156 49.984375 135.738281 50.035156 Z M 135.738281 50.035156 " fill-opacity="1" fill-rule="nonzero"/><path fill="#ffffff" d="M 503.710938 103.417969 C 503.941406 103.679688 504.058594 103.636719 504.058594 103.289062 L 504.058594 93.25 C 504.058594 93.007812 504.179688 92.882812 504.421875 92.882812 L 512.191406 92.914062 C 512.363281 92.914062 512.453125 93.089844 512.460938 93.445312 C 512.464844 93.726562 512.464844 99.003906 512.460938 109.28125 C 512.457031 111.429688 512.144531 112.960938 511.53125 113.871094 C 509.179688 117.34375 504.335938 115.015625 501.914062 112.460938 C 500.179688 110.644531 497.738281 108.066406 494.585938 104.726562 C 494.535156 104.671875 494.472656 104.65625 494.402344 104.6875 C 494.328125 104.714844 494.292969 104.765625 494.296875 104.84375 L 494.296875 115.125 C 494.296875 115.328125 494.195312 115.429688 493.996094 115.429688 L 486.589844 115.429688 C 486.347656 115.429688 486.226562 115.308594 486.226562 115.066406 C 486.195312 107.835938 486.210938 101.617188 486.277344 96.414062 C 486.292969 95.386719 487.035156 94.382812 488.503906 93.402344 C 491.007812 91.726562 493.953125 92.871094 495.992188 95.050781 C 499.867188 99.214844 502.4375 102.003906 503.710938 103.417969 Z M 335.714844 104.199219 C 335.714844 105.484375 335.707031 106.515625 335.691406 107.296875 C 335.691406 107.371094 335.664062 107.429688 335.613281 107.480469 C 335.558594 107.53125 335.496094 107.558594 335.425781 107.558594 L 323.09375 107.558594 C 322.839844 107.558594 322.714844 107.683594 322.714844 107.9375 L 322.714844 108.183594 C 322.714844 108.417969 322.832031 108.53125 323.0625 108.53125 L 335.417969 108.53125 C 335.589844 108.53125 335.679688 108.621094 335.679688 108.796875 L 335.679688 115.226562 C 335.679688 115.386719 335.597656 115.464844 335.4375 115.464844 L 314.921875 115.464844 C 314.832031 115.464844 314.757812 115.433594 314.695312 115.371094 C 314.632812 115.304688 314.601562 115.230469 314.601562 115.140625 C 314.617188 113.523438 314.632812 109.855469 314.648438 104.140625 C 314.664062 98.417969 314.671875 94.75 314.667969 93.140625 C 314.667969 93.050781 314.695312 92.972656 314.757812 92.90625 C 314.824219 92.84375 314.898438 92.8125 314.988281 92.8125 L 335.503906 92.9375 C 335.664062 92.9375 335.742188 93.015625 335.742188 93.175781 L 335.707031 99.605469 C 335.707031 99.78125 335.621094 99.867188 335.445312 99.867188 L 323.09375 99.789062 C 322.859375 99.789062 322.742188 99.90625 322.738281 100.136719 L 322.738281 100.386719 C 322.738281 100.636719 322.863281 100.761719 323.113281 100.761719 L 335.445312 100.84375 C 335.519531 100.84375 335.582031 100.867188 335.632812 100.917969 C 335.6875 100.96875 335.714844 101.03125 335.714844 101.105469 C 335.71875 101.886719 335.71875 102.917969 335.714844 104.199219 Z M 369.011719 92.789062 C 372.367188 92.804688 374.859375 94.855469 376.484375 98.9375 C 379.851562 107.390625 381.992188 112.796875 382.914062 115.160156 C 383.011719 115.398438 382.933594 115.515625 382.675781 115.515625 L 375.066406 115.515625 C 374.773438 115.515625 374.582031 115.382812 374.484375 115.117188 L 373.136719 111.464844 C 373.046875 111.21875 372.871094 111.074219 372.613281 111.035156 C 372.257812 110.984375 371.027344 110.949219 368.917969 110.941406 C 366.804688 110.929688 365.570312 110.949219 365.214844 111 C 364.957031 111.035156 364.78125 111.175781 364.683594 111.421875 L 363.300781 115.058594 C 363.199219 115.324219 363.003906 115.457031 362.710938 115.453125 L 355.109375 115.371094 C 354.851562 115.367188 354.773438 115.246094 354.871094 115.015625 C 355.816406 112.664062 358.015625 107.277344 361.46875 98.859375 C 363.136719 94.792969 365.652344 92.769531 369.011719 92.789062 Z M 370.375 104.039062 L 369.019531 100.808594 C 368.84375 100.378906 368.679688 100.382812 368.519531 100.8125 L 367.414062 103.890625 C 367.316406 104.148438 367.40625 104.277344 367.679688 104.277344 L 370.214844 104.277344 C 370.273438 104.277344 370.324219 104.25 370.355469 104.199219 C 370.390625 104.148438 370.394531 104.09375 370.375 104.039062 Z M 466.964844 104.652344 C 466.933594 105.398438 466.824219 106.132812 466.636719 106.855469 C 466.449219 107.578125 466.191406 108.277344 465.855469 108.953125 C 465.523438 109.628906 465.121094 110.265625 464.652344 110.867188 C 464.183594 111.46875 463.660156 112.019531 463.074219 112.519531 C 462.488281 113.023438 461.859375 113.464844 461.179688 113.851562 C 460.5 114.238281 459.789062 114.554688 459.042969 114.808594 C 458.296875 115.0625 457.53125 115.242188 456.746094 115.355469 C 455.960938 115.464844 455.171875 115.503906 454.375 115.46875 C 453.582031 115.433594 452.800781 115.328125 452.027344 115.148438 C 451.253906 114.96875 450.507812 114.722656 449.785156 114.40625 C 449.066406 114.085938 448.382812 113.707031 447.742188 113.265625 C 447.097656 112.820312 446.507812 112.324219 445.96875 111.773438 C 445.433594 111.222656 444.957031 110.628906 444.542969 109.988281 C 444.128906 109.351562 443.78125 108.679688 443.507812 107.976562 C 443.234375 107.277344 443.035156 106.558594 442.914062 105.820312 C 442.789062 105.082031 442.746094 104.339844 442.777344 103.597656 C 442.8125 102.851562 442.921875 102.117188 443.105469 101.394531 C 443.292969 100.667969 443.554688 99.96875 443.886719 99.296875 C 444.222656 98.621094 444.625 97.984375 445.089844 97.382812 C 445.558594 96.78125 446.085938 96.230469 446.671875 95.730469 C 447.253906 95.226562 447.886719 94.78125 448.566406 94.398438 C 449.242188 94.011719 449.957031 93.695312 450.703125 93.441406 C 451.449219 93.1875 452.214844 93.003906 453 92.894531 C 453.785156 92.78125 454.574219 92.746094 455.367188 92.777344 C 456.160156 92.8125 456.945312 92.921875 457.71875 93.101562 C 458.488281 93.28125 459.238281 93.527344 459.957031 93.84375 C 460.679688 94.160156 461.359375 94.542969 462.003906 94.984375 C 462.644531 95.425781 463.234375 95.925781 463.773438 96.476562 C 464.3125 97.027344 464.789062 97.621094 465.203125 98.261719 C 465.617188 98.898438 465.960938 99.570312 466.234375 100.269531 C 466.507812 100.972656 466.707031 101.691406 466.832031 102.429688 C 466.953125 103.167969 467 103.90625 466.964844 104.652344 Z M 459.316406 104.152344 C 459.316406 103.863281 459.289062 103.578125 459.234375 103.292969 C 459.175781 103.007812 459.09375 102.734375 458.980469 102.464844 C 458.871094 102.199219 458.734375 101.945312 458.574219 101.703125 C 458.414062 101.464844 458.230469 101.242188 458.027344 101.035156 C 457.820312 100.832031 457.597656 100.648438 457.359375 100.488281 C 457.117188 100.328125 456.863281 100.191406 456.59375 100.082031 C 456.328125 99.96875 456.050781 99.886719 455.769531 99.828125 C 455.484375 99.773438 455.199219 99.746094 454.910156 99.746094 C 454.617188 99.746094 454.332031 99.773438 454.046875 99.828125 C 453.765625 99.886719 453.488281 99.96875 453.222656 100.082031 C 452.953125 100.191406 452.699219 100.328125 452.460938 100.488281 C 452.21875 100.648438 451.996094 100.832031 451.792969 101.035156 C 451.585938 101.242188 451.402344 101.464844 451.242188 101.703125 C 451.082031 101.945312 450.945312 102.199219 450.835938 102.464844 C 450.726562 102.734375 450.640625 103.007812 450.585938 103.292969 C 450.527344 103.578125 450.5 103.863281 450.5 104.152344 C 450.5 104.441406 450.527344 104.730469 450.585938 105.015625 C 450.640625 105.296875 450.726562 105.574219 450.835938 105.839844 C 450.945312 106.109375 451.082031 106.363281 451.242188 106.601562 C 451.402344 106.84375 451.585938 107.066406 451.792969 107.269531 C 451.996094 107.476562 452.21875 107.660156 452.460938 107.820312 C 452.699219 107.980469 452.953125 108.117188 453.222656 108.226562 C 453.488281 108.335938 453.765625 108.421875 454.046875 108.476562 C 454.332031 108.535156 454.617188 108.5625 454.910156 108.5625 C 455.199219 108.5625 455.484375 108.535156 455.769531 108.476562 C 456.050781 108.421875 456.328125 108.335938 456.59375 108.226562 C 456.863281 108.117188 457.117188 107.980469 457.359375 107.820312 C 457.597656 107.660156 457.820312 107.476562 458.027344 107.269531 C 458.230469 107.066406 458.414062 106.84375 458.574219 106.601562 C 458.734375 106.363281 458.871094 106.109375 458.980469 105.839844 C 459.09375 105.574219 459.175781 105.296875 459.234375 105.015625 C 459.289062 104.730469 459.316406 104.441406 459.316406 104.152344 Z M 560.765625 93.03125 C 560.765625 92.890625 560.835938 92.820312 560.976562 92.820312 L 573.070312 92.863281 C 573.808594 92.867188 574.539062 92.9375 575.261719 93.074219 C 575.984375 93.210938 576.6875 93.414062 577.367188 93.683594 C 578.050781 93.953125 578.695312 94.28125 579.308594 94.667969 C 579.921875 95.054688 580.488281 95.496094 581.007812 95.988281 C 581.527344 96.484375 581.992188 97.019531 582.402344 97.597656 C 582.808594 98.179688 583.152344 98.789062 583.433594 99.433594 C 583.710938 100.074219 583.921875 100.738281 584.066406 101.417969 C 584.207031 102.101562 584.277344 102.789062 584.273438 103.484375 L 584.273438 104.894531 C 584.269531 105.589844 584.195312 106.277344 584.046875 106.957031 C 583.902344 107.636719 583.6875 108.300781 583.402344 108.9375 C 583.117188 109.578125 582.769531 110.1875 582.355469 110.761719 C 581.945312 111.339844 581.476562 111.871094 580.953125 112.359375 C 580.429688 112.851562 579.859375 113.285156 579.246094 113.667969 C 578.628906 114.054688 577.980469 114.375 577.300781 114.640625 C 576.617188 114.902344 575.914062 115.101562 575.1875 115.234375 C 574.464844 115.367188 573.734375 115.433594 572.996094 115.429688 L 560.90625 115.386719 C 560.765625 115.386719 560.695312 115.316406 560.695312 115.175781 Z M 568.746094 99.964844 L 568.761719 108.328125 C 568.761719 108.40625 568.789062 108.476562 568.84375 108.53125 C 568.902344 108.585938 568.96875 108.613281 569.046875 108.613281 L 570.363281 108.613281 C 570.757812 108.613281 571.148438 108.585938 571.535156 108.527344 C 571.921875 108.472656 572.296875 108.390625 572.664062 108.285156 C 573.027344 108.175781 573.375 108.046875 573.703125 107.890625 C 574.03125 107.734375 574.332031 107.554688 574.613281 107.359375 C 574.890625 107.160156 575.140625 106.945312 575.359375 106.710938 C 575.578125 106.476562 575.761719 106.230469 575.910156 105.972656 C 576.0625 105.714844 576.175781 105.449219 576.25 105.175781 C 576.328125 104.898438 576.367188 104.621094 576.363281 104.34375 L 576.363281 103.921875 C 576.363281 103.640625 576.324219 103.363281 576.246094 103.089844 C 576.167969 102.816406 576.054688 102.550781 575.902344 102.292969 C 575.75 102.035156 575.566406 101.792969 575.347656 101.558594 C 575.125 101.328125 574.875 101.113281 574.597656 100.917969 C 574.316406 100.71875 574.015625 100.542969 573.6875 100.390625 C 573.359375 100.234375 573.011719 100.105469 572.648438 100 C 572.28125 99.894531 571.90625 99.8125 571.519531 99.757812 C 571.132812 99.707031 570.742188 99.679688 570.347656 99.679688 L 569.03125 99.679688 C 568.953125 99.679688 568.886719 99.707031 568.832031 99.761719 C 568.777344 99.816406 568.746094 99.886719 568.746094 99.964844 Z M 650.839844 104.152344 C 650.847656 106.578125 652.140625 107.988281 654.613281 108.058594 C 656.078125 108.109375 658.933594 108.128906 663.175781 108.125 C 663.296875 108.125 663.398438 108.167969 663.480469 108.253906 C 663.566406 108.339844 663.605469 108.441406 663.605469 108.5625 L 663.605469 115.082031 C 663.605469 115.167969 663.578125 115.242188 663.515625 115.304688 C 663.453125 115.367188 663.378906 115.398438 663.292969 115.402344 C 660.4375 115.464844 657.933594 115.492188 655.785156 115.480469 C 652.40625 115.460938 649.964844 115.105469 648.460938 114.410156 C 644.464844 112.554688 642.238281 108.730469 642.234375 104.160156 C 642.226562 99.597656 644.4375 95.757812 648.429688 93.902344 C 649.933594 93.199219 652.375 92.835938 655.757812 92.8125 C 657.90625 92.792969 660.40625 92.8125 663.265625 92.871094 C 663.351562 92.871094 663.425781 92.902344 663.488281 92.964844 C 663.546875 93.027344 663.578125 93.101562 663.578125 93.191406 L 663.59375 99.707031 C 663.59375 99.828125 663.550781 99.933594 663.464844 100.015625 C 663.382812 100.101562 663.28125 100.144531 663.164062 100.144531 C 658.917969 100.148438 656.066406 100.175781 654.601562 100.226562 C 652.132812 100.3125 650.839844 101.722656 650.839844 104.152344 Z M 149.46875 103.109375 C 149.53125 103.847656 149.515625 104.589844 149.425781 105.328125 C 149.335938 106.066406 149.171875 106.789062 148.929688 107.5 C 148.6875 108.210938 148.375 108.890625 147.992188 109.542969 C 147.609375 110.195312 147.164062 110.808594 146.652344 111.378906 C 146.144531 111.949219 145.582031 112.46875 144.964844 112.933594 C 144.347656 113.402344 143.691406 113.808594 142.992188 114.152344 C 142.289062 114.5 141.5625 114.777344 140.804688 114.988281 C 140.050781 115.195312 139.28125 115.335938 138.496094 115.402344 C 137.710938 115.46875 136.929688 115.464844 136.148438 115.386719 C 135.367188 115.308594 134.601562 115.15625 133.855469 114.9375 C 133.105469 114.714844 132.386719 114.425781 131.699219 114.070312 C 131.011719 113.71875 130.371094 113.300781 129.769531 112.824219 C 129.171875 112.351562 128.628906 111.824219 128.140625 111.246094 C 127.652344 110.667969 127.226562 110.046875 126.871094 109.390625 C 126.511719 108.734375 126.222656 108.046875 126.007812 107.335938 C 125.792969 106.621094 125.65625 105.894531 125.589844 105.15625 C 125.527344 104.414062 125.542969 103.675781 125.632812 102.9375 C 125.722656 102.199219 125.890625 101.472656 126.128906 100.765625 C 126.371094 100.054688 126.683594 99.375 127.066406 98.722656 C 127.449219 98.066406 127.894531 97.457031 128.40625 96.886719 C 128.914062 96.316406 129.476562 95.796875 130.09375 95.328125 C 130.710938 94.863281 131.367188 94.457031 132.066406 94.109375 C 132.769531 93.765625 133.496094 93.488281 134.253906 93.277344 C 135.007812 93.066406 135.777344 92.925781 136.5625 92.859375 C 137.347656 92.792969 138.128906 92.800781 138.910156 92.878906 C 139.691406 92.957031 140.457031 93.105469 141.207031 93.328125 C 141.953125 93.546875 142.671875 93.835938 143.359375 94.191406 C 144.046875 94.546875 144.6875 94.960938 145.289062 95.4375 C 145.886719 95.914062 146.429688 96.441406 146.917969 97.019531 C 147.40625 97.597656 147.832031 98.214844 148.1875 98.871094 C 148.546875 99.53125 148.835938 100.214844 149.050781 100.929688 C 149.265625 101.640625 149.402344 102.367188 149.46875 103.109375 Z M 138.132812 108.5 C 138.410156 108.460938 138.683594 108.394531 138.949219 108.296875 C 139.214844 108.203125 139.464844 108.082031 139.707031 107.933594 C 139.949219 107.789062 140.175781 107.617188 140.382812 107.425781 C 140.589844 107.234375 140.777344 107.023438 140.945312 106.792969 C 141.113281 106.5625 141.257812 106.316406 141.378906 106.058594 C 141.496094 105.796875 141.59375 105.53125 141.660156 105.25 C 141.726562 104.972656 141.769531 104.6875 141.78125 104.402344 C 141.796875 104.113281 141.78125 103.828125 141.742188 103.542969 C 141.699219 103.257812 141.628906 102.980469 141.535156 102.707031 C 141.441406 102.4375 141.320312 102.175781 141.175781 101.929688 C 141.03125 101.679688 140.863281 101.449219 140.675781 101.234375 C 140.484375 101.019531 140.277344 100.828125 140.050781 100.652344 C 139.824219 100.480469 139.585938 100.332031 139.328125 100.207031 C 139.074219 100.082031 138.8125 99.984375 138.539062 99.914062 C 138.265625 99.84375 137.988281 99.796875 137.707031 99.78125 C 137.425781 99.765625 137.144531 99.78125 136.867188 99.820312 C 136.589844 99.859375 136.316406 99.929688 136.050781 100.023438 C 135.785156 100.121094 135.535156 100.242188 135.292969 100.386719 C 135.050781 100.535156 134.828125 100.703125 134.617188 100.894531 C 134.410156 101.085938 134.222656 101.296875 134.054688 101.527344 C 133.886719 101.757812 133.742188 102.003906 133.621094 102.261719 C 133.503906 102.523438 133.410156 102.792969 133.339844 103.070312 C 133.273438 103.351562 133.230469 103.632812 133.21875 103.921875 C 133.203125 104.207031 133.21875 104.496094 133.261719 104.78125 C 133.300781 105.066406 133.371094 105.34375 133.464844 105.613281 C 133.558594 105.886719 133.679688 106.144531 133.824219 106.394531 C 133.96875 106.640625 134.136719 106.871094 134.328125 107.085938 C 134.515625 107.300781 134.722656 107.496094 134.949219 107.667969 C 135.175781 107.839844 135.417969 107.988281 135.671875 108.113281 C 135.925781 108.238281 136.191406 108.335938 136.460938 108.40625 C 136.734375 108.480469 137.011719 108.523438 137.292969 108.539062 C 137.574219 108.554688 137.855469 108.542969 138.132812 108.5 Z M 98.457031 100.769531 L 98.457031 100.160156 C 98.457031 99.847656 98.300781 99.695312 97.988281 99.695312 L 87.746094 99.695312 C 87.589844 99.695312 87.515625 99.617188 87.515625 99.460938 L 87.515625 93.285156 C 87.515625 93.140625 87.585938 93.066406 87.730469 93.066406 C 88.632812 93.0625 91.738281 93.058594 97.042969 93.050781 C 101.300781 93.050781 105.585938 94.667969 106.414062 99.164062 C 107.054688 102.65625 105.066406 105.695312 101.527344 106.699219 C 99.621094 107.238281 97.667969 107.410156 95.675781 107.214844 C 95.296875 107.183594 95.109375 107.355469 95.109375 107.734375 L 95.109375 108.074219 C 95.109375 108.21875 95.160156 108.339844 95.261719 108.441406 C 95.359375 108.539062 95.484375 108.589844 95.625 108.589844 L 106.136719 108.585938 C 106.25 108.585938 106.304688 108.640625 106.304688 108.75 L 106.304688 115.125 C 106.304688 115.253906 106.238281 115.320312 106.109375 115.320312 L 87.621094 115.328125 C 87.472656 115.328125 87.394531 115.253906 87.390625 115.101562 C 87.328125 112.925781 87.34375 111.066406 87.441406 109.523438 C 87.746094 104.554688 90.714844 101.425781 95.609375 101.308594 C 96.921875 101.28125 97.722656 101.253906 98.019531 101.238281 C 98.308594 101.222656 98.457031 101.066406 98.457031 100.769531 Z M 179.207031 99.695312 L 168.964844 99.695312 C 168.808594 99.695312 168.730469 99.617188 168.730469 99.460938 L 168.730469 93.285156 C 168.730469 93.140625 168.804688 93.066406 168.949219 93.066406 C 169.851562 93.0625 172.957031 93.058594 178.261719 93.050781 C 182.519531 93.050781 186.804688 94.675781 187.632812 99.171875 C 188.273438 102.664062 186.285156 105.703125 182.742188 106.699219 C 180.832031 107.238281 178.878906 107.410156 176.886719 107.214844 C 176.507812 107.183594 176.320312 107.355469 176.320312 107.734375 L 176.320312 108.074219 C 176.320312 108.21875 176.371094 108.339844 176.472656 108.441406 C 176.570312 108.539062 176.695312 108.589844 176.835938 108.589844 L 187.347656 108.589844 C 187.460938 108.589844 187.515625 108.648438 187.515625 108.757812 L 187.515625 115.132812 C 187.515625 115.261719 187.449219 115.328125 187.320312 115.328125 L 168.832031 115.328125 C 168.683594 115.328125 168.605469 115.253906 168.601562 115.101562 C 168.539062 112.925781 168.554688 111.066406 168.652344 109.523438 C 168.964844 104.554688 171.933594 101.425781 176.828125 101.308594 C 178.136719 101.28125 178.941406 101.253906 179.238281 101.238281 C 179.527344 101.222656 179.671875 101.066406 179.671875 100.769531 L 179.671875 100.160156 C 179.671875 99.847656 179.519531 99.695312 179.207031 99.695312 Z M 214.484375 99.96875 C 214.125 99.96875 213.945312 100.148438 213.945312 100.5 L 213.945312 101.046875 C 213.945312 101.183594 213.996094 101.300781 214.097656 101.390625 C 214.203125 101.484375 214.324219 101.519531 214.460938 101.503906 C 217.839844 101.121094 222.601562 101.359375 224.648438 104.421875 C 226.671875 107.449219 225.570312 111.609375 222.609375 113.609375 C 220.988281 114.703125 219.265625 115.234375 217.058594 115.253906 C 213.183594 115.304688 209.878906 115.304688 207.144531 115.253906 C 207.027344 115.253906 206.96875 115.195312 206.96875 115.074219 L 206.96875 108.707031 C 206.96875 108.539062 207.054688 108.453125 207.222656 108.453125 L 216.761719 108.453125 C 216.914062 108.453125 217.039062 108.398438 217.148438 108.292969 C 217.253906 108.1875 217.308594 108.058594 217.308594 107.90625 L 217.308594 107.617188 C 217.308594 107.164062 217.082031 106.941406 216.628906 106.941406 L 207.347656 106.941406 C 207.082031 106.941406 206.949219 106.804688 206.949219 106.539062 L 206.949219 93.453125 C 206.949219 93.183594 207.078125 93.050781 207.339844 93.050781 L 224.945312 93.050781 C 225.035156 93.050781 225.113281 93.085938 225.175781 93.148438 C 225.242188 93.214844 225.273438 93.292969 225.273438 93.386719 L 225.273438 99.585938 C 225.273438 99.84375 225.144531 99.96875 224.886719 99.96875 Z M 288.1875 108.140625 L 288.1875 107.804688 C 288.1875 107.484375 288.027344 107.324219 287.707031 107.324219 C 284.453125 107.355469 281.996094 107.28125 280.335938 107.101562 C 274.792969 106.496094 272.414062 100.675781 275.164062 96.160156 C 276.671875 93.671875 279.40625 93.125 282.550781 93.082031 C 285.324219 93.042969 289.433594 93.070312 294.878906 93.160156 C 294.960938 93.164062 295.027344 93.191406 295.082031 93.25 C 295.136719 93.304688 295.164062 93.375 295.164062 93.453125 L 295.164062 99.605469 C 295.164062 99.785156 295.074219 99.875 294.894531 99.875 L 282.925781 99.875 C 282.523438 99.875 282.324219 100.078125 282.324219 100.480469 L 282.324219 100.734375 C 282.324219 101.007812 282.460938 101.132812 282.738281 101.121094 C 285.265625 100.960938 287.476562 101.007812 289.375 101.265625 C 299.355469 102.617188 296.726562 114.855469 287.910156 115.304688 C 286.589844 115.375 282.160156 115.390625 274.613281 115.355469 C 274.4375 115.355469 274.351562 115.269531 274.351562 115.09375 L 274.351562 108.933594 C 274.351562 108.847656 274.382812 108.773438 274.441406 108.710938 C 274.503906 108.652344 274.578125 108.621094 274.664062 108.621094 L 287.707031 108.621094 C 287.839844 108.621094 287.953125 108.574219 288.046875 108.480469 C 288.140625 108.386719 288.1875 108.273438 288.1875 108.140625 Z M 416.480469 108.148438 L 416.480469 107.8125 C 416.480469 107.492188 416.320312 107.332031 416 107.332031 C 412.746094 107.355469 410.289062 107.28125 408.632812 107.101562 C 403.082031 106.488281 400.710938 100.667969 403.460938 96.152344 C 404.972656 93.664062 407.707031 93.117188 410.851562 93.082031 C 413.625 93.042969 417.734375 93.070312 423.183594 93.167969 C 423.261719 93.171875 423.328125 93.199219 423.382812 93.257812 C 423.4375 93.3125 423.464844 93.378906 423.464844 93.460938 L 423.464844 99.613281 C 423.464844 99.792969 423.375 99.882812 423.195312 99.882812 L 411.222656 99.875 C 410.820312 99.875 410.617188 100.078125 410.617188 100.480469 L 410.617188 100.734375 C 410.617188 101.007812 410.757812 101.132812 411.03125 101.121094 C 413.558594 100.960938 415.773438 101.011719 417.667969 101.273438 C 427.65625 102.632812 425.015625 114.871094 416.199219 115.3125 C 414.878906 115.382812 410.445312 115.394531 402.898438 115.355469 C 402.726562 115.355469 402.636719 115.269531 402.636719 115.09375 L 402.636719 108.925781 C 402.636719 108.839844 402.667969 108.765625 402.730469 108.703125 C 402.789062 108.644531 402.863281 108.613281 402.949219 108.613281 L 416 108.628906 C 416.132812 108.628906 416.246094 108.582031 416.339844 108.488281 C 416.433594 108.394531 416.480469 108.28125 416.480469 108.148438 Z M 623.230469 108.546875 L 623.230469 115.253906 C 623.230469 115.324219 623.207031 115.386719 623.15625 115.433594 C 623.105469 115.484375 623.046875 115.511719 622.976562 115.511719 L 603.457031 115.511719 C 603.386719 115.511719 603.328125 115.484375 603.277344 115.433594 C 603.226562 115.386719 603.203125 115.324219 603.203125 115.253906 L 603.203125 93.3125 C 603.203125 93.242188 603.226562 93.183594 603.277344 93.132812 C 603.328125 93.085938 603.386719 93.058594 603.457031 93.058594 L 611.175781 93.058594 C 611.246094 93.058594 611.304688 93.085938 611.355469 93.132812 C 611.40625 93.183594 611.429688 93.242188 611.429688 93.3125 L 611.429688 108.039062 C 611.429688 108.109375 611.457031 108.167969 611.503906 108.21875 C 611.554688 108.269531 611.613281 108.292969 611.683594 108.292969 L 622.976562 108.292969 C 623.046875 108.292969 623.105469 108.316406 623.15625 108.367188 C 623.207031 108.417969 623.230469 108.476562 623.230469 108.546875 Z M 623.230469 108.546875 " fill-opacity="1" fill-rule="nonzero"/></svg>