<svg xmlns="http://www.w3.org/2000/svg" xmlns:xlink="http://www.w3.org/1999/xlink" width="500" zoomAndPan="magnify" viewBox="0 0 375 225" height="300" preserveAspectRatio="xMidYMid meet" version="1.0"><path fill="#ffffff" d="M 310.046875 85.128906 C 309.679688 84.1875 309.394531 83.261719 309.074219 82.503906 C 302.703125 67.476562 291.28125 55.847656 276.203125 49.640625 C 270.402344 47.25 264.632812 45.84375 258.898438 45.417969 C 252.246094 44.925781 245.984375 45.300781 240.113281 46.542969 C 236.503906 47.308594 232.839844 48.503906 229.121094 50.128906 C 219.480469 54.332031 211.46875 60.628906 205.085938 69.015625 C 204.988281 69.148438 204.902344 69.136719 204.835938 68.988281 L 195.609375 49.1875 C 195.484375 48.921875 195.527344 48.683594 195.738281 48.476562 C 209.21875 35.085938 225.484375 27.246094 244.53125 24.957031 C 248.054688 24.53125 252.488281 24.445312 257.835938 24.695312 C 261.078125 24.847656 263.949219 25.144531 266.453125 25.585938 C 285.660156 28.972656 301.644531 37.949219 314.402344 52.515625 C 323.660156 63.085938 329.78125 75.742188 332.765625 90.492188 C 333.320312 93.222656 333.675781 96.070312 333.832031 99.035156 C 334.21875 106.207031 334.121094 113.511719 332.695312 120.652344 C 329.394531 137.097656 321.832031 151.226562 310.003906 163.042969 C 308.085938 164.957031 305.914062 166.871094 303.484375 168.785156 C 290.765625 178.796875 276.226562 184.554688 259.875 186.054688 C 259.566406 186.082031 259.347656 185.957031 259.21875 185.679688 L 249.984375 165.855469 C 249.894531 165.671875 249.957031 165.574219 250.160156 165.574219 C 252.589844 165.554688 256.78125 165.65625 260.035156 165.28125 C 267.71875 164.402344 274.726562 162.285156 281.058594 158.925781 C 294.269531 151.921875 303.714844 141.4375 309.394531 127.476562 C 310.683594 124.304688 311.683594 120.878906 312.390625 117.207031 C 312.671875 115.742188 312.925781 114.265625 313.148438 112.78125 C 313.609375 109.664062 313.421875 104.886719 313.40625 102.5625 C 313.394531 100.417969 313.25 98.511719 312.972656 96.847656 C 312.234375 92.402344 311.410156 88.605469 310.046875 85.128906 Z M 310.046875 85.128906 " fill-opacity="1" fill-rule="nonzero"/><path fill="#ffffff" d="M 135.554688 132.015625 C 135.882812 132.015625 135.976562 131.871094 135.839844 131.574219 L 110.179688 76.507812 C 109.960938 76.039062 109.742188 76.039062 109.527344 76.507812 L 58.429688 186.144531 C 58.386719 186.238281 58.3125 186.289062 58.207031 186.289062 L 34.742188 186.289062 C 34.667969 186.285156 34.617188 186.253906 34.582031 186.191406 C 34.550781 186.128906 34.550781 186.070312 34.589844 186.007812 C 34.804688 185.683594 35.003906 185.324219 35.179688 184.9375 C 74.300781 100.988281 94.324219 58.011719 95.25 56.019531 C 96.070312 54.25 97.253906 51.605469 98.804688 48.085938 C 102.777344 39.054688 106.144531 31.539062 108.914062 25.539062 C 109.035156 25.269531 109.300781 25.039062 109.703125 24.855469 C 109.824219 24.800781 109.914062 24.832031 109.96875 24.957031 L 185.054688 186.085938 C 185.078125 186.132812 185.074219 186.179688 185.046875 186.222656 C 185.015625 186.265625 184.976562 186.289062 184.925781 186.289062 L 161.539062 186.289062 C 161.40625 186.289062 161.308594 186.226562 161.25 186.109375 L 146.902344 155.3125 C 146.796875 155.089844 146.625 154.980469 146.382812 154.980469 C 132.890625 154.976562 110.722656 154.976562 79.871094 154.984375 C 79.679688 154.984375 79.480469 154.949219 79.265625 154.871094 C 79.183594 154.839844 79.144531 154.78125 79.144531 154.695312 C 79.144531 154.605469 79.1875 154.546875 79.269531 154.519531 C 79.507812 154.4375 79.675781 154.277344 79.777344 154.042969 C 81.148438 150.691406 82.105469 148.429688 82.648438 147.253906 C 84.902344 142.367188 87.15625 137.363281 89.402344 132.238281 C 89.46875 132.089844 89.582031 132.015625 89.742188 132.015625 Z M 135.554688 132.015625 " fill-opacity="1" fill-rule="nonzero"/><path fill="#ffffff" d="M 175.191406 76.28125 C 175.070312 76.332031 174.980469 76.414062 174.933594 76.519531 C 171.078125 84.824219 165.488281 96.839844 158.160156 112.558594 C 158.058594 112.773438 157.960938 112.773438 157.859375 112.558594 L 146.367188 87.894531 C 146.1875 87.507812 146.1875 87.121094 146.367188 86.734375 C 148.035156 83.152344 152.824219 72.886719 160.726562 55.929688 C 161.390625 54.503906 162.574219 51.855469 164.273438 47.980469 C 167.78125 40.003906 171.105469 32.589844 174.25 25.730469 C 174.410156 25.378906 174.703125 25.09375 175.128906 24.871094 C 175.253906 24.808594 175.34375 24.839844 175.402344 24.964844 L 250.453125 186.027344 C 250.535156 186.199219 250.480469 186.289062 250.289062 186.289062 L 226.917969 186.289062 C 226.816406 186.289062 226.742188 186.242188 226.695312 186.148438 L 175.570312 76.433594 C 175.492188 76.265625 175.367188 76.214844 175.191406 76.28125 Z M 175.191406 76.28125 " fill-opacity="1" fill-rule="nonzero"/></svg>