<svg xmlns="http://www.w3.org/2000/svg" xmlns:xlink="http://www.w3.org/1999/xlink" width="1600" zoomAndPan="magnify" viewBox="0 0 1200 675.000002" height="900" preserveAspectRatio="xMidYMid meet" version="1.0"><defs><clipPath id="93ed246263"><path d="M 330 0 L 1102 0 L 1102 674 L 330 674 Z M 330 0 " clip-rule="nonzero"/></clipPath><clipPath id="6881b376a9"><path d="M 271 0 L 1112 0 L 1112 674 L 271 674 Z M 271 0 " clip-rule="nonzero"/></clipPath><clipPath id="de22e0a2fe"><path d="M 315 0 L 1087 0 L 1087 674 L 315 674 Z M 315 0 " clip-rule="nonzero"/></clipPath><clipPath id="d7bc18c429"><path d="M 224 0 L 1096 0 L 1096 674 L 224 674 Z M 224 0 " clip-rule="nonzero"/></clipPath><clipPath id="eabb9ed8c0"><path d="M 279 0 L 1052 0 L 1052 674 L 279 674 Z M 279 0 " clip-rule="nonzero"/></clipPath><clipPath id="af7b7ea860"><path d="M 221 0 L 1061 0 L 1061 674 L 221 674 Z M 221 0 " clip-rule="nonzero"/></clipPath><clipPath id="a8822e2cb8"><path d="M 264 0 L 1037 0 L 1037 674 L 264 674 Z M 264 0 " clip-rule="nonzero"/></clipPath><clipPath id="333b1d3921"><path d="M 173 0 L 1046 0 L 1046 674 L 173 674 Z M 173 0 " clip-rule="nonzero"/></clipPath><clipPath id="9175e18b7e"><path d="M 342 0 L 1114 0 L 1114 674 L 342 674 Z M 342 0 " clip-rule="nonzero"/></clipPath><clipPath id="0d121153c0"><path d="M 283 0 L 1124 0 L 1124 674 L 283 674 Z M 283 0 " clip-rule="nonzero"/></clipPath><clipPath id="9a4583cda8"><path d="M 326 0 L 1099 0 L 1099 674 L 326 674 Z M 326 0 " clip-rule="nonzero"/></clipPath><clipPath id="9f411eb63c"><path d="M 236 0 L 1108 0 L 1108 674 L 236 674 Z M 236 0 " clip-rule="nonzero"/></clipPath><clipPath id="91305a1806"><path d="M 225 0 L 997 0 L 997 674 L 225 674 Z M 225 0 " clip-rule="nonzero"/></clipPath><clipPath id="181901da72"><path d="M 166 0 L 1006 0 L 1006 674 L 166 674 Z M 166 0 " clip-rule="nonzero"/></clipPath><clipPath id="a69e2d9d81"><path d="M 209 0 L 982 0 L 982 674 L 209 674 Z M 209 0 " clip-rule="nonzero"/></clipPath><clipPath id="4d0a5bd6cc"><path d="M 119 0 L 991 0 L 991 674 L 119 674 Z M 119 0 " clip-rule="nonzero"/></clipPath><clipPath id="bc242547c7"><path d="M 174 0 L 947 0 L 947 674 L 174 674 Z M 174 0 " clip-rule="nonzero"/></clipPath><clipPath id="6ec3695387"><path d="M 115 0 L 956 0 L 956 674 L 115 674 Z M 115 0 " clip-rule="nonzero"/></clipPath><clipPath id="2aa0925867"><path d="M 159 0 L 931 0 L 931 674 L 159 674 Z M 159 0 " clip-rule="nonzero"/></clipPath><clipPath id="f48ab787e9"><path d="M 68 0 L 941 0 L 941 674 L 68 674 Z M 68 0 " clip-rule="nonzero"/></clipPath><clipPath id="1c0f850455"><path d="M 237 0 L 1009 0 L 1009 674 L 237 674 Z M 237 0 " clip-rule="nonzero"/></clipPath><clipPath id="3a100f7554"><path d="M 178 0 L 1018 0 L 1018 674 L 178 674 Z M 178 0 " clip-rule="nonzero"/></clipPath><clipPath id="a5a95e1c4d"><path d="M 221 0 L 994 0 L 994 674 L 221 674 Z M 221 0 " clip-rule="nonzero"/></clipPath><clipPath id="e211951d8b"><path d="M 131 0 L 1003 0 L 1003 674 L 131 674 Z M 131 0 " clip-rule="nonzero"/></clipPath><clipPath id="35d24abdd2"><path d="M 116 0 L 888 0 L 888 674 L 116 674 Z M 116 0 " clip-rule="nonzero"/></clipPath><clipPath id="4bac101fea"><path d="M 57 0 L 898 0 L 898 674 L 57 674 Z M 57 0 " clip-rule="nonzero"/></clipPath><clipPath id="64b61d3bb3"><path d="M 100 0 L 873 0 L 873 674 L 100 674 Z M 100 0 " clip-rule="nonzero"/></clipPath><clipPath id="bf91e50157"><path d="M 10 0 L 882 0 L 882 674 L 10 674 Z M 10 0 " clip-rule="nonzero"/></clipPath><clipPath id="c78551e276"><path d="M 65 0 L 838 0 L 838 674 L 65 674 Z M 65 0 " clip-rule="nonzero"/></clipPath><clipPath id="16866fd11d"><path d="M 7 0 L 847 0 L 847 674 L 7 674 Z M 7 0 " clip-rule="nonzero"/></clipPath><clipPath id="164ae159aa"><path d="M 50 0 L 822 0 L 822 674 L 50 674 Z M 50 0 " clip-rule="nonzero"/></clipPath><clipPath id="e582247a53"><path d="M 0.886719 0 L 832 0 L 832 674 L 0.886719 674 Z M 0.886719 0 " clip-rule="nonzero"/></clipPath><clipPath id="fc3487f35e"><path d="M 128 0 L 900 0 L 900 674 L 128 674 Z M 128 0 " clip-rule="nonzero"/></clipPath><clipPath id="f3f7f8bc58"><path d="M 69 0 L 910 0 L 910 674 L 69 674 Z M 69 0 " clip-rule="nonzero"/></clipPath><clipPath id="80e1324fec"><path d="M 112 0 L 885 0 L 885 674 L 112 674 Z M 112 0 " clip-rule="nonzero"/></clipPath><clipPath id="c9c6f21138"><path d="M 22 0 L 894 0 L 894 674 L 22 674 Z M 22 0 " clip-rule="nonzero"/></clipPath><clipPath id="055c4e52fc"><path d="M 11 0 L 783 0 L 783 674 L 11 674 Z M 11 0 " clip-rule="nonzero"/></clipPath><clipPath id="a3d73142e1"><path d="M 0.886719 0 L 792 0 L 792 674 L 0.886719 674 Z M 0.886719 0 " clip-rule="nonzero"/></clipPath><clipPath id="1b2f74975b"><path d="M 0.886719 0 L 768 0 L 768 674 L 0.886719 674 Z M 0.886719 0 " clip-rule="nonzero"/></clipPath><clipPath id="d628d32f83"><path d="M 0.886719 0 L 777 0 L 777 674 L 0.886719 674 Z M 0.886719 0 " clip-rule="nonzero"/></clipPath><clipPath id="59dd9f045e"><path d="M 0.886719 0 L 733 0 L 733 674 L 0.886719 674 Z M 0.886719 0 " clip-rule="nonzero"/></clipPath><clipPath id="bdda437b34"><path d="M 0.886719 0 L 742 0 L 742 674 L 0.886719 674 Z M 0.886719 0 " clip-rule="nonzero"/></clipPath><clipPath id="f2e73b5409"><path d="M 0.886719 0 L 717 0 L 717 674 L 0.886719 674 Z M 0.886719 0 " clip-rule="nonzero"/></clipPath><clipPath id="f47f413724"><path d="M 0.886719 0 L 726 0 L 726 674 L 0.886719 674 Z M 0.886719 0 " clip-rule="nonzero"/></clipPath><clipPath id="425a34a24a"><path d="M 23 0 L 795 0 L 795 674 L 23 674 Z M 23 0 " clip-rule="nonzero"/></clipPath><clipPath id="964fc19c6b"><path d="M 0.886719 0 L 804 0 L 804 674 L 0.886719 674 Z M 0.886719 0 " clip-rule="nonzero"/></clipPath><clipPath id="c5b1d629ce"><path d="M 7 0 L 780 0 L 780 674 L 7 674 Z M 7 0 " clip-rule="nonzero"/></clipPath><clipPath id="8ef1466285"><path d="M 0.886719 0 L 789 0 L 789 674 L 0.886719 674 Z M 0.886719 0 " clip-rule="nonzero"/></clipPath><clipPath id="9a6e6688a4"><path d="M 755 0 L 1199.113281 0 L 1199.113281 674 L 755 674 Z M 755 0 " clip-rule="nonzero"/></clipPath><clipPath id="b56316a17d"><path d="M 696 0 L 1199.113281 0 L 1199.113281 674 L 696 674 Z M 696 0 " clip-rule="nonzero"/></clipPath><clipPath id="a4319fcc1e"><path d="M 739 0 L 1199.113281 0 L 1199.113281 674 L 739 674 Z M 739 0 " clip-rule="nonzero"/></clipPath><clipPath id="1befab3eb6"><path d="M 649 0 L 1199.113281 0 L 1199.113281 674 L 649 674 Z M 649 0 " clip-rule="nonzero"/></clipPath><clipPath id="15bd2eda7c"><path d="M 704 0 L 1199.113281 0 L 1199.113281 674 L 704 674 Z M 704 0 " clip-rule="nonzero"/></clipPath><clipPath id="b87965a27c"><path d="M 646 0 L 1199.113281 0 L 1199.113281 674 L 646 674 Z M 646 0 " clip-rule="nonzero"/></clipPath><clipPath id="0f6531b13e"><path d="M 689 0 L 1199.113281 0 L 1199.113281 674 L 689 674 Z M 689 0 " clip-rule="nonzero"/></clipPath><clipPath id="8f9c8517d8"><path d="M 598 0 L 1199.113281 0 L 1199.113281 674 L 598 674 Z M 598 0 " clip-rule="nonzero"/></clipPath><clipPath id="8582a3352b"><path d="M 767 0 L 1199.113281 0 L 1199.113281 674 L 767 674 Z M 767 0 " clip-rule="nonzero"/></clipPath><clipPath id="0120582a28"><path d="M 708 0 L 1199.113281 0 L 1199.113281 674 L 708 674 Z M 708 0 " clip-rule="nonzero"/></clipPath><clipPath id="da6296b44e"><path d="M 751 0 L 1199.113281 0 L 1199.113281 674 L 751 674 Z M 751 0 " clip-rule="nonzero"/></clipPath><clipPath id="339e619ffe"><path d="M 661 0 L 1199.113281 0 L 1199.113281 674 L 661 674 Z M 661 0 " clip-rule="nonzero"/></clipPath><clipPath id="39dd1db116"><path d="M 650 0 L 1199.113281 0 L 1199.113281 674 L 650 674 Z M 650 0 " clip-rule="nonzero"/></clipPath><clipPath id="d751eeb2c7"><path d="M 591 0 L 1199.113281 0 L 1199.113281 674 L 591 674 Z M 591 0 " clip-rule="nonzero"/></clipPath><clipPath id="e7a326efa9"><path d="M 634 0 L 1199.113281 0 L 1199.113281 674 L 634 674 Z M 634 0 " clip-rule="nonzero"/></clipPath><clipPath id="6da09ec4b4"><path d="M 544 0 L 1199.113281 0 L 1199.113281 674 L 544 674 Z M 544 0 " clip-rule="nonzero"/></clipPath><clipPath id="40a9d6ffdf"><path d="M 599 0 L 1199.113281 0 L 1199.113281 674 L 599 674 Z M 599 0 " clip-rule="nonzero"/></clipPath><clipPath id="9e0efc510f"><path d="M 540 0 L 1199.113281 0 L 1199.113281 674 L 540 674 Z M 540 0 " clip-rule="nonzero"/></clipPath><clipPath id="85dc2c86ac"><path d="M 584 0 L 1199.113281 0 L 1199.113281 674 L 584 674 Z M 584 0 " clip-rule="nonzero"/></clipPath><clipPath id="431cb8ebb3"><path d="M 493 0 L 1199.113281 0 L 1199.113281 674 L 493 674 Z M 493 0 " clip-rule="nonzero"/></clipPath><clipPath id="4c02d34aea"><path d="M 662 0 L 1199.113281 0 L 1199.113281 674 L 662 674 Z M 662 0 " clip-rule="nonzero"/></clipPath><clipPath id="6be2cb8d16"><path d="M 603 0 L 1199.113281 0 L 1199.113281 674 L 603 674 Z M 603 0 " clip-rule="nonzero"/></clipPath><clipPath id="f0b2276088"><path d="M 646 0 L 1199.113281 0 L 1199.113281 674 L 646 674 Z M 646 0 " clip-rule="nonzero"/></clipPath><clipPath id="7f4f786e0c"><path d="M 556 0 L 1199.113281 0 L 1199.113281 674 L 556 674 Z M 556 0 " clip-rule="nonzero"/></clipPath><clipPath id="4e9b3a412a"><path d="M 541 0 L 1199.113281 0 L 1199.113281 674 L 541 674 Z M 541 0 " clip-rule="nonzero"/></clipPath><clipPath id="250a5700b6"><path d="M 482 0 L 1199.113281 0 L 1199.113281 674 L 482 674 Z M 482 0 " clip-rule="nonzero"/></clipPath><clipPath id="6086d8eeb3"><path d="M 525 0 L 1199.113281 0 L 1199.113281 674 L 525 674 Z M 525 0 " clip-rule="nonzero"/></clipPath><clipPath id="4735961d30"><path d="M 435 0 L 1199.113281 0 L 1199.113281 674 L 435 674 Z M 435 0 " clip-rule="nonzero"/></clipPath><clipPath id="146281d7d4"><path d="M 490 0 L 1199.113281 0 L 1199.113281 674 L 490 674 Z M 490 0 " clip-rule="nonzero"/></clipPath><clipPath id="7ce41f7e5f"><path d="M 431 0 L 1199.113281 0 L 1199.113281 674 L 431 674 Z M 431 0 " clip-rule="nonzero"/></clipPath><clipPath id="39076e8794"><path d="M 475 0 L 1199.113281 0 L 1199.113281 674 L 475 674 Z M 475 0 " clip-rule="nonzero"/></clipPath><clipPath id="3b17168ccb"><path d="M 384 0 L 1199.113281 0 L 1199.113281 674 L 384 674 Z M 384 0 " clip-rule="nonzero"/></clipPath><clipPath id="58d4745479"><path d="M 553 0 L 1199.113281 0 L 1199.113281 674 L 553 674 Z M 553 0 " clip-rule="nonzero"/></clipPath><clipPath id="2f55c992fd"><path d="M 494 0 L 1199.113281 0 L 1199.113281 674 L 494 674 Z M 494 0 " clip-rule="nonzero"/></clipPath><clipPath id="21768ac3aa"><path d="M 537 0 L 1199.113281 0 L 1199.113281 674 L 537 674 Z M 537 0 " clip-rule="nonzero"/></clipPath><clipPath id="09219c1887"><path d="M 447 0 L 1199.113281 0 L 1199.113281 674 L 447 674 Z M 447 0 " clip-rule="nonzero"/></clipPath><clipPath id="239cb21b77"><path d="M 436 0 L 1199.113281 0 L 1199.113281 674 L 436 674 Z M 436 0 " clip-rule="nonzero"/></clipPath><clipPath id="cf508752fe"><path d="M 377 0 L 1199.113281 0 L 1199.113281 674 L 377 674 Z M 377 0 " clip-rule="nonzero"/></clipPath><clipPath id="5f79f9a8a1"><path d="M 420 0 L 1193 0 L 1193 674 L 420 674 Z M 420 0 " clip-rule="nonzero"/></clipPath><clipPath id="32ade1bc25"><path d="M 330 0 L 1199.113281 0 L 1199.113281 674 L 330 674 Z M 330 0 " clip-rule="nonzero"/></clipPath><clipPath id="f5b34a3528"><path d="M 385 0 L 1158 0 L 1158 674 L 385 674 Z M 385 0 " clip-rule="nonzero"/></clipPath><clipPath id="c97dc9266e"><path d="M 326 0 L 1167 0 L 1167 674 L 326 674 Z M 326 0 " clip-rule="nonzero"/></clipPath><clipPath id="851288ddaa"><path d="M 370 0 L 1142 0 L 1142 674 L 370 674 Z M 370 0 " clip-rule="nonzero"/></clipPath><clipPath id="2dd306da37"><path d="M 279 0 L 1151 0 L 1151 674 L 279 674 Z M 279 0 " clip-rule="nonzero"/></clipPath><clipPath id="1f1a1e1c4f"><path d="M 448 0 L 1199.113281 0 L 1199.113281 674 L 448 674 Z M 448 0 " clip-rule="nonzero"/></clipPath><clipPath id="025d704f1c"><path d="M 389 0 L 1199.113281 0 L 1199.113281 674 L 389 674 Z M 389 0 " clip-rule="nonzero"/></clipPath><clipPath id="239b0b218d"><path d="M 432 0 L 1199.113281 0 L 1199.113281 674 L 432 674 Z M 432 0 " clip-rule="nonzero"/></clipPath><clipPath id="f9f0ccad56"><path d="M 342 0 L 1199.113281 0 L 1199.113281 674 L 342 674 Z M 342 0 " clip-rule="nonzero"/></clipPath><clipPath id="2c132f8a96"><path d="M 0.886719 5 L 721 5 L 721 674 L 0.886719 674 Z M 0.886719 5 " clip-rule="nonzero"/></clipPath><clipPath id="4049443471"><path d="M 0.886719 0 L 730 0 L 730 674 L 0.886719 674 Z M 0.886719 0 " clip-rule="nonzero"/></clipPath><clipPath id="66918287ea"><path d="M 0.886719 17 L 706 17 L 706 674 L 0.886719 674 Z M 0.886719 17 " clip-rule="nonzero"/></clipPath><clipPath id="13083df2c9"><path d="M 0.886719 0 L 715 0 L 715 674 L 0.886719 674 Z M 0.886719 0 " clip-rule="nonzero"/></clipPath><clipPath id="358be60e56"><path d="M 0.886719 8 L 671 8 L 671 674 L 0.886719 674 Z M 0.886719 8 " clip-rule="nonzero"/></clipPath><clipPath id="14614f2596"><path d="M 0.886719 0 L 680 0 L 680 674 L 0.886719 674 Z M 0.886719 0 " clip-rule="nonzero"/></clipPath><clipPath id="a6a1ef0f59"><path d="M 0.886719 20 L 655 20 L 655 674 L 0.886719 674 Z M 0.886719 20 " clip-rule="nonzero"/></clipPath><clipPath id="48853b190a"><path d="M 0.886719 0 L 664 0 L 664 674 L 0.886719 674 Z M 0.886719 0 " clip-rule="nonzero"/></clipPath><clipPath id="b080d45071"><path d="M 0.886719 17 L 733 17 L 733 674 L 0.886719 674 Z M 0.886719 17 " clip-rule="nonzero"/></clipPath><clipPath id="6948af2d93"><path d="M 0.886719 0 L 742 0 L 742 674 L 0.886719 674 Z M 0.886719 0 " clip-rule="nonzero"/></clipPath><clipPath id="41010f2cdb"><path d="M 0.886719 29 L 718 29 L 718 674 L 0.886719 674 Z M 0.886719 29 " clip-rule="nonzero"/></clipPath><clipPath id="a8dff5383b"><path d="M 0.886719 0 L 727 0 L 727 674 L 0.886719 674 Z M 0.886719 0 " clip-rule="nonzero"/></clipPath><clipPath id="881c60d501"><path d="M 0.886719 8 L 616 8 L 616 674 L 0.886719 674 Z M 0.886719 8 " clip-rule="nonzero"/></clipPath><clipPath id="0b83efac32"><path d="M 0.886719 0 L 625 0 L 625 674 L 0.886719 674 Z M 0.886719 0 " clip-rule="nonzero"/></clipPath><clipPath id="6fe046d721"><path d="M 0.886719 20 L 601 20 L 601 674 L 0.886719 674 Z M 0.886719 20 " clip-rule="nonzero"/></clipPath><clipPath id="c55dd9c5e1"><path d="M 0.886719 0 L 610 0 L 610 674 L 0.886719 674 Z M 0.886719 0 " clip-rule="nonzero"/></clipPath><clipPath id="529bcae708"><path d="M 0.886719 12 L 565 12 L 565 674 L 0.886719 674 Z M 0.886719 12 " clip-rule="nonzero"/></clipPath><clipPath id="25e9f1d5d7"><path d="M 0.886719 0 L 575 0 L 575 674 L 0.886719 674 Z M 0.886719 0 " clip-rule="nonzero"/></clipPath><clipPath id="3c389da3f2"><path d="M 0.886719 23 L 550 23 L 550 674 L 0.886719 674 Z M 0.886719 23 " clip-rule="nonzero"/></clipPath><clipPath id="d75d213d8c"><path d="M 0.886719 0 L 559 0 L 559 674 L 0.886719 674 Z M 0.886719 0 " clip-rule="nonzero"/></clipPath><clipPath id="07572797ec"><path d="M 0.886719 20 L 628 20 L 628 674 L 0.886719 674 Z M 0.886719 20 " clip-rule="nonzero"/></clipPath><clipPath id="8b91436aeb"><path d="M 0.886719 0 L 637 0 L 637 674 L 0.886719 674 Z M 0.886719 0 " clip-rule="nonzero"/></clipPath><clipPath id="2e24304b7b"><path d="M 0.886719 32 L 613 32 L 613 674 L 0.886719 674 Z M 0.886719 32 " clip-rule="nonzero"/></clipPath><clipPath id="57c8960c49"><path d="M 0.886719 0 L 622 0 L 622 674 L 0.886719 674 Z M 0.886719 0 " clip-rule="nonzero"/></clipPath><clipPath id="244d6fd09e"><path d="M 0.886719 9 L 507 9 L 507 674 L 0.886719 674 Z M 0.886719 9 " clip-rule="nonzero"/></clipPath><clipPath id="0bdd4c3b7a"><path d="M 0.886719 0 L 516 0 L 516 674 L 0.886719 674 Z M 0.886719 0 " clip-rule="nonzero"/></clipPath><clipPath id="8b14ce26a0"><path d="M 0.886719 21 L 492 21 L 492 674 L 0.886719 674 Z M 0.886719 21 " clip-rule="nonzero"/></clipPath><clipPath id="71cafdd329"><path d="M 0.886719 0 L 501 0 L 501 674 L 0.886719 674 Z M 0.886719 0 " clip-rule="nonzero"/></clipPath><clipPath id="da1987349a"><path d="M 0.886719 12 L 457 12 L 457 674 L 0.886719 674 Z M 0.886719 12 " clip-rule="nonzero"/></clipPath><clipPath id="2d5735d358"><path d="M 0.886719 0 L 466 0 L 466 674 L 0.886719 674 Z M 0.886719 0 " clip-rule="nonzero"/></clipPath><clipPath id="3e4562e3bc"><path d="M 0.886719 24 L 441 24 L 441 674 L 0.886719 674 Z M 0.886719 24 " clip-rule="nonzero"/></clipPath><clipPath id="c4b299e144"><path d="M 0.886719 0 L 450 0 L 450 674 L 0.886719 674 Z M 0.886719 0 " clip-rule="nonzero"/></clipPath><clipPath id="a9ca3ad5fd"><path d="M 0.886719 21 L 519 21 L 519 674 L 0.886719 674 Z M 0.886719 21 " clip-rule="nonzero"/></clipPath><clipPath id="3cd42b210a"><path d="M 0.886719 0 L 528 0 L 528 674 L 0.886719 674 Z M 0.886719 0 " clip-rule="nonzero"/></clipPath><clipPath id="2af8f4cef0"><path d="M 0.886719 33 L 504 33 L 504 674 L 0.886719 674 Z M 0.886719 33 " clip-rule="nonzero"/></clipPath><clipPath id="7a0f48b5d1"><path d="M 0.886719 0 L 513 0 L 513 674 L 0.886719 674 Z M 0.886719 0 " clip-rule="nonzero"/></clipPath><clipPath id="a78aec2b8a"><path d="M 0.886719 12 L 402 12 L 402 674 L 0.886719 674 Z M 0.886719 12 " clip-rule="nonzero"/></clipPath><clipPath id="8967d0307a"><path d="M 0.886719 0 L 411 0 L 411 674 L 0.886719 674 Z M 0.886719 0 " clip-rule="nonzero"/></clipPath><clipPath id="1890d2e87e"><path d="M 0.886719 24 L 387 24 L 387 674 L 0.886719 674 Z M 0.886719 24 " clip-rule="nonzero"/></clipPath><clipPath id="b43c1c9c7c"><path d="M 0.886719 0 L 396 0 L 396 674 L 0.886719 674 Z M 0.886719 0 " clip-rule="nonzero"/></clipPath><clipPath id="99acfb20c9"><path d="M 0.886719 15 L 351 15 L 351 674 L 0.886719 674 Z M 0.886719 15 " clip-rule="nonzero"/></clipPath><clipPath id="063d9876e6"><path d="M 0.886719 0 L 361 0 L 361 674 L 0.886719 674 Z M 0.886719 0 " clip-rule="nonzero"/></clipPath><clipPath id="5537edd7be"><path d="M 0.886719 27 L 336 27 L 336 674 L 0.886719 674 Z M 0.886719 27 " clip-rule="nonzero"/></clipPath><clipPath id="8135b86d48"><path d="M 0.886719 0 L 345 0 L 345 674 L 0.886719 674 Z M 0.886719 0 " clip-rule="nonzero"/></clipPath><clipPath id="4a61498f9e"><path d="M 0.886719 24 L 414 24 L 414 674 L 0.886719 674 Z M 0.886719 24 " clip-rule="nonzero"/></clipPath><clipPath id="237edb6cd4"><path d="M 0.886719 0 L 423 0 L 423 674 L 0.886719 674 Z M 0.886719 0 " clip-rule="nonzero"/></clipPath><clipPath id="bc286fd8ff"><path d="M 0.886719 36 L 399 36 L 399 674 L 0.886719 674 Z M 0.886719 36 " clip-rule="nonzero"/></clipPath><clipPath id="1b50e162c9"><path d="M 0.886719 0 L 408 0 L 408 674 L 0.886719 674 Z M 0.886719 0 " clip-rule="nonzero"/></clipPath><clipPath id="7cbab65db1"><path d="M 0.886719 135 L 485 135 L 485 674 L 0.886719 674 Z M 0.886719 135 " clip-rule="nonzero"/></clipPath><clipPath id="e73f6affab"><path d="M 0.886719 192 L 461 192 L 461 674 L 0.886719 674 Z M 0.886719 192 " clip-rule="nonzero"/></clipPath><clipPath id="47c61e9cbb"><path d="M 0.886719 115 L 470 115 L 470 674 L 0.886719 674 Z M 0.886719 115 " clip-rule="nonzero"/></clipPath><clipPath id="3c0d829d15"><path d="M 0.886719 184 L 425 184 L 425 674 L 0.886719 674 Z M 0.886719 184 " clip-rule="nonzero"/></clipPath><clipPath id="bbe5942aea"><path d="M 0.886719 139 L 435 139 L 435 674 L 0.886719 674 Z M 0.886719 139 " clip-rule="nonzero"/></clipPath><clipPath id="cf10df4a4e"><path d="M 0.886719 196 L 410 196 L 410 674 L 0.886719 674 Z M 0.886719 196 " clip-rule="nonzero"/></clipPath><clipPath id="e4fffffdfc"><path d="M 0.886719 119 L 419 119 L 419 674 L 0.886719 674 Z M 0.886719 119 " clip-rule="nonzero"/></clipPath><clipPath id="9aead93401"><path d="M 0.886719 147 L 497 147 L 497 674 L 0.886719 674 Z M 0.886719 147 " clip-rule="nonzero"/></clipPath><clipPath id="be8a9a0b10"><path d="M 0.886719 204 L 473 204 L 473 674 L 0.886719 674 Z M 0.886719 204 " clip-rule="nonzero"/></clipPath><clipPath id="f6caf1a8fc"><path d="M 0.886719 127 L 482 127 L 482 674 L 0.886719 674 Z M 0.886719 127 " clip-rule="nonzero"/></clipPath><clipPath id="63116783a2"><path d="M 0.886719 181 L 367 181 L 367 674 L 0.886719 674 Z M 0.886719 181 " clip-rule="nonzero"/></clipPath><clipPath id="b0a9f5bdb8"><path d="M 0.886719 136 L 376 136 L 376 674 L 0.886719 674 Z M 0.886719 136 " clip-rule="nonzero"/></clipPath><clipPath id="9bd653b9cf"><path d="M 0.886719 193 L 352 193 L 352 674 L 0.886719 674 Z M 0.886719 193 " clip-rule="nonzero"/></clipPath><clipPath id="515635e741"><path d="M 0.886719 116 L 361 116 L 361 674 L 0.886719 674 Z M 0.886719 116 " clip-rule="nonzero"/></clipPath><clipPath id="e47634b150"><path d="M 0.886719 184 L 317 184 L 317 674 L 0.886719 674 Z M 0.886719 184 " clip-rule="nonzero"/></clipPath><clipPath id="631b85578f"><path d="M 0.886719 139 L 326 139 L 326 674 L 0.886719 674 Z M 0.886719 139 " clip-rule="nonzero"/></clipPath><clipPath id="7f1fc00653"><path d="M 0.886719 196 L 301 196 L 301 674 L 0.886719 674 Z M 0.886719 196 " clip-rule="nonzero"/></clipPath><clipPath id="9487ea8cee"><path d="M 0.886719 193 L 379 193 L 379 674 L 0.886719 674 Z M 0.886719 193 " clip-rule="nonzero"/></clipPath><clipPath id="a5303c3493"><path d="M 0.886719 148 L 388 148 L 388 674 L 0.886719 674 Z M 0.886719 148 " clip-rule="nonzero"/></clipPath><clipPath id="040b243137"><path d="M 0.886719 205 L 364 205 L 364 674 L 0.886719 674 Z M 0.886719 205 " clip-rule="nonzero"/></clipPath><clipPath id="00e4f63a7a"><path d="M 0.886719 128 L 373 128 L 373 674 L 0.886719 674 Z M 0.886719 128 " clip-rule="nonzero"/></clipPath><clipPath id="82a3c37f22"><path d="M 793 0 L 1199.113281 0 L 1199.113281 503 L 793 503 Z M 793 0 " clip-rule="nonzero"/></clipPath><clipPath id="cdf95a88d1"><path d="M 836 0 L 1199.113281 0 L 1199.113281 492 L 836 492 Z M 836 0 " clip-rule="nonzero"/></clipPath><clipPath id="0bc24ea0cb"><path d="M 745 0 L 1199.113281 0 L 1199.113281 515 L 745 515 Z M 745 0 " clip-rule="nonzero"/></clipPath><clipPath id="245f144c20"><path d="M 800 0 L 1199.113281 0 L 1199.113281 484 L 800 484 Z M 800 0 " clip-rule="nonzero"/></clipPath><clipPath id="cf91f10392"><path d="M 742 0 L 1199.113281 0 L 1199.113281 507 L 742 507 Z M 742 0 " clip-rule="nonzero"/></clipPath><clipPath id="f33af403a3"><path d="M 785 0 L 1199.113281 0 L 1199.113281 496 L 785 496 Z M 785 0 " clip-rule="nonzero"/></clipPath><clipPath id="c4fc0fd309"><path d="M 695 0 L 1199.113281 0 L 1199.113281 519 L 695 519 Z M 695 0 " clip-rule="nonzero"/></clipPath><clipPath id="4cf84f4e22"><path d="M 805 0 L 1199.113281 0 L 1199.113281 515 L 805 515 Z M 805 0 " clip-rule="nonzero"/></clipPath><clipPath id="c1ca0cfafe"><path d="M 848 0 L 1199.113281 0 L 1199.113281 504 L 848 504 Z M 848 0 " clip-rule="nonzero"/></clipPath><clipPath id="aebb7df5da"><path d="M 757 0 L 1199.113281 0 L 1199.113281 527 L 757 527 Z M 757 0 " clip-rule="nonzero"/></clipPath><clipPath id="325aa90930"><path d="M 742 0 L 1199.113281 0 L 1199.113281 481 L 742 481 Z M 742 0 " clip-rule="nonzero"/></clipPath><clipPath id="2bd3c148bb"><path d="M 684 0 L 1199.113281 0 L 1199.113281 504 L 684 504 Z M 684 0 " clip-rule="nonzero"/></clipPath><clipPath id="31db5aaec3"><path d="M 727 0 L 1199.113281 0 L 1199.113281 493 L 727 493 Z M 727 0 " clip-rule="nonzero"/></clipPath><clipPath id="1aef4841ad"><path d="M 637 0 L 1199.113281 0 L 1199.113281 516 L 637 516 Z M 637 0 " clip-rule="nonzero"/></clipPath><clipPath id="81af4af051"><path d="M 691 0 L 1199.113281 0 L 1199.113281 485 L 691 485 Z M 691 0 " clip-rule="nonzero"/></clipPath><clipPath id="0ff0d64985"><path d="M 633 0 L 1199.113281 0 L 1199.113281 507 L 633 507 Z M 633 0 " clip-rule="nonzero"/></clipPath><clipPath id="bb230121cb"><path d="M 676 0 L 1199.113281 0 L 1199.113281 497 L 676 497 Z M 676 0 " clip-rule="nonzero"/></clipPath><clipPath id="55e52357f6"><path d="M 586 0 L 1199.113281 0 L 1199.113281 519 L 586 519 Z M 586 0 " clip-rule="nonzero"/></clipPath><clipPath id="a80a63db52"><path d="M 754 0 L 1199.113281 0 L 1199.113281 493 L 754 493 Z M 754 0 " clip-rule="nonzero"/></clipPath><clipPath id="41630018ea"><path d="M 696 0 L 1199.113281 0 L 1199.113281 516 L 696 516 Z M 696 0 " clip-rule="nonzero"/></clipPath><clipPath id="153b37e604"><path d="M 739 0 L 1199.113281 0 L 1199.113281 505 L 739 505 Z M 739 0 " clip-rule="nonzero"/></clipPath><clipPath id="2d36b641d2"><path d="M 649 0 L 1199.113281 0 L 1199.113281 528 L 649 528 Z M 649 0 " clip-rule="nonzero"/></clipPath><clipPath id="2e155381ce"><path d="M 637 0 L 1199.113281 0 L 1199.113281 484 L 637 484 Z M 637 0 " clip-rule="nonzero"/></clipPath><clipPath id="47233fb22c"><path d="M 579 0 L 1199.113281 0 L 1199.113281 507 L 579 507 Z M 579 0 " clip-rule="nonzero"/></clipPath><clipPath id="028835cfb0"><path d="M 622 0 L 1199.113281 0 L 1199.113281 496 L 622 496 Z M 622 0 " clip-rule="nonzero"/></clipPath><clipPath id="5d64453911"><path d="M 531 0 L 1199.113281 0 L 1199.113281 519 L 531 519 Z M 531 0 " clip-rule="nonzero"/></clipPath><clipPath id="dc93ac942d"><path d="M 586 0 L 1199.113281 0 L 1199.113281 488 L 586 488 Z M 586 0 " clip-rule="nonzero"/></clipPath><clipPath id="1ae367a2cc"><path d="M 528 0 L 1199.113281 0 L 1199.113281 510 L 528 510 Z M 528 0 " clip-rule="nonzero"/></clipPath><clipPath id="9d6a35afd6"><path d="M 571 0 L 1199.113281 0 L 1199.113281 500 L 571 500 Z M 571 0 " clip-rule="nonzero"/></clipPath><clipPath id="3592da4592"><path d="M 481 0 L 1199.113281 0 L 1199.113281 522 L 481 522 Z M 481 0 " clip-rule="nonzero"/></clipPath><clipPath id="cc2f3a199e"><path d="M 649 0 L 1199.113281 0 L 1199.113281 496 L 649 496 Z M 649 0 " clip-rule="nonzero"/></clipPath><clipPath id="b4277457be"><path d="M 591 0 L 1199.113281 0 L 1199.113281 519 L 591 519 Z M 591 0 " clip-rule="nonzero"/></clipPath><clipPath id="700a390cd2"><path d="M 634 0 L 1199.113281 0 L 1199.113281 508 L 634 508 Z M 634 0 " clip-rule="nonzero"/></clipPath><clipPath id="27c1f4a0ec"><path d="M 543 0 L 1199.113281 0 L 1199.113281 531 L 543 531 Z M 543 0 " clip-rule="nonzero"/></clipPath><clipPath id="d41f0f0612"><path d="M 817 0 L 1199.113281 0 L 1199.113281 527 L 817 527 Z M 817 0 " clip-rule="nonzero"/></clipPath><clipPath id="5b420089c5"><path d="M 860 0 L 1199.113281 0 L 1199.113281 516 L 860 516 Z M 860 0 " clip-rule="nonzero"/></clipPath><clipPath id="1bbcad0987"><path d="M 769 0 L 1199.113281 0 L 1199.113281 539 L 769 539 Z M 769 0 " clip-rule="nonzero"/></clipPath><clipPath id="20b4104ac7"><path d="M 824 0 L 1199.113281 0 L 1199.113281 508 L 824 508 Z M 824 0 " clip-rule="nonzero"/></clipPath><clipPath id="9c3752a161"><path d="M 766 0 L 1199.113281 0 L 1199.113281 531 L 766 531 Z M 766 0 " clip-rule="nonzero"/></clipPath><clipPath id="435822fcfa"><path d="M 809 0 L 1199.113281 0 L 1199.113281 520 L 809 520 Z M 809 0 " clip-rule="nonzero"/></clipPath><clipPath id="be50f362e9"><path d="M 719 0 L 1199.113281 0 L 1199.113281 543 L 719 543 Z M 719 0 " clip-rule="nonzero"/></clipPath><clipPath id="dba3027d72"><path d="M 829 0 L 1199.113281 0 L 1199.113281 539 L 829 539 Z M 829 0 " clip-rule="nonzero"/></clipPath><clipPath id="dad0db6064"><path d="M 872 0 L 1199.113281 0 L 1199.113281 528 L 872 528 Z M 872 0 " clip-rule="nonzero"/></clipPath><clipPath id="b33c3b2f5c"><path d="M 781 0 L 1199.113281 0 L 1199.113281 551 L 781 551 Z M 781 0 " clip-rule="nonzero"/></clipPath><clipPath id="3c7772a9cc"><path d="M 766 0 L 1199.113281 0 L 1199.113281 505 L 766 505 Z M 766 0 " clip-rule="nonzero"/></clipPath><clipPath id="04e2863a8d"><path d="M 708 0 L 1199.113281 0 L 1199.113281 528 L 708 528 Z M 708 0 " clip-rule="nonzero"/></clipPath><clipPath id="56e094d2d4"><path d="M 751 0 L 1199.113281 0 L 1199.113281 517 L 751 517 Z M 751 0 " clip-rule="nonzero"/></clipPath><clipPath id="54b3bcee3d"><path d="M 778 0 L 1199.113281 0 L 1199.113281 517 L 778 517 Z M 778 0 " clip-rule="nonzero"/></clipPath><clipPath id="f5083910d2"><path d="M 720 0 L 1199.113281 0 L 1199.113281 540 L 720 540 Z M 720 0 " clip-rule="nonzero"/></clipPath><clipPath id="759d56517c"><path d="M 763 0 L 1199.113281 0 L 1199.113281 529 L 763 529 Z M 763 0 " clip-rule="nonzero"/></clipPath><clipPath id="371290b55a"><path d="M 909 0 L 1199.113281 0 L 1199.113281 485 L 909 485 Z M 909 0 " clip-rule="nonzero"/></clipPath><clipPath id="dbf4f1a20e"><path d="M 819 0 L 1199.113281 0 L 1199.113281 507 L 819 507 Z M 819 0 " clip-rule="nonzero"/></clipPath><clipPath id="94d5a84873"><path d="M 866 0 L 1199.113281 0 L 1199.113281 470 L 866 470 Z M 866 0 " clip-rule="nonzero"/></clipPath><clipPath id="97dc754763"><path d="M 808 0 L 1199.113281 0 L 1199.113281 492 L 808 492 Z M 808 0 " clip-rule="nonzero"/></clipPath><clipPath id="11a895a5f6"><path d="M 851 0 L 1199.113281 0 L 1199.113281 482 L 851 482 Z M 851 0 " clip-rule="nonzero"/></clipPath><clipPath id="ee7989ecc2"><path d="M 878 0 L 1199.113281 0 L 1199.113281 482 L 878 482 Z M 878 0 " clip-rule="nonzero"/></clipPath><clipPath id="924c835b9d"><path d="M 820 0 L 1199.113281 0 L 1199.113281 504 L 820 504 Z M 820 0 " clip-rule="nonzero"/></clipPath><clipPath id="f32e27463f"><path d="M 863 0 L 1199.113281 0 L 1199.113281 494 L 863 494 Z M 863 0 " clip-rule="nonzero"/></clipPath></defs><g clip-path="url(#93ed246263)"><path stroke-linecap="butt" transform="matrix(0.529546, 0.529546, -0.529546, 0.529546, 357.259755, -27.00657)" fill="none" stroke-linejoin="miter" d="M 0.000680776 2.999251 L 1361.287304 2.999251 " stroke="#111111" stroke-width="6" stroke-opacity="1" stroke-miterlimit="4"/></g><g clip-path="url(#6881b376a9)"><path stroke-linecap="butt" transform="matrix(0.529546, 0.529546, -0.529546, 0.529546, 298.77919, -72.067614)" fill="none" stroke-linejoin="miter" d="M -0.0006034 2.997786 L 1489.015676 3.001474 " stroke="#111111" stroke-width="6" stroke-opacity="1" stroke-miterlimit="4"/></g><g clip-path="url(#de22e0a2fe)"><path stroke-linecap="butt" transform="matrix(0.529546, 0.529546, -0.529546, 0.529546, 342.020039, -15.024321)" fill="none" stroke-linejoin="miter" d="M -0.00333319 2.999905 L 1361.290667 2.999905 " stroke="#111111" stroke-width="6" stroke-opacity="1" stroke-miterlimit="4"/></g><g clip-path="url(#d7bc18c429)"><path stroke-linecap="butt" transform="matrix(0.529546, 0.529546, -0.529546, 0.529546, 251.62641, -92.003481)" fill="none" stroke-linejoin="miter" d="M 0.0019555 2.999522 L 1549.281435 2.999522 " stroke="#111111" stroke-width="6" stroke-opacity="1" stroke-miterlimit="4"/></g><g clip-path="url(#eabb9ed8c0)"><path stroke-linecap="butt" transform="matrix(0.529546, 0.529546, -0.529546, 0.529546, 306.560249, -23.262117)" fill="none" stroke-linejoin="miter" d="M 0.00250171 3.00053 L 1361.289125 3.00053 " stroke="#111111" stroke-width="6" stroke-opacity="1" stroke-miterlimit="4"/></g><g clip-path="url(#af7b7ea860)"><path stroke-linecap="butt" transform="matrix(0.529546, 0.529546, -0.529546, 0.529546, 248.079682, -68.323161)" fill="none" stroke-linejoin="miter" d="M 0.0012198 2.999062 L 1489.013811 2.999062 " stroke="#111111" stroke-width="6" stroke-opacity="1" stroke-miterlimit="4"/></g><g clip-path="url(#a8822e2cb8)"><path stroke-linecap="butt" transform="matrix(0.529546, 0.529546, -0.529546, 0.529546, 291.320533, -11.279869)" fill="none" stroke-linejoin="miter" d="M -0.00151225 3.001184 L 1361.288799 2.997495 " stroke="#111111" stroke-width="6" stroke-opacity="1" stroke-miterlimit="4"/></g><g clip-path="url(#333b1d3921)"><path stroke-linecap="butt" transform="matrix(0.529546, 0.529546, -0.529546, 0.529546, 200.926904, -88.259029)" fill="none" stroke-linejoin="miter" d="M 0.0000881346 2.997112 L 1549.283256 3.0008 " stroke="#111111" stroke-width="6" stroke-opacity="1" stroke-miterlimit="4"/></g><g clip-path="url(#9175e18b7e)"><path stroke-linecap="butt" transform="matrix(0.529546, 0.529546, -0.529546, 0.529546, 369.242003, -15.024321)" fill="none" stroke-linejoin="miter" d="M -0.00267929 2.999251 L 1361.287632 3.00294 " stroke="#111111" stroke-width="6" stroke-opacity="1" stroke-miterlimit="4"/></g><g clip-path="url(#0d121153c0)"><path stroke-linecap="butt" transform="matrix(0.529546, 0.529546, -0.529546, 0.529546, 310.761438, -60.08537)" fill="none" stroke-linejoin="miter" d="M -0.000270635 3.001479 L 1489.016009 2.997791 " stroke="#111111" stroke-width="6" stroke-opacity="1" stroke-miterlimit="4"/></g><g clip-path="url(#9a4583cda8)"><path stroke-linecap="butt" transform="matrix(0.529546, 0.529546, -0.529546, 0.529546, 354.002287, -3.042073)" fill="none" stroke-linejoin="miter" d="M 0.000682948 2.999905 L 1361.287306 2.999905 " stroke="#111111" stroke-width="6" stroke-opacity="1" stroke-miterlimit="4"/></g><g clip-path="url(#9f411eb63c)"><path stroke-linecap="butt" transform="matrix(0.529546, 0.529546, -0.529546, 0.529546, 263.608658, -80.021233)" fill="none" stroke-linejoin="miter" d="M -0.00140456 2.999522 L 1549.285451 2.999522 " stroke="#111111" stroke-width="6" stroke-opacity="1" stroke-miterlimit="4"/></g><g clip-path="url(#91305a1806)"><path stroke-linecap="butt" transform="matrix(0.529546, 0.529546, -0.529546, 0.529546, 252.11629, -23.920139)" fill="none" stroke-linejoin="miter" d="M -0.000792139 2.999793 L 1361.285831 2.999793 " stroke="#111111" stroke-width="6" stroke-opacity="1" stroke-miterlimit="4"/></g><g clip-path="url(#181901da72)"><path stroke-linecap="butt" transform="matrix(0.529546, 0.529546, -0.529546, 0.529546, 193.635737, -68.981214)" fill="none" stroke-linejoin="miter" d="M 0.00163032 3.002057 L 1489.014222 3.002057 " stroke="#111111" stroke-width="6" stroke-opacity="1" stroke-miterlimit="4"/></g><g clip-path="url(#a69e2d9d81)"><path stroke-linecap="butt" transform="matrix(0.529546, 0.529546, -0.529546, 0.529546, 236.876572, -11.937891)" fill="none" stroke-linejoin="miter" d="M 0.00257277 3.000444 L 1361.289196 3.000444 " stroke="#111111" stroke-width="6" stroke-opacity="1" stroke-miterlimit="4"/></g><g clip-path="url(#4d0a5bd6cc)"><path stroke-linecap="butt" transform="matrix(0.529546, 0.529546, -0.529546, 0.529546, 146.482943, -88.91708)" fill="none" stroke-linejoin="miter" d="M 0.000512229 3.000088 L 1549.279991 3.000088 " stroke="#111111" stroke-width="6" stroke-opacity="1" stroke-miterlimit="4"/></g><g clip-path="url(#bc242547c7)"><path stroke-linecap="butt" transform="matrix(0.529546, 0.529546, -0.529546, 0.529546, 201.416784, -20.175686)" fill="none" stroke-linejoin="miter" d="M 0.0010288 3.001071 L 1361.287652 3.001071 " stroke="#111111" stroke-width="6" stroke-opacity="1" stroke-miterlimit="4"/></g><g clip-path="url(#6ec3695387)"><path stroke-linecap="butt" transform="matrix(0.529546, 0.529546, -0.529546, 0.529546, 142.936231, -65.236762)" fill="none" stroke-linejoin="miter" d="M -0.000237051 2.999647 L 1489.012355 2.999647 " stroke="#111111" stroke-width="6" stroke-opacity="1" stroke-miterlimit="4"/></g><g clip-path="url(#2aa0925867)"><path stroke-linecap="butt" transform="matrix(0.529546, 0.529546, -0.529546, 0.529546, 186.177052, -8.193438)" fill="none" stroke-linejoin="miter" d="M 0.000718976 2.998021 L 1361.287342 2.998021 " stroke="#111111" stroke-width="6" stroke-opacity="1" stroke-miterlimit="4"/></g><g clip-path="url(#f48ab787e9)"><path stroke-linecap="butt" transform="matrix(0.529546, 0.529546, -0.529546, 0.529546, 95.783444, -85.172627)" fill="none" stroke-linejoin="miter" d="M -0.00136193 2.997685 L 1549.281806 3.001373 " stroke="#111111" stroke-width="6" stroke-opacity="1" stroke-miterlimit="4"/></g><g clip-path="url(#1c0f850455)"><path stroke-linecap="butt" transform="matrix(0.529546, 0.529546, -0.529546, 0.529546, 264.098538, -11.937891)" fill="none" stroke-linejoin="miter" d="M 0.0032244 2.999793 L 1361.289848 2.999793 " stroke="#111111" stroke-width="6" stroke-opacity="1" stroke-miterlimit="4"/></g><g clip-path="url(#3a100f7554)"><path stroke-linecap="butt" transform="matrix(0.529546, 0.529546, -0.529546, 0.529546, 205.617986, -56.998961)" fill="none" stroke-linejoin="miter" d="M 0.00195403 2.998364 L 1489.014546 2.998364 " stroke="#111111" stroke-width="6" stroke-opacity="1" stroke-miterlimit="4"/></g><g clip-path="url(#a5a95e1c4d)"><path stroke-linecap="butt" transform="matrix(0.529546, 0.529546, -0.529546, 0.529546, 248.85882, 0.0443577)" fill="none" stroke-linejoin="miter" d="M -0.000787533 3.000444 L 1361.285836 3.000444 " stroke="#111111" stroke-width="6" stroke-opacity="1" stroke-miterlimit="4"/></g><g clip-path="url(#e211951d8b)"><path stroke-linecap="butt" transform="matrix(0.529546, 0.529546, -0.529546, 0.529546, 158.465191, -76.934831)" fill="none" stroke-linejoin="miter" d="M -0.00284784 3.000088 L 1549.284008 3.000088 " stroke="#111111" stroke-width="6" stroke-opacity="1" stroke-miterlimit="4"/></g><g clip-path="url(#35d24abdd2)"><path stroke-linecap="butt" transform="matrix(0.529546, 0.529546, -0.529546, 0.529546, 143.228371, -23.080401)" fill="none" stroke-linejoin="miter" d="M 0.000442193 2.99876 L 1361.287066 2.99876 " stroke="#111111" stroke-width="6" stroke-opacity="1" stroke-miterlimit="4"/></g><g clip-path="url(#4bac101fea)"><path stroke-linecap="butt" transform="matrix(0.529546, 0.529546, -0.529546, 0.529546, 84.747818, -68.141477)" fill="none" stroke-linejoin="miter" d="M -0.000823881 2.997335 L 1489.015456 3.001023 " stroke="#111111" stroke-width="6" stroke-opacity="1" stroke-miterlimit="4"/></g><g clip-path="url(#64b61d3bb3)"><path stroke-linecap="butt" transform="matrix(0.529546, 0.529546, -0.529546, 0.529546, 127.988641, -11.098154)" fill="none" stroke-linejoin="miter" d="M 0.000131014 3.003089 L 1361.290443 2.999401 " stroke="#111111" stroke-width="6" stroke-opacity="1" stroke-miterlimit="4"/></g><g clip-path="url(#bf91e50157)"><path stroke-linecap="butt" transform="matrix(0.529546, 0.529546, -0.529546, 0.529546, 37.595025, -88.07732)" fill="none" stroke-linejoin="miter" d="M 0.00172461 2.999036 L 1549.281204 2.999036 " stroke="#111111" stroke-width="6" stroke-opacity="1" stroke-miterlimit="4"/></g><g clip-path="url(#c78551e276)"><path stroke-linecap="butt" transform="matrix(0.529546, 0.529546, -0.529546, 0.529546, 92.528872, -19.335949)" fill="none" stroke-linejoin="miter" d="M 0.00225634 3.000045 L 1361.28888 3.000045 " stroke="#111111" stroke-width="6" stroke-opacity="1" stroke-miterlimit="4"/></g><g clip-path="url(#16866fd11d)"><path stroke-linecap="butt" transform="matrix(0.529546, 0.529546, -0.529546, 0.529546, 34.048312, -64.397024)" fill="none" stroke-linejoin="miter" d="M 0.00099683 2.998614 L 1489.013588 2.998614 " stroke="#111111" stroke-width="6" stroke-opacity="1" stroke-miterlimit="4"/></g><g clip-path="url(#164ae159aa)"><path stroke-linecap="butt" transform="matrix(0.529546, 0.529546, -0.529546, 0.529546, 77.289139, -7.353702)" fill="none" stroke-linejoin="miter" d="M -0.00174088 3.000684 L 1361.288571 2.996995 " stroke="#111111" stroke-width="6" stroke-opacity="1" stroke-miterlimit="4"/></g><g clip-path="url(#e582247a53)"><path stroke-linecap="butt" transform="matrix(0.529546, 0.529546, -0.529546, 0.529546, -13.104482, -84.332868)" fill="none" stroke-linejoin="miter" d="M -0.000141397 2.996624 L 1549.283026 3.000313 " stroke="#111111" stroke-width="6" stroke-opacity="1" stroke-miterlimit="4"/></g><g clip-path="url(#fc3487f35e)"><path stroke-linecap="butt" transform="matrix(0.529546, 0.529546, -0.529546, 0.529546, 155.210619, -11.098154)" fill="none" stroke-linejoin="miter" d="M 0.000771338 3.002449 L 1361.287395 3.002449 " stroke="#111111" stroke-width="6" stroke-opacity="1" stroke-miterlimit="4"/></g><g clip-path="url(#f3f7f8bc58)"><path stroke-linecap="butt" transform="matrix(0.529546, 0.529546, -0.529546, 0.529546, 96.730066, -56.159229)" fill="none" stroke-linejoin="miter" d="M -0.000495641 3.001023 L 1489.015784 2.997335 " stroke="#111111" stroke-width="6" stroke-opacity="1" stroke-miterlimit="4"/></g><g clip-path="url(#80e1324fec)"><path stroke-linecap="butt" transform="matrix(0.529546, 0.529546, -0.529546, 0.529546, 139.970889, 0.884094)" fill="none" stroke-linejoin="miter" d="M 0.000458892 2.9994 L 1361.287082 2.9994 " stroke="#111111" stroke-width="6" stroke-opacity="1" stroke-miterlimit="4"/></g><g clip-path="url(#c9c6f21138)"><path stroke-linecap="butt" transform="matrix(0.529546, 0.529546, -0.529546, 0.529546, 49.577277, -76.095072)" fill="none" stroke-linejoin="miter" d="M -0.00163862 2.999039 L 1549.285217 2.999039 " stroke="#111111" stroke-width="6" stroke-opacity="1" stroke-miterlimit="4"/></g><g clip-path="url(#055c4e52fc)"><path stroke-linecap="butt" transform="matrix(0.529546, 0.529546, -0.529546, 0.529546, 38.084912, -19.993971)" fill="none" stroke-linejoin="miter" d="M -0.00103661 2.999307 L 1361.285587 2.999307 " stroke="#111111" stroke-width="6" stroke-opacity="1" stroke-miterlimit="4"/></g><g clip-path="url(#a3d73142e1)"><path stroke-linecap="butt" transform="matrix(0.529546, 0.529546, -0.529546, 0.529546, -20.395647, -65.055046)" fill="none" stroke-linejoin="miter" d="M 0.00139219 3.001564 L 1489.013984 3.001564 " stroke="#111111" stroke-width="6" stroke-opacity="1" stroke-miterlimit="4"/></g><g clip-path="url(#1b2f74975b)"><path stroke-linecap="butt" transform="matrix(0.529546, 0.529546, -0.529546, 0.529546, 22.845181, -8.011724)" fill="none" stroke-linejoin="miter" d="M 0.00234188 2.999947 L 1361.288965 2.999947 " stroke="#111111" stroke-width="6" stroke-opacity="1" stroke-miterlimit="4"/></g><g clip-path="url(#d628d32f83)"><path stroke-linecap="butt" transform="matrix(0.529546, 0.529546, -0.529546, 0.529546, -67.548441, -84.990911)" fill="none" stroke-linejoin="miter" d="M 0.000273646 2.999596 L 1549.279753 2.999596 " stroke="#111111" stroke-width="6" stroke-opacity="1" stroke-miterlimit="4"/></g><g clip-path="url(#59dd9f045e)"><path stroke-linecap="butt" transform="matrix(0.529546, 0.529546, -0.529546, 0.529546, -12.614596, -16.249518)" fill="none" stroke-linejoin="miter" d="M 0.000785915 3.000584 L 1361.287409 3.000584 " stroke="#111111" stroke-width="6" stroke-opacity="1" stroke-miterlimit="4"/></g><g clip-path="url(#bdda437b34)"><path stroke-linecap="butt" transform="matrix(0.529546, 0.529546, -0.529546, 0.529546, -71.09517, -61.310594)" fill="none" stroke-linejoin="miter" d="M -0.000459794 2.999139 L 1489.01582 3.002827 " stroke="#111111" stroke-width="6" stroke-opacity="1" stroke-miterlimit="4"/></g><g clip-path="url(#f2e73b5409)"><path stroke-linecap="butt" transform="matrix(0.529546, 0.529546, -0.529546, 0.529546, -27.85433, -4.267271)" fill="none" stroke-linejoin="miter" d="M 0.000478357 2.997532 L 1361.287102 2.997532 " stroke="#111111" stroke-width="6" stroke-opacity="1" stroke-miterlimit="4"/></g><g clip-path="url(#f47f413724)"><path stroke-linecap="butt" transform="matrix(0.529546, 0.529546, -0.529546, 0.529546, -118.886867, -81.246459)" fill="none" stroke-linejoin="miter" d="M 0.000484549 3.002485 L 1549.283652 2.998796 " stroke="#111111" stroke-width="6" stroke-opacity="1" stroke-miterlimit="4"/></g><g clip-path="url(#425a34a24a)"><path stroke-linecap="butt" transform="matrix(0.529546, 0.529546, -0.529546, 0.529546, 50.067161, -8.011724)" fill="none" stroke-linejoin="miter" d="M 0.00297994 2.999309 L 1361.289603 2.999309 " stroke="#111111" stroke-width="6" stroke-opacity="1" stroke-miterlimit="4"/></g><g clip-path="url(#964fc19c6b)"><path stroke-linecap="butt" transform="matrix(0.529546, 0.529546, -0.529546, 0.529546, -8.4134, -53.072798)" fill="none" stroke-linejoin="miter" d="M -0.00196697 3.001563 L 1489.014313 2.997875 " stroke="#111111" stroke-width="6" stroke-opacity="1" stroke-miterlimit="4"/></g><g clip-path="url(#c5b1d629ce)"><path stroke-linecap="butt" transform="matrix(0.529546, 0.529546, -0.529546, 0.529546, 34.827425, 3.970525)" fill="none" stroke-linejoin="miter" d="M -0.00101529 2.999943 L 1361.285608 2.999943 " stroke="#111111" stroke-width="6" stroke-opacity="1" stroke-miterlimit="4"/></g><g clip-path="url(#8ef1466285)"><path stroke-linecap="butt" transform="matrix(0.529546, 0.529546, -0.529546, 0.529546, -55.566193, -73.008663)" fill="none" stroke-linejoin="miter" d="M -0.00308642 2.999596 L 1549.283769 2.999596 " stroke="#111111" stroke-width="6" stroke-opacity="1" stroke-miterlimit="4"/></g><g clip-path="url(#9a6e6688a4)"><path stroke-linecap="butt" transform="matrix(0.529546, 0.529546, -0.529546, 0.529546, 782.202039, -37.581883)" fill="none" stroke-linejoin="miter" d="M 0.000885777 3.001114 L 1361.287509 3.001114 " stroke="#111111" stroke-width="6" stroke-opacity="1" stroke-miterlimit="4"/></g><g clip-path="url(#b56316a17d)"><path stroke-linecap="butt" transform="matrix(0.529546, 0.529546, -0.529546, 0.529546, 723.721431, -82.642959)" fill="none" stroke-linejoin="miter" d="M -0.000328028 2.999638 L 1489.012264 2.999638 " stroke="#111111" stroke-width="6" stroke-opacity="1" stroke-miterlimit="4"/></g><g clip-path="url(#a4319fcc1e)"><path stroke-linecap="butt" transform="matrix(0.529546, 0.529546, -0.529546, 0.529546, 766.962297, -25.599635)" fill="none" stroke-linejoin="miter" d="M 0.000585006 2.998055 L 1361.287208 2.998055 " stroke="#111111" stroke-width="6" stroke-opacity="1" stroke-miterlimit="4"/></g><g clip-path="url(#1befab3eb6)"><path stroke-linecap="butt" transform="matrix(0.529546, 0.529546, -0.529546, 0.529546, 676.568697, -102.578795)" fill="none" stroke-linejoin="miter" d="M 0.00215847 3.001387 L 1549.281638 3.001387 " stroke="#111111" stroke-width="6" stroke-opacity="1" stroke-miterlimit="4"/></g><g clip-path="url(#15bd2eda7c)"><path stroke-linecap="butt" transform="matrix(0.529546, 0.529546, -0.529546, 0.529546, 731.502511, -33.837431)" fill="none" stroke-linejoin="miter" d="M -0.000961226 2.998684 L 1361.285662 2.998684 " stroke="#111111" stroke-width="6" stroke-opacity="1" stroke-miterlimit="4"/></g><g clip-path="url(#b87965a27c)"><path stroke-linecap="butt" transform="matrix(0.529546, 0.529546, -0.529546, 0.529546, 673.021952, -78.898506)" fill="none" stroke-linejoin="miter" d="M 0.00146802 3.000941 L 1489.01406 3.000941 " stroke="#111111" stroke-width="6" stroke-opacity="1" stroke-miterlimit="4"/></g><g clip-path="url(#0f6531b13e)"><path stroke-linecap="butt" transform="matrix(0.529546, 0.529546, -0.529546, 0.529546, 716.262769, -21.855183)" fill="none" stroke-linejoin="miter" d="M 0.00242631 2.999313 L 1361.28905 2.999313 " stroke="#111111" stroke-width="6" stroke-opacity="1" stroke-miterlimit="4"/></g><g clip-path="url(#8f9c8517d8)"><path stroke-linecap="butt" transform="matrix(0.529546, 0.529546, -0.529546, 0.529546, 625.869169, -98.834343)" fill="none" stroke-linejoin="miter" d="M 0.000311464 2.998957 L 1549.283479 3.002645 " stroke="#111111" stroke-width="6" stroke-opacity="1" stroke-miterlimit="4"/></g><g clip-path="url(#8582a3352b)"><path stroke-linecap="butt" transform="matrix(0.529546, 0.529546, -0.529546, 0.529546, 794.184287, -25.599635)" fill="none" stroke-linejoin="miter" d="M -0.00247429 3.001114 L 1361.287837 2.997426 " stroke="#111111" stroke-width="6" stroke-opacity="1" stroke-miterlimit="4"/></g><g clip-path="url(#0120582a28)"><path stroke-linecap="butt" transform="matrix(0.529546, 0.529546, -0.529546, 0.529546, 735.703679, -70.660711)" fill="none" stroke-linejoin="miter" d="M 0.000000211979 3.003326 L 1489.01628 2.999638 " stroke="#111111" stroke-width="6" stroke-opacity="1" stroke-miterlimit="4"/></g><g clip-path="url(#da6296b44e)"><path stroke-linecap="butt" transform="matrix(0.529546, 0.529546, -0.529546, 0.529546, 778.944545, -13.617387)" fill="none" stroke-linejoin="miter" d="M 0.000912567 3.001743 L 1361.287536 3.001743 " stroke="#111111" stroke-width="6" stroke-opacity="1" stroke-miterlimit="4"/></g><g clip-path="url(#339e619ffe)"><path stroke-linecap="butt" transform="matrix(0.529546, 0.529546, -0.529546, 0.529546, 688.550945, -90.596547)" fill="none" stroke-linejoin="miter" d="M -0.0012016 3.001387 L 1549.281966 2.997699 " stroke="#111111" stroke-width="6" stroke-opacity="1" stroke-miterlimit="4"/></g><g clip-path="url(#39dd1db116)"><path stroke-linecap="butt" transform="matrix(0.529546, 0.529546, -0.529546, 0.529546, 677.058531, -34.495475)" fill="none" stroke-linejoin="miter" d="M -0.000525592 3.001636 L 1361.286098 3.001636 " stroke="#111111" stroke-width="6" stroke-opacity="1" stroke-miterlimit="4"/></g><g clip-path="url(#d751eeb2c7)"><path stroke-linecap="butt" transform="matrix(0.529546, 0.529546, -0.529546, 0.529546, 618.577947, -79.556519)" fill="none" stroke-linejoin="miter" d="M -0.00179167 3.000152 L 1489.018176 3.000152 " stroke="#111111" stroke-width="6" stroke-opacity="1" stroke-miterlimit="4"/></g><g clip-path="url(#e7a326efa9)"><path stroke-linecap="butt" transform="matrix(0.529546, 0.529546, -0.529546, 0.529546, 661.818837, -22.513227)" fill="none" stroke-linejoin="miter" d="M -0.000871617 2.998622 L 1361.285752 2.998622 " stroke="#111111" stroke-width="6" stroke-opacity="1" stroke-miterlimit="4"/></g><g clip-path="url(#6da09ec4b4)"><path stroke-linecap="butt" transform="matrix(0.529546, 0.529546, -0.529546, 0.529546, 571.425237, -99.492386)" fill="none" stroke-linejoin="miter" d="M 0.000701617 3.001953 L 1549.283869 2.998265 " stroke="#111111" stroke-width="6" stroke-opacity="1" stroke-miterlimit="4"/></g><g clip-path="url(#40a9d6ffdf)"><path stroke-linecap="butt" transform="matrix(0.529546, 0.529546, -0.529546, 0.529546, 626.359052, -30.751022)" fill="none" stroke-linejoin="miter" d="M -0.00241785 2.999251 L 1361.287894 3.002939 " stroke="#111111" stroke-width="6" stroke-opacity="1" stroke-miterlimit="4"/></g><g clip-path="url(#9e0efc510f)"><path stroke-linecap="butt" transform="matrix(0.529546, 0.529546, -0.529546, 0.529546, 567.878492, -75.812066)" fill="none" stroke-linejoin="miter" d="M -0.0000182471 3.001478 L 1489.016262 2.99779 " stroke="#111111" stroke-width="6" stroke-opacity="1" stroke-miterlimit="4"/></g><g clip-path="url(#85dc2c86ac)"><path stroke-linecap="butt" transform="matrix(0.529546, 0.529546, -0.529546, 0.529546, 611.11931, -18.768774)" fill="none" stroke-linejoin="miter" d="M 0.000969684 2.99988 L 1361.287593 2.99988 " stroke="#111111" stroke-width="6" stroke-opacity="1" stroke-miterlimit="4"/></g><g clip-path="url(#431cb8ebb3)"><path stroke-linecap="butt" transform="matrix(0.529546, 0.529546, -0.529546, 0.529546, 520.725709, -95.747934)" fill="none" stroke-linejoin="miter" d="M -0.00114539 2.999523 L 1549.28571 2.999523 " stroke="#111111" stroke-width="6" stroke-opacity="1" stroke-miterlimit="4"/></g><g clip-path="url(#4c02d34aea)"><path stroke-linecap="butt" transform="matrix(0.529546, 0.529546, -0.529546, 0.529546, 689.040779, -22.513227)" fill="none" stroke-linejoin="miter" d="M -0.000197352 2.997948 L 1361.286426 2.997948 " stroke="#111111" stroke-width="6" stroke-opacity="1" stroke-miterlimit="4"/></g><g clip-path="url(#6be2cb8d16)"><path stroke-linecap="butt" transform="matrix(0.529546, 0.529546, -0.529546, 0.529546, 630.560195, -67.574271)" fill="none" stroke-linejoin="miter" d="M 0.00222488 3.000152 L 1489.014816 3.000152 " stroke="#111111" stroke-width="6" stroke-opacity="1" stroke-miterlimit="4"/></g><g clip-path="url(#f0b2276088)"><path stroke-linecap="butt" transform="matrix(0.529546, 0.529546, -0.529546, 0.529546, 673.801085, -10.530978)" fill="none" stroke-linejoin="miter" d="M -0.000543377 3.00231 L 1361.289768 2.998622 " stroke="#111111" stroke-width="6" stroke-opacity="1" stroke-miterlimit="4"/></g><g clip-path="url(#7f4f786e0c)"><path stroke-linecap="butt" transform="matrix(0.529546, 0.529546, -0.529546, 0.529546, 583.407485, -87.510138)" fill="none" stroke-linejoin="miter" d="M 0.00102986 2.998265 L 1549.284197 3.001953 " stroke="#111111" stroke-width="6" stroke-opacity="1" stroke-miterlimit="4"/></g><g clip-path="url(#4e9b3a412a)"><path stroke-linecap="butt" transform="matrix(0.529546, 0.529546, -0.529546, 0.529546, 568.170619, -33.655715)" fill="none" stroke-linejoin="miter" d="M 0.000681135 3.000589 L 1361.287305 3.000589 " stroke="#111111" stroke-width="6" stroke-opacity="1" stroke-miterlimit="4"/></g><g clip-path="url(#250a5700b6)"><path stroke-linecap="butt" transform="matrix(0.529546, 0.529546, -0.529546, 0.529546, 509.690035, -78.716791)" fill="none" stroke-linejoin="miter" d="M -0.000555297 2.999135 L 1489.015725 3.002823 " stroke="#111111" stroke-width="6" stroke-opacity="1" stroke-miterlimit="4"/></g><g clip-path="url(#6086d8eeb3)"><path stroke-linecap="butt" transform="matrix(0.529546, 0.529546, -0.529546, 0.529546, 552.930925, -21.673467)" fill="none" stroke-linejoin="miter" d="M 0.00033511 2.997574 L 1361.286959 2.997574 " stroke="#111111" stroke-width="6" stroke-opacity="1" stroke-miterlimit="4"/></g><g clip-path="url(#4735961d30)"><path stroke-linecap="butt" transform="matrix(0.529546, 0.529546, -0.529546, 0.529546, 462.537301, -98.652649)" fill="none" stroke-linejoin="miter" d="M 0.00195156 3.000904 L 1549.281431 3.000904 " stroke="#111111" stroke-width="6" stroke-opacity="1" stroke-miterlimit="4"/></g><g clip-path="url(#146281d7d4)"><path stroke-linecap="butt" transform="matrix(0.529546, 0.529546, -0.529546, 0.529546, 517.471139, -29.911263)" fill="none" stroke-linejoin="miter" d="M -0.00121112 2.998203 L 1361.289101 3.001892 " stroke="#111111" stroke-width="6" stroke-opacity="1" stroke-miterlimit="4"/></g><g clip-path="url(#7ce41f7e5f)"><path stroke-linecap="butt" transform="matrix(0.529546, 0.529546, -0.529546, 0.529546, 458.990555, -74.972338)" fill="none" stroke-linejoin="miter" d="M 0.00124075 3.000438 L 1489.013832 3.000438 " stroke="#111111" stroke-width="6" stroke-opacity="1" stroke-miterlimit="4"/></g><g clip-path="url(#39076e8794)"><path stroke-linecap="butt" transform="matrix(0.529546, 0.529546, -0.529546, 0.529546, 502.231445, -17.929015)" fill="none" stroke-linejoin="miter" d="M 0.00213116 2.998878 L 1361.288755 2.998878 " stroke="#111111" stroke-width="6" stroke-opacity="1" stroke-miterlimit="4"/></g><g clip-path="url(#3b17168ccb)"><path stroke-linecap="butt" transform="matrix(0.529546, 0.529546, -0.529546, 0.529546, 411.837821, -94.908204)" fill="none" stroke-linejoin="miter" d="M 0.0000660928 2.998526 L 1549.283234 3.002214 " stroke="#111111" stroke-width="6" stroke-opacity="1" stroke-miterlimit="4"/></g><g clip-path="url(#58d4745479)"><path stroke-linecap="butt" transform="matrix(0.529546, 0.529546, -0.529546, 0.529546, 580.152867, -21.673467)" fill="none" stroke-linejoin="miter" d="M -0.00267893 3.000589 L 1361.287633 2.9969 " stroke="#111111" stroke-width="6" stroke-opacity="1" stroke-miterlimit="4"/></g><g clip-path="url(#2f55c992fd)"><path stroke-linecap="butt" transform="matrix(0.529546, 0.529546, -0.529546, 0.529546, 521.672283, -66.734543)" fill="none" stroke-linejoin="miter" d="M -0.000227057 3.002823 L 1489.016053 2.999135 " stroke="#111111" stroke-width="6" stroke-opacity="1" stroke-miterlimit="4"/></g><g clip-path="url(#21768ac3aa)"><path stroke-linecap="butt" transform="matrix(0.529546, 0.529546, -0.529546, 0.529546, 564.913173, -9.691219)" fill="none" stroke-linejoin="miter" d="M 0.00066335 3.001263 L 1361.287287 3.001263 " stroke="#111111" stroke-width="6" stroke-opacity="1" stroke-miterlimit="4"/></g><g clip-path="url(#09219c1887)"><path stroke-linecap="butt" transform="matrix(0.529546, 0.529546, -0.529546, 0.529546, 474.519549, -86.670408)" fill="none" stroke-linejoin="miter" d="M -0.00140171 3.000911 L 1549.285454 3.000911 " stroke="#111111" stroke-width="6" stroke-opacity="1" stroke-miterlimit="4"/></g><g clip-path="url(#239cb21b77)"><path stroke-linecap="butt" transform="matrix(0.529546, 0.529546, -0.529546, 0.529546, 463.027135, -30.569306)" fill="none" stroke-linejoin="miter" d="M -0.000752861 3.001133 L 1361.285871 3.001133 " stroke="#111111" stroke-width="6" stroke-opacity="1" stroke-miterlimit="4"/></g><g clip-path="url(#cf508752fe)"><path stroke-linecap="butt" transform="matrix(0.529546, 0.529546, -0.529546, 0.529546, 404.546599, -75.630382)" fill="none" stroke-linejoin="miter" d="M -0.00203477 2.999724 L 1489.017933 2.999724 " stroke="#111111" stroke-width="6" stroke-opacity="1" stroke-miterlimit="4"/></g><g clip-path="url(#5f79f9a8a1)"><path stroke-linecap="butt" transform="matrix(0.529546, 0.529546, -0.529546, 0.529546, 447.787417, -18.587058)" fill="none" stroke-linejoin="miter" d="M -0.00107626 2.998096 L 1361.289235 3.001784 " stroke="#111111" stroke-width="6" stroke-opacity="1" stroke-miterlimit="4"/></g><g clip-path="url(#32ade1bc25)"><path stroke-linecap="butt" transform="matrix(0.529546, 0.529546, -0.529546, 0.529546, 357.393824, -95.566226)" fill="none" stroke-linejoin="miter" d="M 0.000496975 3.001441 L 1549.283664 2.997753 " stroke="#111111" stroke-width="6" stroke-opacity="1" stroke-miterlimit="4"/></g><g clip-path="url(#f5b34a3528)"><path stroke-linecap="butt" transform="matrix(0.529546, 0.529546, -0.529546, 0.529546, 412.327655, -26.824854)" fill="none" stroke-linejoin="miter" d="M 0.00104319 3.002436 L 1361.287667 3.002436 " stroke="#111111" stroke-width="6" stroke-opacity="1" stroke-miterlimit="4"/></g><g clip-path="url(#c97dc9266e)"><path stroke-linecap="butt" transform="matrix(0.529546, 0.529546, -0.529546, 0.529546, 353.847098, -71.885929)" fill="none" stroke-linejoin="miter" d="M -0.000218363 3.001007 L 1489.016061 2.997318 " stroke="#111111" stroke-width="6" stroke-opacity="1" stroke-miterlimit="4"/></g><g clip-path="url(#851288ddaa)"><path stroke-linecap="butt" transform="matrix(0.529546, 0.529546, -0.529546, 0.529546, 397.087947, -14.842607)" fill="none" stroke-linejoin="miter" d="M 0.000711642 2.999409 L 1361.287335 2.999409 " stroke="#111111" stroke-width="6" stroke-opacity="1" stroke-miterlimit="4"/></g><g clip-path="url(#2dd306da37)"><path stroke-linecap="butt" transform="matrix(0.529546, 0.529546, -0.529546, 0.529546, 306.694318, -91.821773)" fill="none" stroke-linejoin="miter" d="M -0.00137039 2.999031 L 1549.285485 2.999031 " stroke="#111111" stroke-width="6" stroke-opacity="1" stroke-miterlimit="4"/></g><g clip-path="url(#1f1a1e1c4f)"><path stroke-linecap="butt" transform="matrix(0.529546, 0.529546, -0.529546, 0.529546, 475.009383, -18.587058)" fill="none" stroke-linejoin="miter" d="M -0.000424621 2.997444 L 1361.289887 3.001133 " stroke="#111111" stroke-width="6" stroke-opacity="1" stroke-miterlimit="4"/></g><g clip-path="url(#025d704f1c)"><path stroke-linecap="butt" transform="matrix(0.529546, 0.529546, -0.529546, 0.529546, 416.528847, -63.648134)" fill="none" stroke-linejoin="miter" d="M 0.00198177 2.999724 L 1489.014573 2.999724 " stroke="#111111" stroke-width="6" stroke-opacity="1" stroke-miterlimit="4"/></g><g clip-path="url(#239b0b218d)"><path stroke-linecap="butt" transform="matrix(0.529546, 0.529546, -0.529546, 0.529546, 459.769665, -6.604811)" fill="none" stroke-linejoin="miter" d="M -0.000747114 3.001785 L 1361.289565 2.998097 " stroke="#111111" stroke-width="6" stroke-opacity="1" stroke-miterlimit="4"/></g><g clip-path="url(#f9f0ccad56)"><path stroke-linecap="butt" transform="matrix(0.529546, 0.529546, -0.529546, 0.529546, 369.376072, -83.583977)" fill="none" stroke-linejoin="miter" d="M 0.000825215 2.997753 L 1549.283993 3.001441 " stroke="#111111" stroke-width="6" stroke-opacity="1" stroke-miterlimit="4"/></g><g clip-path="url(#2c132f8a96)"><path stroke-linecap="butt" transform="matrix(0.529546, 0.529546, -0.529546, 0.529546, -23.938812, 29.002341)" fill="none" stroke-linejoin="miter" d="M -0.000971611 2.998831 L 1361.285652 2.998831 " stroke="#111111" stroke-width="6" stroke-opacity="1" stroke-miterlimit="4"/></g><g clip-path="url(#4049443471)"><path stroke-linecap="butt" transform="matrix(0.529546, 0.529546, -0.529546, 0.529546, -82.419374, -16.05871)" fill="none" stroke-linejoin="miter" d="M 0.00143682 3.001062 L 1489.014028 3.001062 " stroke="#111111" stroke-width="6" stroke-opacity="1" stroke-miterlimit="4"/></g><g clip-path="url(#66918287ea)"><path stroke-linecap="butt" transform="matrix(0.529546, 0.529546, -0.529546, 0.529546, -39.178545, 40.984588)" fill="none" stroke-linejoin="miter" d="M 0.00240891 2.999469 L 1361.289032 2.999469 " stroke="#111111" stroke-width="6" stroke-opacity="1" stroke-miterlimit="4"/></g><g clip-path="url(#13083df2c9)"><path stroke-linecap="butt" transform="matrix(0.529546, 0.529546, -0.529546, 0.529546, -129.572151, -35.994572)" fill="none" stroke-linejoin="miter" d="M 0.000299495 2.999106 L 1549.283467 3.002795 " stroke="#111111" stroke-width="6" stroke-opacity="1" stroke-miterlimit="4"/></g><g clip-path="url(#358be60e56)"><path stroke-linecap="butt" transform="matrix(0.529546, 0.529546, -0.529546, 0.529546, -74.63832, 32.746793)" fill="none" stroke-linejoin="miter" d="M 0.000851814 3.000107 L 1361.287475 3.000107 " stroke="#111111" stroke-width="6" stroke-opacity="1" stroke-miterlimit="4"/></g><g clip-path="url(#14614f2596)"><path stroke-linecap="butt" transform="matrix(0.529546, 0.529546, -0.529546, 0.529546, -133.11888, -12.314258)" fill="none" stroke-linejoin="miter" d="M -0.000430551 2.998653 L 1489.015849 3.002341 " stroke="#111111" stroke-width="6" stroke-opacity="1" stroke-miterlimit="4"/></g><g clip-path="url(#a6a1ef0f59)"><path stroke-linecap="butt" transform="matrix(0.529546, 0.529546, -0.529546, 0.529546, -89.878038, 44.72904)" fill="none" stroke-linejoin="miter" d="M 0.000529322 2.997071 L 1361.290841 3.000759 " stroke="#111111" stroke-width="6" stroke-opacity="1" stroke-miterlimit="4"/></g><g clip-path="url(#48853b190a)"><path stroke-linecap="butt" transform="matrix(0.529546, 0.529546, -0.529546, 0.529546, -180.27166, -32.250119)" fill="none" stroke-linejoin="miter" d="M 0.00212269 3.000382 L 1549.281602 3.000382 " stroke="#111111" stroke-width="6" stroke-opacity="1" stroke-miterlimit="4"/></g><g clip-path="url(#b080d45071)"><path stroke-linecap="butt" transform="matrix(0.529546, 0.529546, -0.529546, 0.529546, -11.956563, 40.984588)" fill="none" stroke-linejoin="miter" d="M -0.000643145 3.002521 L 1361.289669 2.998833 " stroke="#111111" stroke-width="6" stroke-opacity="1" stroke-miterlimit="4"/></g><g clip-path="url(#6948af2d93)"><path stroke-linecap="butt" transform="matrix(0.529546, 0.529546, -0.529546, 0.529546, -70.437126, -4.076461)" fill="none" stroke-linejoin="miter" d="M -0.00192415 3.001062 L 1489.014356 2.997373 " stroke="#111111" stroke-width="6" stroke-opacity="1" stroke-miterlimit="4"/></g><g clip-path="url(#41010f2cdb)"><path stroke-linecap="butt" transform="matrix(0.529546, 0.529546, -0.529546, 0.529546, -27.196295, 52.966836)" fill="none" stroke-linejoin="miter" d="M -0.000952966 2.999471 L 1361.28567 2.999471 " stroke="#111111" stroke-width="6" stroke-opacity="1" stroke-miterlimit="4"/></g><g clip-path="url(#a8dff5383b)"><path stroke-linecap="butt" transform="matrix(0.529546, 0.529546, -0.529546, 0.529546, -117.589911, -24.012302)" fill="none" stroke-linejoin="miter" d="M 0.000613932 3.002767 L 1549.283781 2.999079 " stroke="#111111" stroke-width="6" stroke-opacity="1" stroke-miterlimit="4"/></g><g clip-path="url(#881c60d501)"><path stroke-linecap="butt" transform="matrix(0.529546, 0.529546, -0.529546, 0.529546, -129.082272, 32.088771)" fill="none" stroke-linejoin="miter" d="M -0.00244883 2.999377 L 1361.287863 3.003065 " stroke="#111111" stroke-width="6" stroke-opacity="1" stroke-miterlimit="4"/></g><g clip-path="url(#0b83efac32)"><path stroke-linecap="butt" transform="matrix(0.529546, 0.529546, -0.529546, 0.529546, -187.562839, -12.972302)" fill="none" stroke-linejoin="miter" d="M -0.000014603 3.001625 L 1489.016265 2.997937 " stroke="#111111" stroke-width="6" stroke-opacity="1" stroke-miterlimit="4"/></g><g clip-path="url(#6fe046d721)"><path stroke-linecap="butt" transform="matrix(0.529546, 0.529546, -0.529546, 0.529546, -144.32199, 44.071018)" fill="none" stroke-linejoin="miter" d="M 0.000917212 3.000029 L 1361.287541 3.000029 " stroke="#111111" stroke-width="6" stroke-opacity="1" stroke-miterlimit="4"/></g><g clip-path="url(#c55dd9c5e1)"><path stroke-linecap="butt" transform="matrix(0.529546, 0.529546, -0.529546, 0.529546, -234.715647, -32.908141)" fill="none" stroke-linejoin="miter" d="M -0.001144 2.999618 L 1549.285712 2.999618 " stroke="#111111" stroke-width="6" stroke-opacity="1" stroke-miterlimit="4"/></g><g clip-path="url(#529bcae708)"><path stroke-linecap="butt" transform="matrix(0.529546, 0.529546, -0.529546, 0.529546, -179.78178, 35.833224)" fill="none" stroke-linejoin="miter" d="M -0.000625626 3.000653 L 1361.285998 3.000653 " stroke="#111111" stroke-width="6" stroke-opacity="1" stroke-miterlimit="4"/></g><g clip-path="url(#25e9f1d5d7)"><path stroke-linecap="butt" transform="matrix(0.529546, 0.529546, -0.529546, 0.529546, -238.262347, -9.227826)" fill="none" stroke-linejoin="miter" d="M -0.00190211 2.999191 L 1489.014378 3.002879 " stroke="#111111" stroke-width="6" stroke-opacity="1" stroke-miterlimit="4"/></g><g clip-path="url(#3c389da3f2)"><path stroke-linecap="butt" transform="matrix(0.529546, 0.529546, -0.529546, 0.529546, -195.021496, 47.815471)" fill="none" stroke-linejoin="miter" d="M -0.000950156 2.99762 L 1361.289362 3.001308 " stroke="#111111" stroke-width="6" stroke-opacity="1" stroke-miterlimit="4"/></g><g clip-path="url(#d75d213d8c)"><path stroke-linecap="butt" transform="matrix(0.529546, 0.529546, -0.529546, 0.529546, -285.415139, -29.163689)" fill="none" stroke-linejoin="miter" d="M 0.000663355 3.00091 L 1549.283831 2.997222 " stroke="#111111" stroke-width="6" stroke-opacity="1" stroke-miterlimit="4"/></g><g clip-path="url(#07572797ec)"><path stroke-linecap="butt" transform="matrix(0.529546, 0.529546, -0.529546, 0.529546, -117.100024, 44.071018)" fill="none" stroke-linejoin="miter" d="M 0.00156885 2.999378 L 1361.288192 2.999378 " stroke="#111111" stroke-width="6" stroke-opacity="1" stroke-miterlimit="4"/></g><g clip-path="url(#8b91436aeb)"><path stroke-linecap="butt" transform="matrix(0.529546, 0.529546, -0.529546, 0.529546, -175.580591, -0.990031)" fill="none" stroke-linejoin="miter" d="M 0.000291756 2.997915 L 1489.016572 3.001603 " stroke="#111111" stroke-width="6" stroke-opacity="1" stroke-miterlimit="4"/></g><g clip-path="url(#2e24304b7b)"><path stroke-linecap="butt" transform="matrix(0.529546, 0.529546, -0.529546, 0.529546, -132.339742, 56.053266)" fill="none" stroke-linejoin="miter" d="M -0.00244285 3.000029 L 1361.291557 3.000029 " stroke="#111111" stroke-width="6" stroke-opacity="1" stroke-miterlimit="4"/></g><g clip-path="url(#57c8960c49)"><path stroke-linecap="butt" transform="matrix(0.529546, 0.529546, -0.529546, 0.529546, -222.733399, -20.925917)" fill="none" stroke-linejoin="miter" d="M 0.00289517 2.999641 L 1549.282374 2.999641 " stroke="#111111" stroke-width="6" stroke-opacity="1" stroke-miterlimit="4"/></g><g clip-path="url(#244d6fd09e)"><path stroke-linecap="butt" transform="matrix(0.529546, 0.529546, -0.529546, 0.529546, -237.970177, 32.928531)" fill="none" stroke-linejoin="miter" d="M -0.00124889 2.998336 L 1361.289063 3.002024 " stroke="#111111" stroke-width="6" stroke-opacity="1" stroke-miterlimit="4"/></g><g clip-path="url(#0bdd4c3b7a)"><path stroke-linecap="butt" transform="matrix(0.529546, 0.529546, -0.529546, 0.529546, -296.450773, -12.132543)" fill="none" stroke-linejoin="miter" d="M 0.00121249 3.000558 L 1489.013804 3.000558 " stroke="#111111" stroke-width="6" stroke-opacity="1" stroke-miterlimit="4"/></g><g clip-path="url(#8b14ce26a0)"><path stroke-linecap="butt" transform="matrix(0.529546, 0.529546, -0.529546, 0.529546, -253.209952, 44.91078)" fill="none" stroke-linejoin="miter" d="M 0.00216942 2.998933 L 1361.288793 2.998933 " stroke="#111111" stroke-width="6" stroke-opacity="1" stroke-miterlimit="4"/></g><g clip-path="url(#71cafdd329)"><path stroke-linecap="butt" transform="matrix(0.529546, 0.529546, -0.529546, 0.529546, -343.603581, -32.068404)" fill="none" stroke-linejoin="miter" d="M 0.000103904 2.998571 L 1549.283271 3.00226 " stroke="#111111" stroke-width="6" stroke-opacity="1" stroke-miterlimit="4"/></g><g clip-path="url(#da1987349a)"><path stroke-linecap="butt" transform="matrix(0.529546, 0.529546, -0.529546, 0.529546, -288.669712, 36.672983)" fill="none" stroke-linejoin="miter" d="M 0.000599203 2.999587 L 1361.287223 2.999587 " stroke="#111111" stroke-width="6" stroke-opacity="1" stroke-miterlimit="4"/></g><g clip-path="url(#2d5735d358)"><path stroke-linecap="butt" transform="matrix(0.529546, 0.529546, -0.529546, 0.529546, -347.15025, -8.388112)" fill="none" stroke-linejoin="miter" d="M -0.000661214 2.998196 L 1489.015619 3.001884 " stroke="#111111" stroke-width="6" stroke-opacity="1" stroke-miterlimit="4"/></g><g clip-path="url(#3e4562e3bc)"><path stroke-linecap="butt" transform="matrix(0.529546, 0.529546, -0.529546, 0.529546, -303.90943, 48.655232)" fill="none" stroke-linejoin="miter" d="M -0.0034134 3.000238 L 1361.290587 3.000238 " stroke="#111111" stroke-width="6" stroke-opacity="1" stroke-miterlimit="4"/></g><g clip-path="url(#c4b299e144)"><path stroke-linecap="butt" transform="matrix(0.529546, 0.529546, -0.529546, 0.529546, -394.303058, -28.323953)" fill="none" stroke-linejoin="miter" d="M 0.0018995 2.999879 L 1549.281379 2.999879 " stroke="#111111" stroke-width="6" stroke-opacity="1" stroke-miterlimit="4"/></g><g clip-path="url(#a9ca3ad5fd)"><path stroke-linecap="butt" transform="matrix(0.529546, 0.529546, -0.529546, 0.529546, -225.987943, 44.91078)" fill="none" stroke-linejoin="miter" d="M -0.000907975 3.00201 L 1361.289404 2.998322 " stroke="#111111" stroke-width="6" stroke-opacity="1" stroke-miterlimit="4"/></g><g clip-path="url(#3cd42b210a)"><path stroke-linecap="butt" transform="matrix(0.529546, 0.529546, -0.529546, 0.529546, -284.468525, -0.150317)" fill="none" stroke-linejoin="miter" d="M -0.00212623 3.000579 L 1489.017842 3.000579 " stroke="#111111" stroke-width="6" stroke-opacity="1" stroke-miterlimit="4"/></g><g clip-path="url(#2af8f4cef0)"><path stroke-linecap="butt" transform="matrix(0.529546, 0.529546, -0.529546, 0.529546, -241.22769, 56.893028)" fill="none" stroke-linejoin="miter" d="M -0.00120422 2.998946 L 1361.285419 2.998946 " stroke="#111111" stroke-width="6" stroke-opacity="1" stroke-miterlimit="4"/></g><g clip-path="url(#7a0f48b5d1)"><path stroke-linecap="butt" transform="matrix(0.529546, 0.529546, -0.529546, 0.529546, -331.621333, -20.086158)" fill="none" stroke-linejoin="miter" d="M 0.000433954 3.002261 L 1549.283601 2.998573 " stroke="#111111" stroke-width="6" stroke-opacity="1" stroke-miterlimit="4"/></g><g clip-path="url(#a78aec2b8a)"><path stroke-linecap="butt" transform="matrix(0.529546, 0.529546, -0.529546, 0.529546, -343.113641, 36.014917)" fill="none" stroke-linejoin="miter" d="M 0.00100814 3.002607 L 1361.287632 3.002607 " stroke="#111111" stroke-width="6" stroke-opacity="1" stroke-miterlimit="4"/></g><g clip-path="url(#8967d0307a)"><path stroke-linecap="butt" transform="matrix(0.529546, 0.529546, -0.529546, 0.529546, -401.594271, -9.046135)" fill="none" stroke-linejoin="miter" d="M -0.000207026 3.001089 L 1489.016073 2.997401 " stroke="#111111" stroke-width="6" stroke-opacity="1" stroke-miterlimit="4"/></g><g clip-path="url(#1890d2e87e)"><path stroke-linecap="butt" transform="matrix(0.529546, 0.529546, -0.529546, 0.529546, -358.353417, 47.997165)" fill="none" stroke-linejoin="miter" d="M 0.000739723 2.999517 L 1361.287363 2.999517 " stroke="#111111" stroke-width="6" stroke-opacity="1" stroke-miterlimit="4"/></g><g clip-path="url(#b43c1c9c7c)"><path stroke-linecap="butt" transform="matrix(0.529546, 0.529546, -0.529546, 0.529546, -448.747053, -28.981997)" fill="none" stroke-linejoin="miter" d="M -0.00133982 2.999128 L 1549.285516 2.999128 " stroke="#111111" stroke-width="6" stroke-opacity="1" stroke-miterlimit="4"/></g><g clip-path="url(#99acfb20c9)"><path stroke-linecap="butt" transform="matrix(0.529546, 0.529546, -0.529546, 0.529546, -393.813179, 39.75937)" fill="none" stroke-linejoin="miter" d="M -0.000829815 3.000168 L 1361.285794 3.000168 " stroke="#111111" stroke-width="6" stroke-opacity="1" stroke-miterlimit="4"/></g><g clip-path="url(#063d9876e6)"><path stroke-linecap="butt" transform="matrix(0.529546, 0.529546, -0.529546, 0.529546, -452.293751, -5.301682)" fill="none" stroke-linejoin="miter" d="M -0.00209974 2.998703 L 1489.01418 3.002392 " stroke="#111111" stroke-width="6" stroke-opacity="1" stroke-miterlimit="4"/></g><g clip-path="url(#5537edd7be)"><path stroke-linecap="butt" transform="matrix(0.529546, 0.529546, -0.529546, 0.529546, -409.052933, 51.741617)" fill="none" stroke-linejoin="miter" d="M 0.00256971 3.000786 L 1361.289193 3.000786 " stroke="#111111" stroke-width="6" stroke-opacity="1" stroke-miterlimit="4"/></g><g clip-path="url(#8135b86d48)"><path stroke-linecap="butt" transform="matrix(0.529546, 0.529546, -0.529546, 0.529546, -499.446533, -25.237522)" fill="none" stroke-linejoin="miter" d="M 0.000435634 3.000411 L 1549.279915 3.000411 " stroke="#111111" stroke-width="6" stroke-opacity="1" stroke-miterlimit="4"/></g><g clip-path="url(#4a61498f9e)"><path stroke-linecap="butt" transform="matrix(0.529546, 0.529546, -0.529546, 0.529546, -331.131393, 47.997165)" fill="none" stroke-linejoin="miter" d="M 0.00133706 2.99892 L 1361.28796 2.99892 " stroke="#111111" stroke-width="6" stroke-opacity="1" stroke-miterlimit="4"/></g><g clip-path="url(#237edb6cd4)"><path stroke-linecap="butt" transform="matrix(0.529546, 0.529546, -0.529546, 0.529546, -389.61202, 2.936113)" fill="none" stroke-linejoin="miter" d="M 0.000118657 2.997403 L 1489.016399 3.001091 " stroke="#111111" stroke-width="6" stroke-opacity="1" stroke-miterlimit="4"/></g><g clip-path="url(#bc286fd8ff)"><path stroke-linecap="butt" transform="matrix(0.529546, 0.529546, -0.529546, 0.529546, -346.371169, 59.979413)" fill="none" stroke-linejoin="miter" d="M -0.00262034 2.999517 L 1361.287691 3.003205 " stroke="#111111" stroke-width="6" stroke-opacity="1" stroke-miterlimit="4"/></g><g clip-path="url(#1b50e162c9)"><path stroke-linecap="butt" transform="matrix(0.529546, 0.529546, -0.529546, 0.529546, -436.764805, -16.999727)" fill="none" stroke-linejoin="miter" d="M 0.00265613 2.999108 L 1549.282135 2.999108 " stroke="#111111" stroke-width="6" stroke-opacity="1" stroke-miterlimit="4"/></g><g clip-path="url(#7cbab65db1)"><path stroke-linecap="butt" transform="matrix(0.529546, 0.529546, -0.529546, 0.529546, -327.554184, 159.087196)" fill="none" stroke-linejoin="miter" d="M -0.00166369 3.001566 L 1489.014616 2.997878 " stroke="#111111" stroke-width="6" stroke-opacity="1" stroke-miterlimit="4"/></g><g clip-path="url(#e73f6affab)"><path stroke-linecap="butt" transform="matrix(0.529546, 0.529546, -0.529546, 0.529546, -284.313335, 216.130493)" fill="none" stroke-linejoin="miter" d="M -0.000709247 2.999993 L 1361.285914 2.999993 " stroke="#111111" stroke-width="6" stroke-opacity="1" stroke-miterlimit="4"/></g><g clip-path="url(#47c61e9cbb)"><path stroke-linecap="butt" transform="matrix(0.529546, 0.529546, -0.529546, 0.529546, -374.706993, 139.15135)" fill="none" stroke-linejoin="miter" d="M -0.0027863 2.999566 L 1549.28407 2.999566 " stroke="#111111" stroke-width="6" stroke-opacity="1" stroke-miterlimit="4"/></g><g clip-path="url(#3c0d829d15)"><path stroke-linecap="butt" transform="matrix(0.529546, 0.529546, -0.529546, 0.529546, -319.773123, 207.892697)" fill="none" stroke-linejoin="miter" d="M -0.00225322 3.00062 L 1361.288059 2.996931 " stroke="#111111" stroke-width="6" stroke-opacity="1" stroke-miterlimit="4"/></g><g clip-path="url(#bbe5942aea)"><path stroke-linecap="butt" transform="matrix(0.529546, 0.529546, -0.529546, 0.529546, -378.253662, 162.831649)" fill="none" stroke-linejoin="miter" d="M 0.000130094 3.002872 L 1489.01641 2.999183 " stroke="#111111" stroke-width="6" stroke-opacity="1" stroke-miterlimit="4"/></g><g clip-path="url(#cf10df4a4e)"><path stroke-linecap="butt" transform="matrix(0.529546, 0.529546, -0.529546, 0.529546, -335.012841, 219.874945)" fill="none" stroke-linejoin="miter" d="M 0.00111169 3.001271 L 1361.287735 3.001271 " stroke="#111111" stroke-width="6" stroke-opacity="1" stroke-miterlimit="4"/></g><g clip-path="url(#e4fffffdfc)"><path stroke-linecap="butt" transform="matrix(0.529546, 0.529546, -0.529546, 0.529546, -425.406473, 142.895803)" fill="none" stroke-linejoin="miter" d="M -0.000990256 3.000869 L 1549.282177 2.997181 " stroke="#111111" stroke-width="6" stroke-opacity="1" stroke-miterlimit="4"/></g><g clip-path="url(#9aead93401)"><path stroke-linecap="butt" transform="matrix(0.529546, 0.529546, -0.529546, 0.529546, -315.571936, 171.069444)" fill="none" stroke-linejoin="miter" d="M -0.00133545 2.997878 L 1489.014944 3.001566 " stroke="#111111" stroke-width="6" stroke-opacity="1" stroke-miterlimit="4"/></g><g clip-path="url(#be8a9a0b10)"><path stroke-linecap="butt" transform="matrix(0.529546, 0.529546, -0.529546, 0.529546, -272.331087, 228.112741)" fill="none" stroke-linejoin="miter" d="M 0.0033073 2.999993 L 1361.289931 2.999993 " stroke="#111111" stroke-width="6" stroke-opacity="1" stroke-miterlimit="4"/></g><g clip-path="url(#f6caf1a8fc)"><path stroke-linecap="butt" transform="matrix(0.529546, 0.529546, -0.529546, 0.529546, -362.724745, 151.133598)" fill="none" stroke-linejoin="miter" d="M 0.00123024 2.999566 L 1549.280709 2.999566 " stroke="#111111" stroke-width="6" stroke-opacity="1" stroke-miterlimit="4"/></g><g clip-path="url(#63116783a2)"><path stroke-linecap="butt" transform="matrix(0.529546, 0.529546, -0.529546, 0.529546, -377.961537, 204.987997)" fill="none" stroke-linejoin="miter" d="M 0.000834681 3.001982 L 1361.287458 3.001982 " stroke="#111111" stroke-width="6" stroke-opacity="1" stroke-miterlimit="4"/></g><g clip-path="url(#b0a9f5bdb8)"><path stroke-linecap="butt" transform="matrix(0.529546, 0.529546, -0.529546, 0.529546, -436.442123, 159.926948)" fill="none" stroke-linejoin="miter" d="M -0.000425057 3.000501 L 1489.012166 3.000501 " stroke="#111111" stroke-width="6" stroke-opacity="1" stroke-miterlimit="4"/></g><g clip-path="url(#9bd653b9cf)"><path stroke-linecap="butt" transform="matrix(0.529546, 0.529546, -0.529546, 0.529546, -393.201281, 216.970245)" fill="none" stroke-linejoin="miter" d="M 0.000536173 2.998921 L 1361.28716 2.998921 " stroke="#111111" stroke-width="6" stroke-opacity="1" stroke-miterlimit="4"/></g><g clip-path="url(#515635e741)"><path stroke-linecap="butt" transform="matrix(0.529546, 0.529546, -0.529546, 0.529546, -483.594905, 139.991116)" fill="none" stroke-linejoin="miter" d="M -0.00158614 2.998512 L 1549.281581 3.0022 " stroke="#111111" stroke-width="6" stroke-opacity="1" stroke-miterlimit="4"/></g><g clip-path="url(#e47634b150)"><path stroke-linecap="butt" transform="matrix(0.529546, 0.529546, -0.529546, 0.529546, -428.661043, 208.732449)" fill="none" stroke-linejoin="miter" d="M -0.00103269 2.999573 L 1361.285591 2.999573 " stroke="#111111" stroke-width="6" stroke-opacity="1" stroke-miterlimit="4"/></g><g clip-path="url(#631b85578f)"><path stroke-linecap="butt" transform="matrix(0.529546, 0.529546, -0.529546, 0.529546, -487.141603, 163.671401)" fill="none" stroke-linejoin="miter" d="M 0.00137099 3.001804 L 1489.013963 3.001804 " stroke="#111111" stroke-width="6" stroke-opacity="1" stroke-miterlimit="4"/></g><g clip-path="url(#7f1fc00653)"><path stroke-linecap="butt" transform="matrix(0.529546, 0.529546, -0.529546, 0.529546, -443.900785, 220.714697)" fill="none" stroke-linejoin="miter" d="M 0.00235485 3.000202 L 1361.288978 3.000202 " stroke="#111111" stroke-width="6" stroke-opacity="1" stroke-miterlimit="4"/></g><g clip-path="url(#9487ea8cee)"><path stroke-linecap="butt" transform="matrix(0.529546, 0.529546, -0.529546, 0.529546, -365.979289, 216.970245)" fill="none" stroke-linejoin="miter" d="M 0.00116292 2.998294 L 1361.287786 2.998294 " stroke="#111111" stroke-width="6" stroke-opacity="1" stroke-miterlimit="4"/></g><g clip-path="url(#a5303c3493)"><path stroke-linecap="butt" transform="matrix(0.529546, 0.529546, -0.529546, 0.529546, -424.459875, 171.909196)" fill="none" stroke-linejoin="miter" d="M -0.0000968173 2.996813 L 1489.016183 3.000501 " stroke="#111111" stroke-width="6" stroke-opacity="1" stroke-miterlimit="4"/></g><g clip-path="url(#040b243137)"><path stroke-linecap="butt" transform="matrix(0.529546, 0.529546, -0.529546, 0.529546, -381.219033, 228.952493)" fill="none" stroke-linejoin="miter" d="M 0.000864413 3.002609 L 1361.287488 3.002609 " stroke="#111111" stroke-width="6" stroke-opacity="1" stroke-miterlimit="4"/></g><g clip-path="url(#00e4f63a7a)"><path stroke-linecap="butt" transform="matrix(0.529546, 0.529546, -0.529546, 0.529546, -471.612657, 151.973364)" fill="none" stroke-linejoin="miter" d="M -0.0012579 3.0022 L 1549.28191 2.998512 " stroke="#111111" stroke-width="6" stroke-opacity="1" stroke-miterlimit="4"/></g><g clip-path="url(#82a3c37f22)"><path stroke-linecap="butt" transform="matrix(0.529546, 0.529546, -0.529546, 0.529546, 820.08164, -313.184263)" fill="none" stroke-linejoin="miter" d="M 0.00100188 3.002542 L 1489.017282 2.998853 " stroke="#111111" stroke-width="6" stroke-opacity="1" stroke-miterlimit="4"/></g><g clip-path="url(#cdf95a88d1)"><path stroke-linecap="butt" transform="matrix(0.529546, 0.529546, -0.529546, 0.529546, 863.322457, -256.140952)" fill="none" stroke-linejoin="miter" d="M 0.00197216 3.000926 L 1361.288596 3.000926 " stroke="#111111" stroke-width="6" stroke-opacity="1" stroke-miterlimit="4"/></g><g clip-path="url(#0bc24ea0cb)"><path stroke-linecap="butt" transform="matrix(0.529546, 0.529546, -0.529546, 0.529546, 772.928857, -333.120107)" fill="none" stroke-linejoin="miter" d="M -0.00014789 3.000564 L 1549.28302 2.996876 " stroke="#111111" stroke-width="6" stroke-opacity="1" stroke-miterlimit="4"/></g><g clip-path="url(#245f144c20)"><path stroke-linecap="butt" transform="matrix(0.529546, 0.529546, -0.529546, 0.529546, 827.86272, -264.378748)" fill="none" stroke-linejoin="miter" d="M 0.000380671 3.0016 L 1361.287004 3.0016 " stroke="#111111" stroke-width="6" stroke-opacity="1" stroke-miterlimit="4"/></g><g clip-path="url(#cf91f10392)"><path stroke-linecap="butt" transform="matrix(0.529546, 0.529546, -0.529546, 0.529546, 769.38216, -309.439811)" fill="none" stroke-linejoin="miter" d="M -0.000890381 3.000157 L 1489.011701 3.000157 " stroke="#111111" stroke-width="6" stroke-opacity="1" stroke-miterlimit="4"/></g><g clip-path="url(#f33af403a3)"><path stroke-linecap="butt" transform="matrix(0.529546, 0.529546, -0.529546, 0.529546, 812.622978, -252.3965)" fill="none" stroke-linejoin="miter" d="M 0.0000799005 2.998541 L 1361.286703 2.998541 " stroke="#111111" stroke-width="6" stroke-opacity="1" stroke-miterlimit="4"/></g><g clip-path="url(#c4fc0fd309)"><path stroke-linecap="butt" transform="matrix(0.529546, 0.529546, -0.529546, 0.529546, 722.22933, -329.375655)" fill="none" stroke-linejoin="miter" d="M 0.00169341 3.001822 L 1549.281173 3.001822 " stroke="#111111" stroke-width="6" stroke-opacity="1" stroke-miterlimit="4"/></g><g clip-path="url(#4cf84f4e22)"><path stroke-linecap="butt" transform="matrix(0.529546, 0.529546, -0.529546, 0.529546, 832.063888, -301.202015)" fill="none" stroke-linejoin="miter" d="M 0.00133012 2.998853 L 1489.013922 2.998853 " stroke="#111111" stroke-width="6" stroke-opacity="1" stroke-miterlimit="4"/></g><g clip-path="url(#c1ca0cfafe)"><path stroke-linecap="butt" transform="matrix(0.529546, 0.529546, -0.529546, 0.529546, 875.304706, -244.158688)" fill="none" stroke-linejoin="miter" d="M -0.00140375 3.00091 L 1361.28522 3.00091 " stroke="#111111" stroke-width="6" stroke-opacity="1" stroke-miterlimit="4"/></g><g clip-path="url(#aebb7df5da)"><path stroke-linecap="butt" transform="matrix(0.529546, 0.529546, -0.529546, 0.529546, 784.911105, -321.137859)" fill="none" stroke-linejoin="miter" d="M 0.00018035 2.996876 L 1549.283348 3.000564 " stroke="#111111" stroke-width="6" stroke-opacity="1" stroke-miterlimit="4"/></g><g clip-path="url(#325aa90930)"><path stroke-linecap="butt" transform="matrix(0.529546, 0.529546, -0.529546, 0.529546, 769.674335, -267.283417)" fill="none" stroke-linejoin="miter" d="M -0.000276304 2.999272 L 1361.286347 2.999272 " stroke="#111111" stroke-width="6" stroke-opacity="1" stroke-miterlimit="4"/></g><g clip-path="url(#2bd3c148bb)"><path stroke-linecap="butt" transform="matrix(0.529546, 0.529546, -0.529546, 0.529546, 711.193727, -312.344511)" fill="none" stroke-linejoin="miter" d="M -0.00147269 2.997813 L 1489.014807 3.001501 " stroke="#111111" stroke-width="6" stroke-opacity="1" stroke-miterlimit="4"/></g><g clip-path="url(#31db5aaec3)"><path stroke-linecap="butt" transform="matrix(0.529546, 0.529546, -0.529546, 0.529546, 754.434545, -255.301169)" fill="none" stroke-linejoin="miter" d="M 0.00315648 2.999856 L 1361.28978 2.999856 " stroke="#111111" stroke-width="6" stroke-opacity="1" stroke-miterlimit="4"/></g><g clip-path="url(#1aef4841ad)"><path stroke-linecap="butt" transform="matrix(0.529546, 0.529546, -0.529546, 0.529546, 664.040873, -332.280355)" fill="none" stroke-linejoin="miter" d="M 0.00113373 2.999456 L 1549.280613 2.999456 " stroke="#111111" stroke-width="6" stroke-opacity="1" stroke-miterlimit="4"/></g><g clip-path="url(#81af4af051)"><path stroke-linecap="butt" transform="matrix(0.529546, 0.529546, -0.529546, 0.529546, 718.974736, -263.538965)" fill="none" stroke-linejoin="miter" d="M 0.00163288 3.000462 L 1361.288256 3.000462 " stroke="#111111" stroke-width="6" stroke-opacity="1" stroke-miterlimit="4"/></g><g clip-path="url(#0ff0d64985)"><path stroke-linecap="butt" transform="matrix(0.529546, 0.529546, -0.529546, 0.529546, 660.494176, -308.600059)" fill="none" stroke-linejoin="miter" d="M 0.000391243 2.999049 L 1489.012983 2.999049 " stroke="#111111" stroke-width="6" stroke-opacity="1" stroke-miterlimit="4"/></g><g clip-path="url(#bb230121cb)"><path stroke-linecap="butt" transform="matrix(0.529546, 0.529546, -0.529546, 0.529546, 703.734994, -251.556717)" fill="none" stroke-linejoin="miter" d="M -0.0023562 3.001091 L 1361.287956 2.997403 " stroke="#111111" stroke-width="6" stroke-opacity="1" stroke-miterlimit="4"/></g><g clip-path="url(#55e52357f6)"><path stroke-linecap="butt" transform="matrix(0.529546, 0.529546, -0.529546, 0.529546, 613.341393, -328.535903)" fill="none" stroke-linejoin="miter" d="M -0.000758524 2.997071 L 1549.282409 3.000759 " stroke="#111111" stroke-width="6" stroke-opacity="1" stroke-miterlimit="4"/></g><g clip-path="url(#a80a63db52)"><path stroke-linecap="butt" transform="matrix(0.529546, 0.529546, -0.529546, 0.529546, 781.656583, -255.301169)" fill="none" stroke-linejoin="miter" d="M 0.0000519358 3.00296 L 1361.290364 2.999272 " stroke="#111111" stroke-width="6" stroke-opacity="1" stroke-miterlimit="4"/></g><g clip-path="url(#41630018ea)"><path stroke-linecap="butt" transform="matrix(0.529546, 0.529546, -0.529546, 0.529546, 723.175975, -300.362263)" fill="none" stroke-linejoin="miter" d="M -0.00114445 3.001501 L 1489.015135 2.997813 " stroke="#111111" stroke-width="6" stroke-opacity="1" stroke-miterlimit="4"/></g><g clip-path="url(#153b37e604)"><path stroke-linecap="butt" transform="matrix(0.529546, 0.529546, -0.529546, 0.529546, 766.416793, -243.318936)" fill="none" stroke-linejoin="miter" d="M -0.000190003 2.999869 L 1361.286433 2.999869 " stroke="#111111" stroke-width="6" stroke-opacity="1" stroke-miterlimit="4"/></g><g clip-path="url(#2d36b641d2)"><path stroke-linecap="butt" transform="matrix(0.529546, 0.529546, -0.529546, 0.529546, 676.023121, -320.298107)" fill="none" stroke-linejoin="miter" d="M -0.00222633 2.999456 L 1549.284629 2.999456 " stroke="#111111" stroke-width="6" stroke-opacity="1" stroke-miterlimit="4"/></g><g clip-path="url(#2e155381ce)"><path stroke-linecap="butt" transform="matrix(0.529546, 0.529546, -0.529546, 0.529546, 664.530827, -264.197023)" fill="none" stroke-linejoin="miter" d="M -0.00167432 2.999807 L 1361.284949 2.999807 " stroke="#111111" stroke-width="6" stroke-opacity="1" stroke-miterlimit="4"/></g><g clip-path="url(#47233fb22c)"><path stroke-linecap="butt" transform="matrix(0.529546, 0.529546, -0.529546, 0.529546, 606.050243, -309.258088)" fill="none" stroke-linejoin="miter" d="M 0.000767819 3.002032 L 1489.017048 2.998343 " stroke="#111111" stroke-width="6" stroke-opacity="1" stroke-miterlimit="4"/></g><g clip-path="url(#028835cfb0)"><path stroke-linecap="butt" transform="matrix(0.529546, 0.529546, -0.529546, 0.529546, 649.291013, -252.214775)" fill="none" stroke-linejoin="miter" d="M 0.00178109 3.000368 L 1361.288405 3.000368 " stroke="#111111" stroke-width="6" stroke-opacity="1" stroke-miterlimit="4"/></g><g clip-path="url(#5d64453911)"><path stroke-linecap="butt" transform="matrix(0.529546, 0.529546, -0.529546, 0.529546, 558.897413, -329.193932)" fill="none" stroke-linejoin="miter" d="M -0.000336692 3.000009 L 1549.286519 3.000009 " stroke="#111111" stroke-width="6" stroke-opacity="1" stroke-miterlimit="4"/></g><g clip-path="url(#dc93ac942d)"><path stroke-linecap="butt" transform="matrix(0.529546, 0.529546, -0.529546, 0.529546, 613.831276, -260.45257)" fill="none" stroke-linejoin="miter" d="M 0.000189606 3.001042 L 1361.286813 3.001042 " stroke="#111111" stroke-width="6" stroke-opacity="1" stroke-miterlimit="4"/></g><g clip-path="url(#1ae367a2cc)"><path stroke-linecap="butt" transform="matrix(0.529546, 0.529546, -0.529546, 0.529546, 555.350716, -305.513635)" fill="none" stroke-linejoin="miter" d="M -0.00107918 2.999601 L 1489.015201 3.00329 " stroke="#111111" stroke-width="6" stroke-opacity="1" stroke-miterlimit="4"/></g><g clip-path="url(#9d6a35afd6)"><path stroke-linecap="butt" transform="matrix(0.529546, 0.529546, -0.529546, 0.529546, 598.591534, -248.470322)" fill="none" stroke-linejoin="miter" d="M -0.000111165 2.997983 L 1361.286512 2.997983 " stroke="#111111" stroke-width="6" stroke-opacity="1" stroke-miterlimit="4"/></g><g clip-path="url(#3592da4592)"><path stroke-linecap="butt" transform="matrix(0.529546, 0.529546, -0.529546, 0.529546, 508.197934, -325.449479)" fill="none" stroke-linejoin="miter" d="M 0.00145935 3.001312 L 1549.280939 3.001312 " stroke="#111111" stroke-width="6" stroke-opacity="1" stroke-miterlimit="4"/></g><g clip-path="url(#cc2f3a199e)"><path stroke-linecap="butt" transform="matrix(0.529546, 0.529546, -0.529546, 0.529546, 676.513075, -252.214775)" fill="none" stroke-linejoin="miter" d="M 0.00234222 2.999807 L 1361.288966 2.999807 " stroke="#111111" stroke-width="6" stroke-opacity="1" stroke-miterlimit="4"/></g><g clip-path="url(#b4277457be)"><path stroke-linecap="butt" transform="matrix(0.529546, 0.529546, -0.529546, 0.529546, 618.032491, -297.27584)" fill="none" stroke-linejoin="miter" d="M 0.00109606 2.998343 L 1489.013688 2.998343 " stroke="#111111" stroke-width="6" stroke-opacity="1" stroke-miterlimit="4"/></g><g clip-path="url(#700a390cd2)"><path stroke-linecap="butt" transform="matrix(0.529546, 0.529546, -0.529546, 0.529546, 661.273261, -240.232527)" fill="none" stroke-linejoin="miter" d="M -0.00157897 3.000368 L 1361.285044 3.000368 " stroke="#111111" stroke-width="6" stroke-opacity="1" stroke-miterlimit="4"/></g><g clip-path="url(#27c1f4a0ec)"><path stroke-linecap="butt" transform="matrix(0.529546, 0.529546, -0.529546, 0.529546, 570.879661, -317.211684)" fill="none" stroke-linejoin="miter" d="M -0.00000845222 2.99632 L 1549.283159 3.000009 " stroke="#111111" stroke-width="6" stroke-opacity="1" stroke-miterlimit="4"/></g><g clip-path="url(#d41f0f0612)"><path stroke-linecap="butt" transform="matrix(0.529546, 0.529546, -0.529546, 0.529546, 844.046136, -289.219767)" fill="none" stroke-linejoin="miter" d="M -0.00202995 2.998853 L 1489.01425 3.002542 " stroke="#111111" stroke-width="6" stroke-opacity="1" stroke-miterlimit="4"/></g><g clip-path="url(#5b420089c5)"><path stroke-linecap="butt" transform="matrix(0.529546, 0.529546, -0.529546, 0.529546, 887.286954, -232.17644)" fill="none" stroke-linejoin="miter" d="M 0.0026128 3.00091 L 1361.289236 3.00091 " stroke="#111111" stroke-width="6" stroke-opacity="1" stroke-miterlimit="4"/></g><g clip-path="url(#1bbcad0987)"><path stroke-linecap="butt" transform="matrix(0.529546, 0.529546, -0.529546, 0.529546, 796.893354, -309.155611)" fill="none" stroke-linejoin="miter" d="M 0.00050859 3.000564 L 1549.279988 3.000564 " stroke="#111111" stroke-width="6" stroke-opacity="1" stroke-miterlimit="4"/></g><g clip-path="url(#20b4104ac7)"><path stroke-linecap="butt" transform="matrix(0.529546, 0.529546, -0.529546, 0.529546, 851.827216, -240.414235)" fill="none" stroke-linejoin="miter" d="M 0.00102131 3.001584 L 1361.287645 3.001584 " stroke="#111111" stroke-width="6" stroke-opacity="1" stroke-miterlimit="4"/></g><g clip-path="url(#9c3752a161)"><path stroke-linecap="butt" transform="matrix(0.529546, 0.529546, -0.529546, 0.529546, 793.346656, -285.475315)" fill="none" stroke-linejoin="miter" d="M -0.000233901 3.000157 L 1489.012358 3.000157 " stroke="#111111" stroke-width="6" stroke-opacity="1" stroke-miterlimit="4"/></g><g clip-path="url(#435822fcfa)"><path stroke-linecap="butt" transform="matrix(0.529546, 0.529546, -0.529546, 0.529546, 836.587474, -228.431987)" fill="none" stroke-linejoin="miter" d="M 0.000720541 2.998525 L 1361.287344 2.998525 " stroke="#111111" stroke-width="6" stroke-opacity="1" stroke-miterlimit="4"/></g><g clip-path="url(#be50f362e9)"><path stroke-linecap="butt" transform="matrix(0.529546, 0.529546, -0.529546, 0.529546, 746.193826, -305.411158)" fill="none" stroke-linejoin="miter" d="M -0.00133841 2.998134 L 1549.281829 3.001822 " stroke="#111111" stroke-width="6" stroke-opacity="1" stroke-miterlimit="4"/></g><g clip-path="url(#dba3027d72)"><path stroke-linecap="butt" transform="matrix(0.529546, 0.529546, -0.529546, 0.529546, 856.028384, -277.237519)" fill="none" stroke-linejoin="miter" d="M 0.0019866 2.998853 L 1489.014578 2.998853 " stroke="#111111" stroke-width="6" stroke-opacity="1" stroke-miterlimit="4"/></g><g clip-path="url(#dad0db6064)"><path stroke-linecap="butt" transform="matrix(0.529546, 0.529546, -0.529546, 0.529546, 899.269202, -220.194191)" fill="none" stroke-linejoin="miter" d="M -0.000747265 3.00091 L 1361.285876 3.00091 " stroke="#111111" stroke-width="6" stroke-opacity="1" stroke-miterlimit="4"/></g><g clip-path="url(#b33c3b2f5c)"><path stroke-linecap="butt" transform="matrix(0.529546, 0.529546, -0.529546, 0.529546, 808.875602, -297.173363)" fill="none" stroke-linejoin="miter" d="M -0.00285147 3.000564 L 1549.284004 3.000564 " stroke="#111111" stroke-width="6" stroke-opacity="1" stroke-miterlimit="4"/></g><g clip-path="url(#3c7772a9cc)"><path stroke-linecap="butt" transform="matrix(0.529546, 0.529546, -0.529546, 0.529546, 793.638831, -243.318936)" fill="none" stroke-linejoin="miter" d="M 0.000393752 2.999286 L 1361.287017 2.999286 " stroke="#111111" stroke-width="6" stroke-opacity="1" stroke-miterlimit="4"/></g><g clip-path="url(#04e2863a8d)"><path stroke-linecap="butt" transform="matrix(0.529546, 0.529546, -0.529546, 0.529546, 735.158223, -288.380015)" fill="none" stroke-linejoin="miter" d="M -0.000816206 2.997813 L 1489.015464 3.001501 " stroke="#111111" stroke-width="6" stroke-opacity="1" stroke-miterlimit="4"/></g><g clip-path="url(#56e094d2d4)"><path stroke-linecap="butt" transform="matrix(0.529546, 0.529546, -0.529546, 0.529546, 778.399041, -231.336688)" fill="none" stroke-linejoin="miter" d="M -0.00355007 2.999869 L 1361.29045 2.999869 " stroke="#111111" stroke-width="6" stroke-opacity="1" stroke-miterlimit="4"/></g><g clip-path="url(#54b3bcee3d)"><path stroke-linecap="butt" transform="matrix(0.529546, 0.529546, -0.529546, 0.529546, 805.621079, -231.336688)" fill="none" stroke-linejoin="miter" d="M -0.00296631 2.999286 L 1361.287345 3.002974 " stroke="#111111" stroke-width="6" stroke-opacity="1" stroke-miterlimit="4"/></g><g clip-path="url(#f5083910d2)"><path stroke-linecap="butt" transform="matrix(0.529546, 0.529546, -0.529546, 0.529546, 747.140471, -276.397767)" fill="none" stroke-linejoin="miter" d="M -0.000487966 3.001501 L 1489.015792 2.997813 " stroke="#111111" stroke-width="6" stroke-opacity="1" stroke-miterlimit="4"/></g><g clip-path="url(#759d56517c)"><path stroke-linecap="butt" transform="matrix(0.529546, 0.529546, -0.529546, 0.529546, 790.381289, -219.35444)" fill="none" stroke-linejoin="miter" d="M 0.000466477 2.999869 L 1361.28709 2.999869 " stroke="#111111" stroke-width="6" stroke-opacity="1" stroke-miterlimit="4"/></g><g clip-path="url(#371290b55a)"><path stroke-linecap="butt" transform="matrix(0.529546, 0.529546, -0.529546, 0.529546, 936.526085, -263.737187)" fill="none" stroke-linejoin="miter" d="M 0.000155723 3.000058 L 1361.286779 3.000058 " stroke="#111111" stroke-width="6" stroke-opacity="1" stroke-miterlimit="4"/></g><g clip-path="url(#dbf4f1a20e)"><path stroke-linecap="butt" transform="matrix(0.529546, 0.529546, -0.529546, 0.529546, 846.132437, -340.716373)" fill="none" stroke-linejoin="miter" d="M -0.00188965 2.99968 L 1549.284966 2.99968 " stroke="#111111" stroke-width="6" stroke-opacity="1" stroke-miterlimit="4"/></g><g clip-path="url(#94d5a84873)"><path stroke-linecap="butt" transform="matrix(0.529546, 0.529546, -0.529546, 0.529546, 893.577394, -278.624165)" fill="none" stroke-linejoin="miter" d="M -0.000098658 3.000801 L 1361.286525 3.000801 " stroke="#111111" stroke-width="6" stroke-opacity="1" stroke-miterlimit="4"/></g><g clip-path="url(#97dc754763)"><path stroke-linecap="butt" transform="matrix(0.529546, 0.529546, -0.529546, 0.529546, 835.096834, -323.68523)" fill="none" stroke-linejoin="miter" d="M -0.00136745 2.99936 L 1489.014912 3.003048 " stroke="#111111" stroke-width="6" stroke-opacity="1" stroke-miterlimit="4"/></g><g clip-path="url(#11a895a5f6)"><path stroke-linecap="butt" transform="matrix(0.529546, 0.529546, -0.529546, 0.529546, 878.337652, -266.641917)" fill="none" stroke-linejoin="miter" d="M -0.000399428 2.997741 L 1361.289912 3.00143 " stroke="#111111" stroke-width="6" stroke-opacity="1" stroke-miterlimit="4"/></g><g clip-path="url(#ee7989ecc2)"><path stroke-linecap="butt" transform="matrix(0.529546, 0.529546, -0.529546, 0.529546, 905.559642, -266.641917)" fill="none" stroke-linejoin="miter" d="M 0.000229582 2.997112 L 1361.290541 3.000801 " stroke="#111111" stroke-width="6" stroke-opacity="1" stroke-miterlimit="4"/></g><g clip-path="url(#924c835b9d)"><path stroke-linecap="butt" transform="matrix(0.529546, 0.529546, -0.529546, 0.529546, 847.079082, -311.702982)" fill="none" stroke-linejoin="miter" d="M 0.0026491 2.99936 L 1489.015241 2.99936 " stroke="#111111" stroke-width="6" stroke-opacity="1" stroke-miterlimit="4"/></g><g clip-path="url(#f32e27463f)"><path stroke-linecap="butt" transform="matrix(0.529546, 0.529546, -0.529546, 0.529546, 890.3199, -254.659669)" fill="none" stroke-linejoin="miter" d="M -0.0000711884 3.00143 L 1361.286552 3.00143 " stroke="#111111" stroke-width="6" stroke-opacity="1" stroke-miterlimit="4"/></g></svg>