<svg xmlns="http://www.w3.org/2000/svg" xmlns:xlink="http://www.w3.org/1999/xlink" width="750" zoomAndPan="magnify" viewBox="0 0 562.5 112.499997" height="150" preserveAspectRatio="xMidYMid meet" version="1.0"><path fill="#e10600" d="M 468.605469 60.199219 C 468.605469 60.605469 468.804688 60.808594 469.210938 60.808594 L 497.265625 60.808594 C 497.394531 60.808594 497.5 60.855469 497.589844 60.941406 C 497.679688 61.03125 497.726562 61.140625 497.726562 61.265625 L 497.726562 67.582031 C 497.726562 67.664062 497.695312 67.730469 497.636719 67.789062 C 497.578125 67.847656 497.507812 67.875 497.429688 67.875 L 459.320312 67.875 C 459.195312 67.875 459.085938 67.832031 458.996094 67.742188 C 458.90625 67.65625 458.859375 67.550781 458.859375 67.425781 C 458.820312 64.050781 458.808594 61.195312 458.808594 58.859375 C 458.8125 56.796875 459.085938 55.273438 459.628906 54.285156 C 461.53125 50.828125 464.09375 50.226562 468.164062 50.230469 C 475.402344 50.242188 481.398438 50.230469 486.148438 50.210938 C 487.085938 50.207031 487.6875 49.683594 487.964844 48.636719 C 487.96875 48.617188 487.96875 48.59375 487.96875 48.566406 C 487.847656 47.347656 487.226562 46.742188 486.109375 46.742188 L 459.183594 46.753906 C 459.089844 46.753906 459.007812 46.722656 458.941406 46.65625 C 458.878906 46.589844 458.84375 46.507812 458.84375 46.414062 L 458.84375 39.882812 C 458.84375 39.808594 458.871094 39.738281 458.925781 39.6875 C 458.984375 39.632812 459.046875 39.605469 459.125 39.605469 C 466.625 39.621094 476.570312 39.625 488.964844 39.613281 C 492.660156 39.613281 495.886719 41.933594 497.175781 45.46875 C 499.28125 51.210938 495.128906 57.203125 488.816406 57.300781 C 487.101562 57.324219 481.261719 57.332031 471.304688 57.320312 C 470.613281 57.320312 469.988281 57.359375 469.4375 57.441406 C 468.882812 57.519531 468.605469 57.832031 468.605469 58.386719 Z M 51.558594 55.167969 C 49.433594 57.265625 45.28125 61.296875 39.109375 67.261719 C 38.972656 67.394531 38.816406 67.457031 38.636719 67.457031 L 23.59375 67.457031 C 23.351562 67.457031 23.316406 67.371094 23.488281 67.199219 C 34.460938 56.308594 41.089844 49.75 43.363281 47.515625 C 46.082031 44.84375 48.453125 43 50.476562 41.992188 C 55.160156 39.660156 61.179688 39.546875 66.792969 39.683594 C 66.988281 39.691406 82.738281 39.6875 114.039062 39.679688 C 114.414062 39.679688 114.46875 39.8125 114.203125 40.078125 L 104.398438 49.878906 C 104.257812 50.023438 104.085938 50.089844 103.886719 50.089844 C 90.925781 50.089844 77.960938 50.089844 64.984375 50.097656 C 64.246094 50.097656 62.886719 50.179688 60.902344 50.34375 C 57.140625 50.644531 54.445312 52.324219 51.558594 55.167969 Z M 116.921875 39.671875 L 133.699219 39.671875 C 133.769531 39.671875 133.820312 39.707031 133.847656 39.773438 C 133.875 39.839844 133.863281 39.898438 133.8125 39.949219 L 106.351562 67.410156 C 106.320312 67.441406 106.285156 67.457031 106.238281 67.457031 L 89.464844 67.457031 C 89.394531 67.457031 89.34375 67.421875 89.316406 67.355469 C 89.289062 67.292969 89.300781 67.234375 89.351562 67.179688 L 116.808594 39.722656 C 116.84375 39.691406 116.878906 39.671875 116.921875 39.671875 Z M 534.390625 62.628906 C 534.269531 62.628906 534.160156 62.671875 534.074219 62.761719 C 533.984375 62.847656 533.941406 62.953125 533.941406 63.078125 L 533.941406 67.597656 C 533.941406 67.789062 533.847656 67.878906 533.660156 67.878906 L 524.507812 67.878906 C 524.410156 67.878906 524.332031 67.847656 524.265625 67.78125 C 524.199219 67.71875 524.164062 67.636719 524.164062 67.546875 L 524.164062 63.035156 C 524.164062 62.917969 524.121094 62.8125 524.039062 62.730469 C 523.953125 62.644531 523.847656 62.605469 523.726562 62.605469 C 519.933594 62.652344 514.230469 62.660156 506.625 62.628906 C 501.984375 62.613281 499.332031 57.644531 502.625 54.148438 C 504.832031 51.808594 508.921875 47.699219 514.894531 41.828125 C 516.703125 40.050781 518.195312 39.640625 520.859375 39.628906 C 525.804688 39.613281 530.898438 38.753906 533.289062 43.988281 C 533.789062 45.089844 534.015625 46.9375 533.960938 49.542969 C 533.929688 51.347656 533.929688 53.257812 533.960938 55.273438 C 533.964844 55.335938 533.988281 55.390625 534.03125 55.433594 C 534.078125 55.480469 534.136719 55.503906 534.195312 55.503906 L 540.746094 55.503906 C 540.8125 55.503906 540.871094 55.527344 540.917969 55.570312 C 540.960938 55.617188 540.984375 55.675781 540.984375 55.742188 L 540.984375 62.398438 C 540.984375 62.550781 540.910156 62.628906 540.757812 62.628906 Z M 523.769531 55.523438 C 523.875 55.523438 523.96875 55.484375 524.042969 55.410156 C 524.121094 55.332031 524.160156 55.238281 524.160156 55.132812 L 524.160156 47.949219 C 524.15625 47.707031 524.089844 47.484375 523.953125 47.28125 C 523.820312 47.082031 523.636719 46.933594 523.414062 46.84375 C 523.183594 46.75 522.953125 46.726562 522.714844 46.773438 C 522.476562 46.820312 522.273438 46.933594 522.101562 47.105469 L 514.265625 54.9375 C 513.875 55.328125 513.953125 55.523438 514.503906 55.523438 Z M 523.769531 55.523438 " fill-opacity="1" fill-rule="nonzero"/><path fill="#ffffff" d="M 169.808594 57.933594 C 178.777344 49.03125 183.707031 44.109375 184.597656 43.171875 C 186.21875 41.46875 187.804688 40.515625 189.351562 40.316406 C 192.988281 39.832031 196.417969 41.738281 197.53125 45.234375 C 197.765625 45.976562 197.882812 47.210938 197.882812 48.929688 C 197.875 60.042969 197.890625 66.222656 197.925781 67.464844 C 197.933594 67.660156 197.835938 67.761719 197.640625 67.761719 L 188.65625 67.761719 C 188.457031 67.761719 188.355469 67.660156 188.355469 67.464844 L 188.355469 51.8125 C 188.355469 51.550781 188.265625 51.511719 188.082031 51.699219 C 187.238281 52.539062 183.546875 56.242188 177.003906 62.8125 C 174.550781 65.277344 172.695312 66.761719 171.445312 67.273438 C 167.308594 68.96875 162.3125 66.550781 160.59375 62.214844 C 160.125 61.03125 159.921875 59.386719 159.996094 57.285156 C 160.007812 56.910156 160.015625 55.082031 160.011719 51.804688 C 160.011719 51.542969 159.917969 51.503906 159.734375 51.6875 L 143.8125 67.609375 C 143.710938 67.710938 143.589844 67.761719 143.441406 67.761719 L 132.070312 67.761719 C 131.792969 67.761719 131.753906 67.664062 131.949219 67.46875 C 132.953125 66.453125 140.757812 58.632812 155.355469 44.023438 C 157.234375 42.144531 158.726562 41.003906 159.835938 40.59375 C 161.84375 39.847656 163.871094 40.074219 165.921875 41.273438 C 168.332031 42.6875 169.535156 44.929688 169.523438 48 C 169.507812 52.457031 169.515625 55.734375 169.542969 57.828125 C 169.550781 58.066406 169.632812 58.101562 169.808594 57.933594 Z M 211.140625 57.398438 C 210.921875 57.398438 210.8125 57.507812 210.8125 57.726562 L 210.8125 67.511719 C 210.8125 67.683594 210.726562 67.765625 210.554688 67.765625 L 201.617188 67.765625 C 201.414062 67.765625 201.308594 67.667969 201.308594 67.46875 C 201.253906 61.152344 201.265625 56.238281 201.332031 52.71875 C 201.363281 51.40625 202.023438 50.023438 203.324219 48.574219 C 203.582031 48.285156 205.679688 46.171875 209.613281 42.230469 C 210.980469 40.863281 212.75 40.175781 214.914062 40.175781 C 220.46875 40.1875 225.992188 40.1875 231.480469 40.175781 C 234.871094 40.171875 237.1875 41.546875 238.425781 44.304688 C 238.921875 45.410156 239.167969 47.054688 239.164062 49.242188 C 239.152344 59.890625 239.167969 65.964844 239.207031 67.464844 C 239.214844 67.660156 239.117188 67.761719 238.917969 67.761719 L 230 67.761719 C 229.773438 67.761719 229.65625 67.648438 229.65625 67.425781 L 229.65625 57.667969 C 229.65625 57.488281 229.566406 57.398438 229.390625 57.398438 Z M 212.160156 50.503906 L 229.042969 50.503906 C 229.4375 50.503906 229.632812 50.308594 229.632812 49.917969 L 229.632812 48.054688 C 229.632812 47.453125 229.335938 47.152344 228.734375 47.152344 L 215.554688 47.152344 C 215.183594 47.152344 214.875 47.28125 214.621094 47.535156 L 212.007812 50.140625 C 211.9375 50.207031 211.921875 50.285156 211.960938 50.375 C 211.996094 50.460938 212.0625 50.503906 212.160156 50.503906 Z M 270.53125 57.890625 C 270.808594 58.175781 270.945312 58.121094 270.945312 57.726562 L 270.945312 40.492188 C 270.945312 40.285156 271.046875 40.183594 271.25 40.183594 L 280.105469 40.183594 C 280.316406 40.183594 280.421875 40.292969 280.421875 40.503906 C 280.46875 46.238281 280.472656 52.070312 280.433594 57.988281 C 280.421875 60.0625 280.167969 61.652344 279.675781 62.746094 C 277.242188 68.15625 270.25 69.457031 265.859375 65.144531 C 261.246094 60.609375 256.765625 56.136719 252.417969 51.714844 C 252.203125 51.496094 252.089844 51.542969 252.089844 51.851562 L 252.089844 67.511719 C 252.089844 67.679688 252.007812 67.761719 251.84375 67.761719 L 242.742188 67.761719 C 242.691406 67.761719 242.644531 67.742188 242.605469 67.707031 C 242.570312 67.664062 242.550781 67.621094 242.554688 67.566406 C 242.570312 61.699219 242.570312 55.953125 242.554688 50.34375 C 242.542969 47.804688 242.707031 46.050781 243.042969 45.070312 C 244.242188 41.53125 248.007812 39.554688 251.601562 40.421875 C 253.839844 40.960938 254.835938 42.160156 256.40625 43.710938 C 261.554688 48.78125 266.261719 53.511719 270.53125 57.890625 Z M 293.375 57.726562 L 293.375 67.511719 C 293.375 67.683594 293.289062 67.765625 293.121094 67.765625 L 284.175781 67.765625 C 283.976562 67.765625 283.875 67.667969 283.867188 67.46875 C 283.820312 61.152344 283.828125 56.238281 283.898438 52.71875 C 283.925781 51.40625 284.589844 50.023438 285.882812 48.574219 C 286.144531 48.285156 288.242188 46.171875 292.175781 42.230469 C 293.542969 40.863281 295.308594 40.175781 297.476562 40.175781 C 303.03125 40.1875 308.554688 40.1875 314.042969 40.175781 C 317.433594 40.171875 319.746094 41.546875 320.988281 44.304688 C 321.480469 45.410156 321.730469 47.054688 321.722656 49.242188 C 321.714844 59.890625 321.730469 65.964844 321.769531 67.464844 C 321.777344 67.660156 321.679688 67.761719 321.480469 67.761719 L 312.5625 67.761719 C 312.332031 67.761719 312.21875 67.648438 312.21875 67.425781 L 312.21875 57.667969 C 312.21875 57.488281 312.132812 57.398438 311.953125 57.398438 L 293.699219 57.398438 C 293.484375 57.398438 293.375 57.507812 293.375 57.726562 Z M 294.71875 50.507812 L 311.613281 50.503906 C 312.007812 50.503906 312.203125 50.308594 312.203125 49.917969 L 312.199219 48.054688 C 312.199219 47.453125 311.898438 47.152344 311.296875 47.152344 L 298.113281 47.152344 C 297.742188 47.152344 297.429688 47.28125 297.175781 47.535156 L 294.5625 50.148438 C 294.496094 50.210938 294.480469 50.289062 294.515625 50.378906 C 294.554688 50.46875 294.621094 50.511719 294.71875 50.507812 Z M 353.582031 58.242188 C 353.640625 57.675781 353.386719 57.390625 352.8125 57.390625 L 338.28125 57.390625 C 338.210938 57.390625 338.148438 57.367188 338.097656 57.3125 C 338.046875 57.261719 338.023438 57.199219 338.023438 57.125 L 338.023438 50.816406 C 338.023438 50.605469 338.128906 50.5 338.339844 50.5 L 362.660156 50.5 C 362.871094 50.5 362.980469 50.605469 362.988281 50.816406 C 363.019531 52.140625 363.039062 54.910156 363.046875 59.117188 C 363.050781 61.175781 362.757812 62.734375 362.160156 63.785156 C 360.65625 66.457031 358.378906 67.789062 355.328125 67.777344 C 355.289062 67.777344 348.175781 67.769531 333.992188 67.761719 C 331.886719 67.761719 330.339844 67.523438 329.351562 67.050781 C 327.816406 66.3125 326.664062 65.175781 325.902344 63.640625 C 325.398438 62.613281 325.144531 61.097656 325.144531 59.085938 C 325.132812 52.605469 325.125 49.339844 325.125 49.292969 C 325.0625 47.007812 325.3125 45.335938 325.878906 44.285156 C 326.878906 42.445312 328.273438 41.238281 330.070312 40.644531 C 331.023438 40.332031 332.753906 40.179688 335.273438 40.183594 C 339.605469 40.1875 348.769531 40.1875 362.753906 40.1875 C 362.933594 40.1875 363.023438 40.28125 363.023438 40.460938 L 363.023438 46.746094 C 363.023438 47.015625 362.890625 47.152344 362.621094 47.152344 C 350.277344 47.144531 341.515625 47.144531 336.316406 47.152344 C 334.742188 47.15625 334.636719 47.832031 334.648438 49.167969 C 334.65625 50.976562 334.65625 54.398438 334.652344 59.429688 C 334.652344 60.382812 335.132812 60.863281 336.089844 60.863281 L 352.253906 60.863281 C 352.949219 60.863281 353.335938 60.515625 353.410156 59.824219 Z M 404.292969 46.949219 C 404.292969 47.003906 404.273438 47.054688 404.234375 47.09375 C 404.199219 47.132812 404.152344 47.152344 404.097656 47.152344 L 366.742188 47.152344 C 366.632812 47.15625 366.546875 47.109375 366.476562 47.027344 C 366.410156 46.945312 366.386719 46.847656 366.40625 46.742188 C 366.992188 43.765625 368.453125 41.800781 370.789062 40.851562 C 371.890625 40.402344 374.101562 40.175781 377.429688 40.175781 C 386.328125 40.1875 395.21875 40.1875 404.105469 40.183594 C 404.15625 40.183594 404.199219 40.199219 404.238281 40.242188 C 404.277344 40.28125 404.292969 40.324219 404.292969 40.378906 Z M 435.367188 50.402344 L 438.578125 47.1875 C 438.589844 47.175781 438.589844 47.167969 438.582031 47.15625 C 438.578125 47.144531 438.570312 47.144531 438.558594 47.144531 L 408.003906 47.144531 C 407.90625 47.144531 407.824219 47.105469 407.761719 47.027344 C 407.699219 46.949219 407.675781 46.863281 407.695312 46.765625 C 408.261719 43.769531 409.71875 41.800781 412.066406 40.84375 C 413.171875 40.398438 415.390625 40.175781 418.71875 40.175781 C 425.222656 40.1875 434.105469 40.1875 445.367188 40.1875 C 450.277344 40.183594 452.5625 45.3125 448.976562 48.847656 C 445.363281 52.417969 442.566406 55.214844 440.601562 57.234375 C 440.476562 57.367188 440.476562 57.492188 440.601562 57.613281 L 450.496094 67.511719 C 450.542969 67.558594 450.554688 67.613281 450.53125 67.671875 C 450.507812 67.730469 450.460938 67.761719 450.394531 67.761719 L 438.929688 67.761719 C 438.777344 67.761719 438.648438 67.707031 438.542969 67.605469 L 428.542969 57.605469 C 428.402344 57.464844 428.238281 57.398438 428.042969 57.398438 L 417.53125 57.398438 C 417.3125 57.398438 417.207031 57.503906 417.207031 57.71875 L 417.207031 67.515625 C 417.207031 67.679688 417.125 67.761719 416.96875 67.761719 L 407.988281 67.761719 C 407.78125 67.761719 407.675781 67.660156 407.675781 67.457031 L 407.675781 50.855469 C 407.675781 50.757812 407.710938 50.679688 407.78125 50.609375 C 407.847656 50.539062 407.933594 50.503906 408.03125 50.503906 L 435.109375 50.503906 C 435.207031 50.503906 435.292969 50.472656 435.367188 50.402344 Z M 376.710938 57.390625 C 376.175781 57.390625 375.910156 57.65625 375.910156 58.183594 L 375.910156 59.597656 C 375.910156 59.765625 375.945312 59.925781 376.007812 60.085938 C 376.070312 60.238281 376.164062 60.375 376.28125 60.496094 C 376.402344 60.613281 376.539062 60.707031 376.695312 60.773438 C 376.851562 60.835938 377.015625 60.867188 377.183594 60.867188 L 404.0625 60.867188 C 404.214844 60.867188 404.292969 60.949219 404.292969 61.101562 L 404.292969 67.527344 C 404.292969 67.59375 404.269531 67.644531 404.226562 67.691406 C 404.183594 67.734375 404.128906 67.753906 404.066406 67.753906 C 388.632812 67.753906 379.039062 67.769531 375.296875 67.792969 C 373.1875 67.8125 371.613281 67.558594 370.582031 67.035156 C 369.015625 66.242188 367.859375 65.066406 367.113281 63.507812 C 366.625 62.507812 366.382812 60.976562 366.382812 58.910156 C 366.386719 56.726562 366.390625 53.996094 366.398438 50.726562 C 366.398438 50.667969 366.421875 50.617188 366.464844 50.574219 C 366.503906 50.53125 366.558594 50.507812 366.617188 50.507812 L 395.460938 50.507812 C 395.625 50.507812 395.703125 50.589844 395.703125 50.746094 L 395.703125 56.976562 C 395.703125 57.253906 395.566406 57.390625 395.292969 57.390625 Z M 376.710938 57.390625 " fill-opacity="1" fill-rule="nonzero"/><path fill="#e10600" d="M 102.347656 51.90625 L 93.03125 61.226562 C 92.894531 61.363281 92.730469 61.429688 92.539062 61.433594 C 89.710938 61.449219 81.609375 61.457031 68.230469 61.457031 C 64.707031 61.460938 62.621094 61.257812 60.433594 63.363281 C 59.109375 64.636719 57.808594 65.933594 56.523438 67.246094 C 56.386719 67.386719 56.222656 67.457031 56.027344 67.457031 L 42.175781 67.457031 C 41.941406 67.457031 41.90625 67.375 42.070312 67.210938 C 48.75 60.453125 52.660156 56.503906 53.796875 55.375 C 56.691406 52.503906 60.398438 51.753906 64.308594 51.738281 C 71.039062 51.703125 83.695312 51.691406 102.265625 51.703125 C 102.320312 51.707031 102.355469 51.730469 102.371094 51.78125 C 102.394531 51.828125 102.382812 51.867188 102.347656 51.90625 Z M 102.347656 51.90625 " fill-opacity="1" fill-rule="nonzero"/></svg>