<svg xmlns="http://www.w3.org/2000/svg" xmlns:xlink="http://www.w3.org/1999/xlink" width="1000" zoomAndPan="magnify" viewBox="0 0 750 149.999998" height="200" preserveAspectRatio="xMidYMid meet" version="1.0"><path fill="#ffffff" d="M 620.539062 61.4375 C 620.539062 61.96875 620.804688 62.234375 621.335938 62.234375 L 658.050781 62.234375 C 658.21875 62.234375 658.359375 62.292969 658.480469 62.410156 C 658.597656 62.527344 658.65625 62.667969 658.65625 62.832031 L 658.65625 71.101562 C 658.65625 71.207031 658.617188 71.296875 658.542969 71.371094 C 658.464844 71.445312 658.375 71.484375 658.265625 71.484375 L 608.386719 71.484375 C 608.222656 71.484375 608.082031 71.425781 607.964844 71.3125 C 607.847656 71.199219 607.785156 71.058594 607.785156 70.894531 C 607.738281 66.476562 607.714844 62.738281 607.71875 59.683594 C 607.726562 56.984375 608.082031 54.988281 608.792969 53.695312 C 611.28125 49.171875 614.636719 48.382812 619.964844 48.390625 C 629.4375 48.402344 637.285156 48.390625 643.503906 48.363281 C 644.726562 48.359375 645.519531 47.671875 645.878906 46.300781 C 645.882812 46.277344 645.886719 46.246094 645.886719 46.207031 C 645.730469 44.617188 644.917969 43.820312 643.449219 43.820312 L 608.210938 43.839844 C 608.085938 43.839844 607.980469 43.796875 607.894531 43.710938 C 607.804688 43.621094 607.761719 43.515625 607.761719 43.394531 L 607.761719 34.847656 C 607.761719 34.746094 607.800781 34.660156 607.871094 34.585938 C 607.945312 34.515625 608.03125 34.480469 608.132812 34.484375 C 617.949219 34.503906 630.96875 34.503906 647.1875 34.492188 C 652.03125 34.492188 656.246094 37.527344 657.9375 42.15625 C 660.691406 49.671875 655.257812 57.511719 646.996094 57.640625 C 644.75 57.675781 637.109375 57.683594 624.074219 57.671875 C 623.167969 57.671875 622.351562 57.722656 621.628906 57.828125 C 620.902344 57.925781 620.539062 58.339844 620.539062 59.0625 Z M 74.675781 54.855469 C 71.894531 57.597656 66.460938 62.875 58.378906 70.679688 C 58.203125 70.851562 58 70.9375 57.761719 70.9375 L 38.074219 70.9375 C 37.757812 70.9375 37.710938 70.824219 37.933594 70.597656 C 52.300781 56.347656 60.96875 47.761719 63.949219 44.835938 C 67.507812 41.339844 70.613281 38.929688 73.261719 37.605469 C 79.390625 34.554688 87.269531 34.40625 94.613281 34.582031 C 94.875 34.59375 115.488281 34.589844 156.457031 34.578125 C 156.945312 34.578125 157.015625 34.753906 156.667969 35.101562 L 143.835938 47.929688 C 143.652344 48.113281 143.425781 48.207031 143.167969 48.207031 C 126.203125 48.203125 109.230469 48.203125 92.246094 48.214844 C 91.28125 48.214844 89.503906 48.320312 86.90625 48.535156 C 81.976562 48.933594 78.453125 51.128906 74.675781 54.855469 Z M 160.230469 34.570312 L 182.1875 34.570312 C 182.28125 34.570312 182.34375 34.613281 182.382812 34.703125 C 182.417969 34.789062 182.402344 34.863281 182.335938 34.933594 L 146.394531 70.875 C 146.355469 70.914062 146.304688 70.9375 146.246094 70.9375 L 124.289062 70.9375 C 124.195312 70.9375 124.132812 70.890625 124.097656 70.804688 C 124.058594 70.71875 124.074219 70.640625 124.140625 70.574219 L 160.082031 34.632812 C 160.121094 34.589844 160.171875 34.570312 160.230469 34.570312 Z M 706.648438 64.617188 C 706.484375 64.617188 706.347656 64.675781 706.230469 64.789062 C 706.117188 64.90625 706.058594 65.042969 706.058594 65.207031 L 706.058594 71.121094 C 706.058594 71.367188 705.933594 71.492188 705.6875 71.492188 L 693.707031 71.492188 C 693.585938 71.492188 693.480469 71.449219 693.390625 71.363281 C 693.304688 71.277344 693.261719 71.171875 693.261719 71.050781 L 693.261719 65.148438 C 693.261719 64.992188 693.203125 64.859375 693.09375 64.75 C 692.980469 64.640625 692.847656 64.585938 692.691406 64.589844 C 687.722656 64.648438 680.261719 64.660156 670.300781 64.617188 C 664.230469 64.59375 660.761719 58.089844 665.070312 53.519531 C 667.957031 50.449219 673.308594 45.074219 681.132812 37.390625 C 683.5 35.066406 685.445312 34.527344 688.9375 34.511719 C 695.40625 34.492188 702.078125 33.367188 705.207031 40.222656 C 705.859375 41.660156 706.152344 44.082031 706.085938 47.488281 C 706.042969 49.855469 706.042969 52.355469 706.085938 54.988281 C 706.089844 55.074219 706.121094 55.144531 706.179688 55.199219 C 706.238281 55.257812 706.308594 55.289062 706.394531 55.289062 L 714.96875 55.289062 C 715.054688 55.289062 715.128906 55.320312 715.1875 55.378906 C 715.25 55.441406 715.28125 55.515625 715.28125 55.601562 L 715.28125 64.316406 C 715.28125 64.515625 715.179688 64.617188 714.980469 64.617188 Z M 692.742188 55.316406 C 692.882812 55.316406 693.003906 55.265625 693.101562 55.167969 C 693.203125 55.066406 693.253906 54.945312 693.253906 54.804688 L 693.253906 45.40625 C 693.253906 45.085938 693.164062 44.796875 692.984375 44.53125 C 692.808594 44.265625 692.570312 44.074219 692.277344 43.953125 C 691.980469 43.832031 691.675781 43.800781 691.367188 43.863281 C 691.054688 43.925781 690.785156 44.070312 690.558594 44.296875 L 680.304688 54.546875 C 679.792969 55.0625 679.898438 55.316406 680.617188 55.316406 Z M 692.742188 55.316406 " fill-opacity="1" fill-rule="nonzero"/><path fill="#ffffff" d="M 229.445312 58.472656 C 241.1875 46.816406 247.640625 40.375 248.808594 39.148438 C 250.929688 36.921875 253.003906 35.675781 255.027344 35.410156 C 259.792969 34.777344 264.277344 37.269531 265.734375 41.851562 C 266.042969 42.820312 266.199219 44.433594 266.199219 46.683594 C 266.183594 61.230469 266.203125 69.320312 266.253906 70.945312 C 266.261719 71.203125 266.132812 71.335938 265.878906 71.335938 L 254.117188 71.335938 C 253.859375 71.335938 253.726562 71.203125 253.726562 70.945312 L 253.726562 50.460938 C 253.726562 50.113281 253.605469 50.066406 253.363281 50.3125 C 252.265625 51.410156 247.433594 56.261719 238.867188 64.859375 C 235.652344 68.082031 233.230469 70.027344 231.59375 70.695312 C 226.175781 72.914062 219.640625 69.75 217.386719 64.074219 C 216.773438 62.527344 216.511719 60.375 216.605469 57.621094 C 216.625 57.132812 216.632812 54.742188 216.628906 50.445312 C 216.628906 50.105469 216.507812 50.054688 216.265625 50.296875 L 195.425781 71.136719 C 195.292969 71.269531 195.132812 71.335938 194.941406 71.335938 L 180.054688 71.335938 C 179.695312 71.335938 179.640625 71.207031 179.898438 70.953125 C 181.210938 69.621094 191.421875 59.390625 210.535156 40.265625 C 212.988281 37.808594 214.945312 36.3125 216.398438 35.769531 C 219.027344 34.800781 221.679688 35.097656 224.363281 36.667969 C 227.519531 38.515625 229.089844 41.449219 229.078125 45.46875 C 229.058594 51.304688 229.066406 55.589844 229.105469 58.332031 C 229.109375 58.644531 229.222656 58.691406 229.445312 58.472656 Z M 283.546875 57.769531 C 283.261719 57.769531 283.121094 57.914062 283.121094 58.203125 L 283.121094 71.007812 C 283.121094 71.230469 283.007812 71.34375 282.785156 71.34375 L 271.082031 71.34375 C 270.816406 71.34375 270.683594 71.210938 270.679688 70.953125 C 270.613281 62.683594 270.625 56.25 270.714844 51.648438 C 270.75 49.925781 271.617188 48.117188 273.316406 46.222656 C 273.65625 45.84375 276.402344 43.074219 281.550781 37.917969 C 283.339844 36.125 285.652344 35.230469 288.488281 35.230469 C 295.757812 35.242188 302.988281 35.242188 310.171875 35.230469 C 314.609375 35.222656 317.640625 37.023438 319.261719 40.632812 C 319.910156 42.082031 320.230469 44.234375 320.226562 47.097656 C 320.214844 61.03125 320.230469 68.980469 320.285156 70.945312 C 320.292969 71.203125 320.167969 71.335938 319.90625 71.335938 L 308.234375 71.335938 C 307.933594 71.335938 307.785156 71.1875 307.785156 70.894531 L 307.785156 58.125 C 307.785156 57.886719 307.667969 57.769531 307.4375 57.769531 Z M 284.882812 48.746094 L 306.980469 48.746094 C 307.496094 48.746094 307.757812 48.492188 307.757812 47.980469 L 307.757812 45.539062 C 307.757812 44.753906 307.363281 44.359375 306.574219 44.359375 L 289.328125 44.359375 C 288.84375 44.359375 288.4375 44.527344 288.105469 44.859375 L 284.683594 48.269531 C 284.59375 48.359375 284.574219 48.460938 284.621094 48.578125 C 284.671875 48.691406 284.757812 48.75 284.882812 48.746094 Z M 361.289062 58.417969 C 361.648438 58.789062 361.828125 58.71875 361.828125 58.195312 L 361.828125 35.644531 C 361.828125 35.371094 361.960938 35.238281 362.226562 35.238281 L 373.816406 35.238281 C 374.089844 35.238281 374.226562 35.378906 374.226562 35.65625 C 374.289062 43.164062 374.296875 50.792969 374.25 58.542969 C 374.230469 61.261719 373.898438 63.335938 373.253906 64.773438 C 370.070312 71.855469 360.917969 73.554688 355.164062 67.910156 C 349.132812 61.972656 343.269531 56.117188 337.574219 50.332031 C 337.292969 50.042969 337.148438 50.101562 337.148438 50.511719 L 337.148438 71.007812 C 337.148438 71.226562 337.039062 71.335938 336.820312 71.335938 L 324.914062 71.335938 C 324.84375 71.335938 324.78125 71.308594 324.734375 71.261719 C 324.683594 71.210938 324.660156 71.148438 324.664062 71.078125 C 324.6875 63.394531 324.6875 55.878906 324.664062 48.535156 C 324.65625 45.214844 324.867188 42.917969 325.304688 41.636719 C 326.875 37 331.800781 34.414062 336.507812 35.550781 C 339.4375 36.253906 340.738281 37.824219 342.792969 39.851562 C 349.535156 46.492188 355.699219 52.679688 361.289062 58.417969 Z M 391.183594 58.203125 L 391.183594 71.007812 C 391.183594 71.230469 391.074219 71.34375 390.851562 71.34375 L 379.148438 71.34375 C 378.882812 71.34375 378.746094 71.210938 378.742188 70.953125 C 378.675781 62.683594 378.6875 56.25 378.777344 51.648438 C 378.816406 49.925781 379.683594 48.117188 381.378906 46.222656 C 381.722656 45.84375 384.464844 43.074219 389.613281 37.917969 C 391.40625 36.125 393.71875 35.230469 396.554688 35.230469 C 403.824219 35.242188 411.054688 35.242188 418.238281 35.230469 C 422.675781 35.222656 425.703125 37.023438 427.324219 40.632812 C 427.976562 42.082031 428.296875 44.234375 428.292969 47.097656 C 428.277344 61.03125 428.296875 68.980469 428.347656 70.945312 C 428.359375 71.203125 428.234375 71.335938 427.972656 71.335938 L 416.296875 71.335938 C 416 71.335938 415.851562 71.1875 415.851562 70.894531 L 415.851562 58.125 C 415.851562 57.886719 415.734375 57.769531 415.5 57.769531 L 391.613281 57.769531 C 391.328125 57.769531 391.183594 57.914062 391.183594 58.203125 Z M 392.941406 48.753906 L 415.054688 48.746094 C 415.570312 48.746094 415.828125 48.492188 415.828125 47.980469 L 415.820312 45.539062 C 415.820312 44.753906 415.429688 44.359375 414.640625 44.359375 L 397.386719 44.359375 C 396.902344 44.359375 396.492188 44.527344 396.164062 44.859375 L 392.742188 48.277344 C 392.652344 48.367188 392.628906 48.46875 392.679688 48.582031 C 392.726562 48.699219 392.816406 48.757812 392.941406 48.753906 Z M 469.984375 58.878906 C 470.066406 58.132812 469.730469 57.761719 468.984375 57.761719 L 449.964844 57.761719 C 449.871094 57.761719 449.789062 57.726562 449.722656 57.660156 C 449.65625 57.59375 449.621094 57.511719 449.621094 57.414062 L 449.621094 49.152344 C 449.621094 48.878906 449.757812 48.738281 450.035156 48.738281 L 481.875 48.738281 C 482.148438 48.738281 482.289062 48.878906 482.300781 49.152344 C 482.34375 50.890625 482.367188 54.515625 482.378906 60.023438 C 482.382812 62.714844 481.996094 64.75 481.21875 66.132812 C 479.246094 69.628906 476.265625 71.371094 472.273438 71.355469 C 472.222656 71.351562 462.914062 71.34375 444.347656 71.335938 C 441.59375 71.335938 439.570312 71.023438 438.273438 70.402344 C 436.261719 69.4375 434.753906 67.949219 433.761719 65.9375 C 433.101562 64.597656 432.769531 62.613281 432.765625 59.980469 C 432.75 51.496094 432.742188 47.222656 432.742188 47.160156 C 432.65625 44.171875 432.988281 41.984375 433.730469 40.605469 C 435.035156 38.203125 436.863281 36.613281 439.214844 35.84375 C 440.460938 35.433594 442.730469 35.234375 446.023438 35.238281 C 451.699219 35.242188 463.6875 35.246094 481.992188 35.246094 C 482.230469 35.246094 482.347656 35.363281 482.347656 35.601562 L 482.347656 43.828125 C 482.347656 44.183594 482.171875 44.359375 481.816406 44.359375 C 465.667969 44.347656 454.191406 44.347656 447.390625 44.359375 C 445.328125 44.367188 445.191406 45.25 445.207031 46.996094 C 445.214844 49.363281 445.21875 53.839844 445.214844 60.429688 C 445.214844 61.679688 445.839844 62.304688 447.089844 62.304688 L 468.25 62.304688 C 469.160156 62.304688 469.664062 61.851562 469.765625 60.949219 Z M 536.363281 44.097656 C 536.363281 44.167969 536.339844 44.230469 536.289062 44.28125 C 536.238281 44.335938 536.179688 44.359375 536.109375 44.359375 L 487.210938 44.359375 C 487.070312 44.359375 486.957031 44.304688 486.867188 44.195312 C 486.777344 44.085938 486.746094 43.960938 486.773438 43.820312 C 487.539062 39.929688 489.453125 37.359375 492.507812 36.113281 C 493.949219 35.523438 496.847656 35.230469 501.207031 35.230469 C 512.847656 35.246094 524.484375 35.246094 536.117188 35.238281 C 536.183594 35.238281 536.242188 35.261719 536.292969 35.3125 C 536.339844 35.363281 536.363281 35.421875 536.363281 35.492188 Z M 577.035156 48.613281 L 581.242188 44.402344 C 581.25 44.390625 581.253906 44.378906 581.246094 44.367188 C 581.238281 44.351562 581.230469 44.347656 581.214844 44.347656 L 541.21875 44.347656 C 541.089844 44.347656 540.984375 44.296875 540.902344 44.195312 C 540.820312 44.097656 540.789062 43.984375 540.816406 43.855469 C 541.558594 39.933594 543.46875 37.351562 546.539062 36.105469 C 547.984375 35.523438 550.886719 35.230469 555.25 35.230469 C 563.761719 35.242188 575.386719 35.246094 590.121094 35.246094 C 596.550781 35.238281 599.542969 41.949219 594.851562 46.578125 C 590.117188 51.253906 586.460938 54.910156 583.886719 57.554688 C 583.722656 57.726562 583.722656 57.894531 583.886719 58.054688 L 596.84375 71.007812 C 596.902344 71.070312 596.914062 71.136719 596.882812 71.214844 C 596.851562 71.296875 596.792969 71.335938 596.707031 71.335938 L 581.699219 71.335938 C 581.5 71.335938 581.332031 71.265625 581.191406 71.128906 L 568.101562 58.039062 C 567.921875 57.859375 567.707031 57.769531 567.449219 57.769531 L 553.691406 57.769531 C 553.40625 57.769531 553.265625 57.910156 553.265625 58.1875 L 553.265625 71.015625 C 553.265625 71.230469 553.160156 71.335938 552.953125 71.335938 L 541.199219 71.335938 C 540.929688 71.335938 540.792969 71.203125 540.792969 70.9375 L 540.792969 49.210938 C 540.792969 49.082031 540.839844 48.972656 540.929688 48.882812 C 541.019531 48.792969 541.128906 48.746094 541.257812 48.746094 L 576.699219 48.746094 C 576.828125 48.746094 576.9375 48.703125 577.035156 48.613281 Z M 500.257812 57.761719 C 499.5625 57.761719 499.214844 58.109375 499.214844 58.800781 L 499.214844 60.648438 C 499.214844 60.871094 499.257812 61.082031 499.339844 61.285156 C 499.425781 61.488281 499.546875 61.667969 499.703125 61.824219 C 499.859375 61.980469 500.039062 62.101562 500.242188 62.1875 C 500.445312 62.269531 500.65625 62.3125 500.878906 62.3125 L 536.058594 62.3125 C 536.261719 62.3125 536.363281 62.414062 536.363281 62.617188 L 536.363281 71.03125 C 536.363281 71.113281 536.335938 71.183594 536.277344 71.242188 C 536.21875 71.300781 536.148438 71.328125 536.066406 71.328125 C 515.863281 71.328125 503.3125 71.34375 498.410156 71.378906 C 495.648438 71.402344 493.589844 71.070312 492.238281 70.382812 C 490.191406 69.34375 488.675781 67.804688 487.695312 65.769531 C 487.0625 64.460938 486.742188 62.453125 486.742188 59.753906 C 486.75 56.890625 486.753906 53.320312 486.765625 49.039062 C 486.765625 48.960938 486.792969 48.894531 486.847656 48.835938 C 486.902344 48.78125 486.972656 48.753906 487.050781 48.753906 L 524.804688 48.753906 C 525.015625 48.753906 525.125 48.859375 525.125 49.066406 L 525.125 57.222656 C 525.125 57.582031 524.941406 57.761719 524.582031 57.761719 Z M 500.257812 57.761719 " fill-opacity="1" fill-rule="nonzero"/><path fill="#ffffff" d="M 141.15625 50.582031 L 128.953125 62.78125 C 128.777344 62.957031 128.566406 63.046875 128.3125 63.050781 C 124.613281 63.070312 114.007812 63.082031 96.496094 63.082031 C 91.882812 63.085938 89.152344 62.824219 86.292969 65.578125 C 84.558594 67.246094 82.851562 68.9375 81.175781 70.660156 C 80.996094 70.84375 80.777344 70.9375 80.519531 70.9375 L 62.390625 70.9375 C 62.085938 70.9375 62.042969 70.832031 62.253906 70.617188 C 71 61.769531 76.117188 56.601562 77.605469 55.125 C 81.394531 51.363281 86.246094 50.382812 91.363281 50.359375 C 100.175781 50.3125 116.738281 50.300781 141.046875 50.316406 C 141.113281 50.320312 141.160156 50.355469 141.1875 50.414062 C 141.210938 50.476562 141.199219 50.53125 141.15625 50.582031 Z M 141.15625 50.582031 " fill-opacity="1" fill-rule="nonzero"/><path fill="#ffffff" d="M 500.777344 102.753906 C 501.007812 103.011719 501.121094 102.96875 501.121094 102.625 L 501.121094 92.816406 C 501.121094 92.578125 501.238281 92.460938 501.476562 92.460938 L 509.070312 92.488281 C 509.234375 92.488281 509.324219 92.660156 509.332031 93.007812 C 509.335938 93.28125 509.335938 98.441406 509.332031 108.484375 C 509.328125 110.585938 509.023438 112.082031 508.421875 112.972656 C 506.125 116.363281 501.390625 114.085938 499.023438 111.59375 C 497.332031 109.816406 494.945312 107.296875 491.863281 104.035156 C 491.8125 103.976562 491.75 103.964844 491.679688 103.992188 C 491.609375 104.019531 491.578125 104.074219 491.578125 104.148438 L 491.578125 114.195312 C 491.578125 114.394531 491.480469 114.492188 491.285156 114.492188 L 484.046875 114.492188 C 483.8125 114.492188 483.691406 114.375 483.691406 114.136719 C 483.660156 107.070312 483.675781 100.992188 483.742188 95.90625 C 483.757812 94.902344 484.484375 93.921875 485.917969 92.964844 C 488.363281 91.328125 491.242188 92.445312 493.234375 94.578125 C 497.023438 98.644531 499.535156 101.371094 500.777344 102.753906 Z M 336.59375 103.515625 C 336.59375 104.769531 336.585938 105.78125 336.574219 106.542969 C 336.570312 106.714844 336.480469 106.800781 336.308594 106.800781 L 324.257812 106.800781 C 324.011719 106.800781 323.890625 106.921875 323.890625 107.167969 L 323.890625 107.410156 C 323.890625 107.640625 324.003906 107.753906 324.230469 107.753906 L 336.304688 107.753906 C 336.472656 107.753906 336.558594 107.839844 336.558594 108.007812 L 336.558594 114.292969 C 336.558594 114.449219 336.480469 114.527344 336.324219 114.527344 L 316.273438 114.527344 C 316.1875 114.527344 316.113281 114.496094 316.050781 114.433594 C 315.988281 114.371094 315.960938 114.296875 315.960938 114.207031 C 315.976562 112.628906 315.988281 109.046875 316.003906 103.457031 C 316.023438 97.863281 316.03125 94.28125 316.023438 92.707031 C 316.023438 92.621094 316.054688 92.546875 316.113281 92.480469 C 316.175781 92.417969 316.25 92.386719 316.339844 92.386719 L 336.386719 92.507812 C 336.542969 92.507812 336.621094 92.585938 336.621094 92.742188 L 336.585938 99.027344 C 336.585938 99.199219 336.503906 99.285156 336.332031 99.285156 L 324.257812 99.207031 C 324.03125 99.207031 323.914062 99.320312 323.910156 99.546875 L 323.910156 99.789062 C 323.910156 100.035156 324.035156 100.160156 324.28125 100.160156 L 336.332031 100.238281 C 336.503906 100.238281 336.589844 100.324219 336.59375 100.492188 C 336.597656 101.257812 336.597656 102.265625 336.59375 103.515625 Z M 369.136719 92.367188 C 372.417969 92.382812 374.851562 94.382812 376.4375 98.375 C 379.730469 106.636719 381.824219 111.921875 382.722656 114.230469 C 382.820312 114.460938 382.742188 114.578125 382.488281 114.578125 L 375.050781 114.578125 C 374.769531 114.578125 374.578125 114.449219 374.484375 114.1875 L 373.167969 110.617188 C 373.078125 110.375 372.90625 110.238281 372.65625 110.199219 C 372.308594 110.148438 371.105469 110.117188 369.042969 110.105469 C 366.976562 110.097656 365.773438 110.117188 365.425781 110.164062 C 365.175781 110.195312 365 110.332031 364.90625 110.574219 L 363.554688 114.128906 C 363.457031 114.390625 363.265625 114.519531 362.980469 114.515625 L 355.550781 114.4375 C 355.296875 114.429688 355.21875 114.316406 355.316406 114.085938 C 356.238281 111.789062 358.390625 106.523438 361.765625 98.296875 C 363.394531 94.324219 365.851562 92.347656 369.136719 92.367188 Z M 370.464844 103.359375 L 369.144531 100.203125 C 368.972656 99.785156 368.808594 99.789062 368.652344 100.210938 L 367.574219 103.214844 C 367.476562 103.46875 367.566406 103.59375 367.835938 103.59375 L 370.308594 103.59375 C 370.371094 103.59375 370.417969 103.566406 370.449219 103.515625 C 370.484375 103.46875 370.488281 103.414062 370.464844 103.359375 Z M 464.867188 103.960938 C 464.835938 104.6875 464.730469 105.40625 464.546875 106.113281 C 464.363281 106.820312 464.109375 107.503906 463.785156 108.164062 C 463.457031 108.824219 463.066406 109.445312 462.609375 110.035156 C 462.152344 110.621094 461.636719 111.160156 461.066406 111.648438 C 460.492188 112.140625 459.875 112.574219 459.214844 112.949219 C 458.550781 113.328125 457.855469 113.636719 457.125 113.886719 C 456.394531 114.132812 455.648438 114.3125 454.878906 114.417969 C 454.113281 114.527344 453.339844 114.566406 452.566406 114.53125 C 451.789062 114.5 451.023438 114.394531 450.269531 114.21875 C 449.511719 114.042969 448.785156 113.800781 448.078125 113.492188 C 447.375 113.179688 446.707031 112.808594 446.078125 112.375 C 445.453125 111.945312 444.875 111.457031 444.347656 110.917969 C 443.824219 110.382812 443.355469 109.800781 442.953125 109.175781 C 442.546875 108.550781 442.210938 107.894531 441.945312 107.210938 C 441.675781 106.523438 441.480469 105.820312 441.363281 105.101562 C 441.242188 104.378906 441.199219 103.65625 441.230469 102.929688 C 441.261719 102.199219 441.367188 101.480469 441.550781 100.773438 C 441.734375 100.066406 441.988281 99.382812 442.3125 98.722656 C 442.640625 98.066406 443.03125 97.441406 443.492188 96.855469 C 443.949219 96.269531 444.460938 95.730469 445.035156 95.238281 C 445.605469 94.746094 446.222656 94.3125 446.886719 93.9375 C 447.546875 93.5625 448.242188 93.25 448.972656 93.003906 C 449.703125 92.753906 450.449219 92.578125 451.21875 92.46875 C 451.984375 92.359375 452.757812 92.320312 453.535156 92.355469 C 454.308594 92.390625 455.074219 92.496094 455.828125 92.667969 C 456.585938 92.84375 457.316406 93.085938 458.019531 93.398438 C 458.726562 93.707031 459.390625 94.078125 460.019531 94.511719 C 460.644531 94.945312 461.222656 95.429688 461.75 95.96875 C 462.277344 96.507812 462.742188 97.089844 463.144531 97.714844 C 463.550781 98.335938 463.886719 98.992188 464.15625 99.675781 C 464.421875 100.363281 464.617188 101.066406 464.738281 101.785156 C 464.855469 102.507812 464.902344 103.230469 464.867188 103.960938 Z M 457.394531 103.472656 C 457.394531 103.191406 457.367188 102.910156 457.3125 102.632812 C 457.253906 102.355469 457.171875 102.085938 457.066406 101.824219 C 456.957031 101.5625 456.824219 101.3125 456.667969 101.078125 C 456.511719 100.84375 456.332031 100.625 456.132812 100.425781 C 455.929688 100.226562 455.714844 100.046875 455.476562 99.890625 C 455.242188 99.734375 454.996094 99.601562 454.734375 99.492188 C 454.472656 99.382812 454.203125 99.300781 453.925781 99.246094 C 453.648438 99.191406 453.367188 99.164062 453.085938 99.164062 C 452.800781 99.164062 452.523438 99.191406 452.246094 99.246094 C 451.964844 99.300781 451.695312 99.382812 451.4375 99.492188 C 451.175781 99.601562 450.925781 99.734375 450.691406 99.890625 C 450.457031 100.046875 450.238281 100.226562 450.039062 100.425781 C 449.839844 100.625 449.660156 100.84375 449.503906 101.078125 C 449.34375 101.3125 449.210938 101.5625 449.105469 101.824219 C 448.996094 102.085938 448.914062 102.355469 448.859375 102.632812 C 448.804688 102.910156 448.777344 103.191406 448.777344 103.472656 C 448.777344 103.753906 448.804688 104.035156 448.859375 104.3125 C 448.914062 104.589844 448.996094 104.859375 449.105469 105.121094 C 449.210938 105.382812 449.34375 105.632812 449.503906 105.867188 C 449.660156 106.101562 449.839844 106.320312 450.039062 106.519531 C 450.238281 106.71875 450.457031 106.898438 450.691406 107.054688 C 450.925781 107.210938 451.175781 107.34375 451.4375 107.453125 C 451.699219 107.5625 451.964844 107.644531 452.246094 107.699219 C 452.523438 107.753906 452.800781 107.78125 453.085938 107.78125 C 453.367188 107.78125 453.648438 107.753906 453.925781 107.699219 C 454.203125 107.644531 454.472656 107.5625 454.734375 107.453125 C 454.996094 107.34375 455.242188 107.210938 455.476562 107.054688 C 455.714844 106.898438 455.929688 106.71875 456.132812 106.519531 C 456.332031 106.320312 456.511719 106.101562 456.667969 105.867188 C 456.824219 105.632812 456.957031 105.382812 457.066406 105.121094 C 457.171875 104.859375 457.253906 104.589844 457.3125 104.3125 C 457.367188 104.035156 457.394531 103.753906 457.394531 103.472656 Z M 556.542969 92.601562 C 556.542969 92.464844 556.609375 92.394531 556.75 92.394531 L 568.566406 92.4375 C 569.285156 92.441406 570 92.507812 570.707031 92.644531 C 571.414062 92.777344 572.101562 92.976562 572.769531 93.238281 C 573.433594 93.5 574.066406 93.824219 574.664062 94.203125 C 575.261719 94.582031 575.816406 95.011719 576.324219 95.496094 C 576.832031 95.976562 577.285156 96.5 577.683594 97.066406 C 578.082031 97.632812 578.421875 98.230469 578.695312 98.859375 C 578.96875 99.484375 579.171875 100.132812 579.3125 100.800781 C 579.449219 101.464844 579.515625 102.140625 579.515625 102.820312 L 579.515625 104.199219 C 579.511719 104.875 579.4375 105.546875 579.296875 106.214844 C 579.152344 106.878906 578.941406 107.523438 578.664062 108.148438 C 578.386719 108.777344 578.042969 109.371094 577.640625 109.933594 C 577.238281 110.496094 576.78125 111.015625 576.269531 111.492188 C 575.757812 111.972656 575.203125 112.398438 574.601562 112.773438 C 574 113.148438 573.367188 113.464844 572.699219 113.722656 C 572.03125 113.976562 571.34375 114.171875 570.636719 114.300781 C 569.929688 114.433594 569.214844 114.496094 568.496094 114.492188 L 556.675781 114.449219 C 556.539062 114.449219 556.472656 114.382812 556.472656 114.246094 Z M 564.34375 99.378906 L 564.355469 107.554688 C 564.355469 107.628906 564.382812 107.695312 564.4375 107.75 C 564.492188 107.804688 564.558594 107.832031 564.632812 107.832031 L 565.921875 107.832031 C 566.304688 107.832031 566.6875 107.804688 567.066406 107.75 C 567.445312 107.695312 567.8125 107.617188 568.167969 107.511719 C 568.523438 107.40625 568.863281 107.277344 569.183594 107.125 C 569.503906 106.972656 569.800781 106.796875 570.074219 106.605469 C 570.34375 106.410156 570.589844 106.199219 570.800781 105.972656 C 571.015625 105.746094 571.195312 105.503906 571.34375 105.25 C 571.492188 105 571.601562 104.738281 571.675781 104.46875 C 571.75 104.203125 571.785156 103.929688 571.785156 103.65625 L 571.785156 103.246094 C 571.785156 102.972656 571.746094 102.703125 571.671875 102.433594 C 571.59375 102.167969 571.484375 101.90625 571.335938 101.65625 C 571.1875 101.402344 571.003906 101.164062 570.789062 100.9375 C 570.574219 100.710938 570.332031 100.503906 570.058594 100.308594 C 569.785156 100.117188 569.488281 99.945312 569.167969 99.792969 C 568.847656 99.644531 568.507812 99.515625 568.152344 99.414062 C 567.796875 99.308594 567.429688 99.230469 567.050781 99.179688 C 566.671875 99.125 566.292969 99.097656 565.90625 99.101562 L 564.621094 99.101562 C 564.542969 99.101562 564.476562 99.128906 564.421875 99.179688 C 564.367188 99.234375 564.34375 99.300781 564.34375 99.378906 Z M 644.570312 103.472656 C 644.578125 105.839844 645.84375 107.21875 648.261719 107.289062 C 649.691406 107.339844 652.480469 107.359375 656.628906 107.355469 C 656.746094 107.355469 656.84375 107.394531 656.925781 107.480469 C 657.007812 107.5625 657.050781 107.664062 657.050781 107.78125 L 657.050781 114.152344 C 657.050781 114.238281 657.019531 114.308594 656.960938 114.371094 C 656.902344 114.429688 656.828125 114.460938 656.742188 114.464844 C 653.953125 114.527344 651.507812 114.550781 649.40625 114.542969 C 646.101562 114.523438 643.714844 114.175781 642.246094 113.496094 C 638.34375 111.683594 636.167969 107.945312 636.160156 103.480469 C 636.152344 99.023438 638.316406 95.269531 642.21875 93.453125 C 643.6875 92.765625 646.074219 92.410156 649.378906 92.386719 C 651.476562 92.371094 653.921875 92.386719 656.714844 92.445312 C 656.800781 92.445312 656.871094 92.476562 656.933594 92.539062 C 656.992188 92.601562 657.019531 92.671875 657.019531 92.757812 L 657.035156 99.128906 C 657.035156 99.246094 656.996094 99.347656 656.914062 99.429688 C 656.832031 99.511719 656.730469 99.554688 656.617188 99.554688 C 652.46875 99.558594 649.679688 99.585938 648.246094 99.632812 C 645.835938 99.71875 644.570312 101.097656 644.570312 103.472656 Z M 154.570312 102.449219 C 154.632812 103.175781 154.621094 103.898438 154.53125 104.621094 C 154.441406 105.339844 154.28125 106.050781 154.042969 106.742188 C 153.808594 107.4375 153.503906 108.101562 153.128906 108.738281 C 152.753906 109.378906 152.320312 109.976562 151.820312 110.535156 C 151.324219 111.089844 150.773438 111.597656 150.171875 112.054688 C 149.570312 112.511719 148.925781 112.90625 148.242188 113.246094 C 147.558594 113.582031 146.84375 113.855469 146.105469 114.058594 C 145.367188 114.265625 144.613281 114.402344 143.847656 114.46875 C 143.082031 114.53125 142.316406 114.527344 141.554688 114.449219 C 140.789062 114.375 140.042969 114.226562 139.3125 114.011719 C 138.578125 113.796875 137.878906 113.511719 137.207031 113.167969 C 136.535156 112.820312 135.90625 112.414062 135.320312 111.949219 C 134.734375 111.484375 134.203125 110.96875 133.726562 110.402344 C 133.25 109.839844 132.835938 109.234375 132.484375 108.589844 C 132.136719 107.949219 131.855469 107.277344 131.644531 106.582031 C 131.433594 105.882812 131.296875 105.175781 131.238281 104.453125 C 131.175781 103.726562 131.1875 103.003906 131.277344 102.28125 C 131.363281 101.5625 131.527344 100.851562 131.761719 100.160156 C 132 99.464844 132.304688 98.800781 132.679688 98.164062 C 133.050781 97.523438 133.488281 96.925781 133.984375 96.371094 C 134.484375 95.8125 135.035156 95.304688 135.636719 94.847656 C 136.238281 94.390625 136.882812 93.996094 137.566406 93.65625 C 138.25 93.320312 138.960938 93.046875 139.703125 92.84375 C 140.441406 92.636719 141.195312 92.5 141.960938 92.4375 C 142.726562 92.371094 143.492188 92.375 144.253906 92.453125 C 145.015625 92.527344 145.765625 92.675781 146.496094 92.890625 C 147.226562 93.109375 147.929688 93.390625 148.601562 93.738281 C 149.273438 94.082031 149.902344 94.488281 150.484375 94.953125 C 151.070312 95.417969 151.601562 95.933594 152.082031 96.5 C 152.558594 97.066406 152.972656 97.667969 153.320312 98.3125 C 153.671875 98.953125 153.953125 99.625 154.164062 100.320312 C 154.375 101.019531 154.507812 101.726562 154.570312 102.449219 Z M 143.496094 107.722656 C 143.765625 107.683594 144.03125 107.617188 144.289062 107.523438 C 144.550781 107.429688 144.796875 107.3125 145.03125 107.167969 C 145.269531 107.023438 145.488281 106.859375 145.691406 106.671875 C 145.894531 106.484375 146.078125 106.277344 146.242188 106.050781 C 146.40625 105.828125 146.546875 105.585938 146.664062 105.332031 C 146.78125 105.082031 146.875 104.816406 146.941406 104.542969 C 147.007812 104.273438 147.046875 103.996094 147.058594 103.714844 C 147.074219 103.433594 147.058594 103.152344 147.019531 102.875 C 146.980469 102.597656 146.910156 102.324219 146.820312 102.058594 C 146.726562 101.792969 146.609375 101.539062 146.46875 101.296875 C 146.324219 101.054688 146.164062 100.828125 145.976562 100.621094 C 145.792969 100.410156 145.589844 100.222656 145.367188 100.050781 C 145.148438 99.882812 144.910156 99.738281 144.664062 99.617188 C 144.414062 99.496094 144.15625 99.398438 143.890625 99.328125 C 143.621094 99.257812 143.351562 99.214844 143.078125 99.199219 C 142.800781 99.183594 142.527344 99.199219 142.257812 99.238281 C 141.984375 99.277344 141.71875 99.34375 141.460938 99.4375 C 141.199219 99.53125 140.953125 99.648438 140.71875 99.792969 C 140.480469 99.933594 140.261719 100.101562 140.058594 100.289062 C 139.855469 100.476562 139.671875 100.683594 139.507812 100.90625 C 139.34375 101.132812 139.203125 101.371094 139.085938 101.625 C 138.96875 101.878906 138.875 102.140625 138.808594 102.414062 C 138.742188 102.6875 138.703125 102.964844 138.691406 103.246094 C 138.675781 103.527344 138.691406 103.804688 138.730469 104.085938 C 138.773438 104.363281 138.839844 104.636719 138.933594 104.898438 C 139.023438 105.164062 139.140625 105.417969 139.285156 105.660156 C 139.425781 105.902344 139.589844 106.128906 139.773438 106.339844 C 139.957031 106.550781 140.160156 106.738281 140.382812 106.90625 C 140.605469 107.074219 140.839844 107.222656 141.085938 107.34375 C 141.335938 107.464844 141.59375 107.5625 141.863281 107.628906 C 142.128906 107.699219 142.398438 107.742188 142.675781 107.757812 C 142.949219 107.773438 143.222656 107.761719 143.496094 107.722656 Z M 104.714844 100.167969 L 104.714844 99.570312 C 104.714844 99.265625 104.566406 99.113281 104.261719 99.113281 L 94.25 99.113281 C 94.097656 99.113281 94.023438 99.039062 94.023438 98.886719 L 94.023438 92.851562 C 94.023438 92.707031 94.09375 92.636719 94.234375 92.636719 C 95.117188 92.632812 98.152344 92.628906 103.335938 92.621094 C 107.496094 92.621094 111.683594 94.199219 112.496094 98.59375 C 113.121094 102.007812 111.179688 104.980469 107.714844 105.960938 C 105.855469 106.488281 103.949219 106.65625 102 106.464844 C 101.628906 106.433594 101.445312 106.601562 101.445312 106.96875 L 101.445312 107.304688 C 101.445312 107.445312 101.496094 107.5625 101.59375 107.660156 C 101.691406 107.761719 101.8125 107.808594 101.949219 107.808594 L 112.222656 107.800781 C 112.332031 107.800781 112.386719 107.855469 112.386719 107.964844 L 112.386719 114.195312 C 112.386719 114.324219 112.324219 114.386719 112.195312 114.386719 L 94.128906 114.394531 C 93.980469 114.394531 93.90625 114.320312 93.902344 114.171875 C 93.839844 112.042969 93.855469 110.226562 93.953125 108.71875 C 94.25 103.863281 97.152344 100.804688 101.9375 100.691406 C 103.214844 100.664062 104 100.640625 104.289062 100.621094 C 104.574219 100.605469 104.714844 100.457031 104.714844 100.167969 Z M 183.636719 99.113281 L 173.625 99.113281 C 173.472656 99.113281 173.398438 99.039062 173.398438 98.886719 L 173.398438 92.851562 C 173.398438 92.707031 173.46875 92.636719 173.613281 92.636719 C 174.492188 92.632812 177.527344 92.628906 182.710938 92.621094 C 186.871094 92.621094 191.058594 94.207031 191.871094 98.601562 C 192.496094 102.015625 190.554688 104.988281 187.09375 105.960938 C 185.226562 106.488281 183.316406 106.65625 181.367188 106.464844 C 181 106.433594 180.816406 106.601562 180.816406 106.96875 L 180.816406 107.304688 C 180.816406 107.445312 180.863281 107.5625 180.960938 107.660156 C 181.0625 107.761719 181.179688 107.808594 181.320312 107.808594 L 191.59375 107.808594 C 191.703125 107.808594 191.757812 107.863281 191.757812 107.972656 L 191.757812 114.203125 C 191.757812 114.328125 191.691406 114.394531 191.566406 114.394531 L 173.5 114.394531 C 173.351562 114.394531 173.273438 114.320312 173.269531 114.171875 C 173.210938 112.042969 173.226562 110.226562 173.320312 108.71875 C 173.625 103.863281 176.527344 100.804688 181.3125 100.691406 C 182.59375 100.664062 183.375 100.640625 183.664062 100.621094 C 183.949219 100.605469 184.09375 100.457031 184.09375 100.167969 L 184.09375 99.570312 C 184.09375 99.265625 183.941406 99.113281 183.636719 99.113281 Z M 218.113281 99.382812 C 217.761719 99.382812 217.585938 99.558594 217.585938 99.902344 L 217.585938 100.4375 C 217.585938 100.570312 217.636719 100.683594 217.738281 100.773438 C 217.839844 100.863281 217.957031 100.898438 218.09375 100.882812 C 221.390625 100.507812 226.046875 100.742188 228.046875 103.734375 C 230.023438 106.695312 228.949219 110.761719 226.054688 112.714844 C 224.46875 113.78125 222.785156 114.300781 220.628906 114.324219 C 216.84375 114.371094 213.613281 114.371094 210.941406 114.324219 C 210.824219 114.324219 210.769531 114.261719 210.769531 114.144531 L 210.769531 107.921875 C 210.769531 107.757812 210.851562 107.675781 211.019531 107.675781 L 220.339844 107.675781 C 220.484375 107.675781 220.613281 107.621094 220.714844 107.519531 C 220.820312 107.414062 220.871094 107.289062 220.871094 107.140625 L 220.871094 106.855469 C 220.871094 106.417969 220.652344 106.195312 220.210938 106.195312 L 211.136719 106.195312 C 210.878906 106.195312 210.746094 106.066406 210.746094 105.804688 L 210.746094 93.015625 C 210.746094 92.753906 210.875 92.621094 211.132812 92.621094 L 228.335938 92.621094 C 228.425781 92.621094 228.5 92.65625 228.5625 92.71875 C 228.625 92.78125 228.65625 92.859375 228.65625 92.949219 L 228.65625 99.007812 C 228.65625 99.257812 228.53125 99.382812 228.28125 99.382812 Z M 290.144531 107.367188 L 290.144531 107.042969 C 290.144531 106.730469 289.988281 106.574219 289.675781 106.574219 C 286.496094 106.601562 284.09375 106.527344 282.472656 106.351562 C 277.054688 105.761719 274.730469 100.074219 277.417969 95.660156 C 278.890625 93.226562 281.5625 92.695312 284.632812 92.652344 C 287.347656 92.613281 291.363281 92.640625 296.6875 92.730469 C 296.761719 92.730469 296.828125 92.761719 296.882812 92.816406 C 296.9375 92.871094 296.964844 92.9375 296.964844 93.015625 L 296.964844 99.027344 C 296.964844 99.203125 296.875 99.292969 296.699219 99.292969 L 285.003906 99.292969 C 284.609375 99.292969 284.414062 99.488281 284.414062 99.882812 L 284.414062 100.132812 C 284.414062 100.394531 284.550781 100.523438 284.820312 100.507812 C 287.289062 100.351562 289.449219 100.398438 291.304688 100.648438 C 301.058594 101.972656 298.492188 113.929688 289.875 114.371094 C 288.585938 114.4375 284.253906 114.457031 276.878906 114.421875 C 276.707031 114.421875 276.621094 114.335938 276.621094 114.164062 L 276.621094 108.144531 C 276.621094 108.058594 276.652344 107.988281 276.710938 107.925781 C 276.769531 107.867188 276.84375 107.839844 276.925781 107.839844 L 289.675781 107.839844 C 289.804688 107.839844 289.914062 107.792969 290.007812 107.699219 C 290.097656 107.609375 290.144531 107.5 290.144531 107.367188 Z M 415.53125 107.375 L 415.53125 107.050781 C 415.53125 106.734375 415.375 106.578125 415.058594 106.578125 C 411.878906 106.601562 409.480469 106.527344 407.859375 106.351562 C 402.433594 105.753906 400.117188 100.066406 402.804688 95.652344 C 404.28125 93.21875 406.957031 92.6875 410.027344 92.652344 C 412.738281 92.613281 416.753906 92.640625 422.078125 92.738281 C 422.15625 92.738281 422.222656 92.765625 422.273438 92.824219 C 422.328125 92.878906 422.355469 92.945312 422.355469 93.019531 L 422.355469 99.035156 C 422.355469 99.210938 422.269531 99.300781 422.09375 99.300781 L 410.390625 99.292969 C 409.996094 99.292969 409.800781 99.488281 409.800781 99.882812 L 409.800781 100.132812 C 409.800781 100.394531 409.933594 100.523438 410.203125 100.507812 C 412.675781 100.351562 414.835938 100.402344 416.6875 100.65625 C 426.449219 101.988281 423.871094 113.945312 415.253906 114.378906 C 413.964844 114.445312 409.628906 114.460938 402.253906 114.421875 C 402.085938 114.421875 402 114.335938 402 114.164062 L 402 108.136719 C 402 108.050781 402.027344 107.980469 402.089844 107.921875 C 402.148438 107.859375 402.222656 107.832031 402.304688 107.832031 L 415.058594 107.84375 C 415.191406 107.84375 415.300781 107.800781 415.390625 107.707031 C 415.484375 107.617188 415.53125 107.503906 415.53125 107.375 Z M 617.589844 107.765625 L 617.589844 114.324219 C 617.589844 114.390625 617.566406 114.449219 617.515625 114.5 C 617.46875 114.546875 617.410156 114.570312 617.339844 114.570312 L 598.265625 114.570312 C 598.195312 114.570312 598.136719 114.546875 598.085938 114.5 C 598.039062 114.449219 598.015625 114.390625 598.015625 114.324219 L 598.015625 92.878906 C 598.015625 92.808594 598.039062 92.75 598.085938 92.703125 C 598.136719 92.652344 598.195312 92.628906 598.265625 92.628906 L 605.808594 92.628906 C 605.875 92.628906 605.933594 92.652344 605.984375 92.703125 C 606.03125 92.75 606.054688 92.808594 606.054688 92.878906 L 606.054688 107.269531 C 606.054688 107.339844 606.082031 107.398438 606.128906 107.445312 C 606.179688 107.492188 606.238281 107.519531 606.304688 107.519531 L 617.339844 107.519531 C 617.410156 107.519531 617.46875 107.542969 617.515625 107.589844 C 617.566406 107.640625 617.589844 107.699219 617.589844 107.765625 Z M 617.589844 107.765625 " fill-opacity="1" fill-rule="nonzero"/></svg>