<svg xmlns="http://www.w3.org/2000/svg" xmlns:xlink="http://www.w3.org/1999/xlink" width="1080" zoomAndPan="magnify" viewBox="0 0 810 809.999993" height="1080" preserveAspectRatio="xMidYMid meet" version="1.0"><defs><clipPath id="81a73bb10c"><path d="M 20.082031 20.082031 L 789.917969 20.082031 L 789.917969 789.917969 L 20.082031 789.917969 Z M 20.082031 20.082031 " clip-rule="nonzero"/></clipPath><clipPath id="b268423851"><path d="M 405 20.082031 C 192.417969 20.082031 20.082031 192.417969 20.082031 405 C 20.082031 617.582031 192.417969 789.917969 405 789.917969 C 617.582031 789.917969 789.917969 617.582031 789.917969 405 C 789.917969 192.417969 617.582031 20.082031 405 20.082031 Z M 405 20.082031 " clip-rule="nonzero"/></clipPath><clipPath id="b0f64862a1"><path d="M 0.0820312 0.0820312 L 769.917969 0.0820312 L 769.917969 769.917969 L 0.0820312 769.917969 Z M 0.0820312 0.0820312 " clip-rule="nonzero"/></clipPath><clipPath id="d2082768f3"><path d="M 385 0.0820312 C 172.417969 0.0820312 0.0820312 172.417969 0.0820312 385 C 0.0820312 597.582031 172.417969 769.917969 385 769.917969 C 597.582031 769.917969 769.917969 597.582031 769.917969 385 C 769.917969 172.417969 597.582031 0.0820312 385 0.0820312 Z M 385 0.0820312 " clip-rule="nonzero"/></clipPath><clipPath id="a38c461945"><rect x="0" width="770" y="0" height="770"/></clipPath></defs><g clip-path="url(#81a73bb10c)"><g clip-path="url(#b268423851)"><g transform="matrix(1, 0, 0, 1, 20, 20)"><g clip-path="url(#a38c461945)"><g clip-path="url(#b0f64862a1)"><g clip-path="url(#d2082768f3)"><path fill="#9ad2cb" d="M 0.0820312 0.0820312 L 769.917969 0.0820312 L 769.917969 769.917969 L 0.0820312 769.917969 Z M 0.0820312 0.0820312 " fill-opacity="1" fill-rule="nonzero"/></g></g></g></g></g></g><path fill="#000000" d="M 377.519531 114.210938 C 375.441406 114.363281 367.816406 114.824219 360.578125 115.289062 C 292.34375 119.601562 228.730469 136.234375 196.460938 158.183594 C 186.292969 165.117188 178.4375 173.972656 178.4375 178.515625 C 178.4375 181.210938 182.445312 187.140625 187.21875 191.53125 C 215.714844 217.871094 288.335938 237.894531 371.742188 242.4375 C 389.84375 243.4375 434.203125 242.976562 451.839844 241.589844 C 525.078125 235.96875 589.230469 217.871094 618.417969 194.6875 C 625.042969 189.453125 627.890625 186.140625 629.894531 181.671875 C 631.359375 178.515625 631.359375 178.363281 629.894531 175.050781 C 629.046875 173.203125 626.429688 169.8125 624.042969 167.425781 C 598.625 142.011719 532.007812 121.832031 453.148438 115.671875 C 439.363281 114.59375 386.222656 113.515625 377.519531 114.210938 Z M 377.519531 114.210938 " fill-opacity="1" fill-rule="nonzero"/><path fill="#000000" d="M 178.4375 302.660156 L 178.4375 342.171875 L 180.59375 345.636719 C 189.605469 359.730469 218.5625 375.363281 255.453125 385.992188 C 296.730469 397.851562 341.398438 403.859375 394.925781 404.628906 C 449.140625 405.398438 495.273438 400.699219 539.25 389.84375 C 585.609375 378.367188 622.425781 359.652344 629.816406 343.632812 C 631.125 340.785156 631.28125 337.933594 631.28125 301.816406 L 631.28125 263.152344 L 626.042969 265.773438 C 583.453125 287.257812 519.765625 301.738281 447.988281 306.4375 C 426.269531 307.820312 376.132812 307.589844 355.1875 305.972656 C 288.03125 300.890625 230.808594 287.796875 189.375 268.082031 C 183.675781 265.386719 178.824219 263.152344 178.746094 263.152344 C 178.59375 263.152344 178.4375 280.945312 178.4375 302.660156 Z M 178.4375 302.660156 " fill-opacity="1" fill-rule="nonzero"/><path fill="#000000" d="M 178.4375 456.304688 L 178.4375 487.726562 L 180.59375 491.191406 C 183.136719 495.195312 189.992188 501.589844 196.074219 505.671875 C 231.269531 529.3125 296.039062 545.5625 371.742188 549.722656 C 389.84375 550.722656 434.203125 550.261719 451.839844 548.875 C 514.527344 544.023438 569.359375 530.546875 603.171875 511.679688 C 613.257812 506.054688 622.578125 499.203125 626.273438 494.65625 C 631.359375 488.417969 631.28125 488.957031 631.28125 455.304688 L 631.28125 424.882812 L 624.582031 428.195312 C 614.570312 433.199219 593.929688 441.285156 580.835938 445.292969 C 542.175781 457.230469 501.742188 464.238281 449.527344 468.164062 C 430.351562 469.550781 375.902344 469.320312 355.1875 467.703125 C 287.722656 462.542969 230.808594 449.527344 189.375 429.8125 C 183.675781 427.117188 178.824219 424.882812 178.746094 424.882812 C 178.59375 424.882812 178.4375 439.054688 178.4375 456.304688 Z M 178.4375 456.304688 " fill-opacity="1" fill-rule="nonzero"/><path fill="#000000" d="M 178.4375 601.859375 L 178.4375 633.28125 L 180.59375 636.75 C 192.300781 655.15625 236.660156 674.714844 290.878906 685.5 C 346.175781 696.433594 413.175781 698.820312 474.171875 692.042969 C 542.019531 684.574219 601.398438 665.011719 623.578125 642.832031 C 631.511719 634.898438 631.28125 636.285156 631.28125 601.015625 L 631.28125 570.4375 L 626.660156 572.75 C 617.878906 577.214844 598.320312 584.917969 585.378906 589.152344 C 533.011719 606.175781 473.480469 614.492188 405.246094 614.492188 C 347.332031 614.570312 297.117188 608.714844 250.136719 596.546875 C 228.113281 590.847656 200.234375 580.914062 185.214844 573.441406 C 181.90625 571.75 179.054688 570.4375 178.824219 570.4375 C 178.59375 570.4375 178.4375 584.609375 178.4375 601.859375 Z M 178.4375 601.859375 " fill-opacity="1" fill-rule="nonzero"/></svg>