<?xml version="1.0" standalone="no"?>
<!DOCTYPE svg PUBLIC "-//W3C//DTD SVG 20010904//EN"
 "http://www.w3.org/TR/2001/REC-SVG-20010904/DTD/svg10.dtd">
<svg version="1.0" xmlns="http://www.w3.org/2000/svg"
 width="1080.000000pt" height="1080.000000pt" viewBox="0 0 1080.000000 1080.000000"
 preserveAspectRatio="xMidYMid meet">

<g transform="translate(0.000000,1080.000000) scale(0.100000,-0.100000)"
fill="#000000" stroke="none">
<path d="M5045 9174 c-27 -2 -126 -8 -220 -14 -886 -56 -1712 -272 -2131 -557
-132 -90 -234 -205 -234 -264 0 -35 52 -112 114 -169 370 -342 1313 -602 2396
-661 235 -13 811 -7 1040 11 951 73 1784 308 2163 609 86 68 123 111 149 169
19 41 19 43 0 86 -11 24 -45 68 -76 99 -330 330 -1195 592 -2219 672 -179 14
-869 28 -982 19z"/>
<path d="M2460 6727 l0 -513 28 -45 c117 -183 493 -386 972 -524 536 -154
1116 -232 1811 -242 704 -10 1303 51 1874 192 602 149 1080 392 1176 600 17
37 19 74 19 543 l0 502 -68 -34 c-553 -279 -1380 -467 -2312 -528 -282 -18
-933 -15 -1205 6 -872 66 -1615 236 -2153 492 -74 35 -137 64 -138 64 -2 0 -4
-231 -4 -513z"/>
<path d="M2460 4732 l0 -408 28 -45 c33 -52 122 -135 201 -188 457 -307 1298
-518 2281 -572 235 -13 811 -7 1040 11 814 63 1526 238 1965 483 131 73 252
162 300 221 66 81 65 74 65 511 l0 395 -87 -43 c-130 -65 -398 -170 -568 -222
-502 -155 -1027 -246 -1705 -297 -249 -18 -956 -15 -1225 6 -876 67 -1615 236
-2153 492 -74 35 -137 64 -138 64 -2 0 -4 -184 -4 -408z"/>
<path d="M2460 2842 l0 -408 28 -45 c152 -239 728 -493 1432 -633 718 -142
1588 -173 2380 -85 881 97 1652 351 1940 639 103 103 100 85 100 543 l0 397
-60 -30 c-114 -58 -368 -158 -536 -213 -680 -221 -1453 -329 -2339 -329 -752
-1 -1404 75 -2014 233 -286 74 -648 203 -843 300 -43 22 -80 39 -83 39 -3 0
-5 -184 -5 -408z"/>
</g>
</svg>
