<svg xmlns="http://www.w3.org/2000/svg" xmlns:xlink="http://www.w3.org/1999/xlink" width="1080" zoomAndPan="magnify" viewBox="0 0 810 809.999993" height="1080" preserveAspectRatio="xMidYMid meet" version="1.0"><defs><clipPath id="b9e52b95e5"><path d="M 147.960938 101.914062 L 665.96875 101.914062 L 665.96875 716.925781 L 147.960938 716.925781 Z M 147.960938 101.914062 " clip-rule="nonzero"/></clipPath><clipPath id="3a6f5198ce"><path d="M 186.210938 101.914062 L 627.71875 101.914062 C 637.863281 101.914062 647.59375 105.941406 654.765625 113.117188 C 661.941406 120.289062 665.96875 130.019531 665.96875 140.164062 L 665.96875 678.679688 C 665.96875 688.824219 661.941406 698.554688 654.765625 705.726562 C 647.59375 712.902344 637.863281 716.929688 627.71875 716.929688 L 186.210938 716.929688 C 176.066406 716.929688 166.335938 712.902344 159.164062 705.726562 C 151.988281 698.554688 147.960938 688.824219 147.960938 678.679688 L 147.960938 140.164062 C 147.960938 130.019531 151.988281 120.289062 159.164062 113.117188 C 166.335938 105.941406 176.066406 101.914062 186.210938 101.914062 Z M 186.210938 101.914062 " clip-rule="nonzero"/></clipPath><linearGradient x1="-0.00000433164" gradientTransform="matrix(2.023479, 0, 0, 2.023479, 147.959551, 101.908769)" y1="151.970001" x2="255.999984" gradientUnits="userSpaceOnUse" y2="151.970001" id="26cd624ce4"><stop stop-opacity="1" stop-color="rgb(0%, 0%, 0%)" offset="0"/><stop stop-opacity="1" stop-color="rgb(0.175476%, 0.175476%, 0.175476%)" offset="0.0078125"/><stop stop-opacity="1" stop-color="rgb(0.526428%, 0.526428%, 0.526428%)" offset="0.015625"/><stop stop-opacity="1" stop-color="rgb(0.878906%, 0.878906%, 0.878906%)" offset="0.0234375"/><stop stop-opacity="1" stop-color="rgb(1.231384%, 1.231384%, 1.231384%)" offset="0.03125"/><stop stop-opacity="1" stop-color="rgb(1.583862%, 1.583862%, 1.583862%)" offset="0.0390625"/><stop stop-opacity="1" stop-color="rgb(1.93634%, 1.93634%, 1.93634%)" offset="0.046875"/><stop stop-opacity="1" stop-color="rgb(2.288818%, 2.288818%, 2.288818%)" offset="0.0546875"/><stop stop-opacity="1" stop-color="rgb(2.641296%, 2.641296%, 2.641296%)" offset="0.0625"/><stop stop-opacity="1" stop-color="rgb(2.993774%, 2.993774%, 2.993774%)" offset="0.0703125"/><stop stop-opacity="1" stop-color="rgb(3.346252%, 3.346252%, 3.346252%)" offset="0.078125"/><stop stop-opacity="1" stop-color="rgb(3.69873%, 3.69873%, 3.69873%)" offset="0.0859375"/><stop stop-opacity="1" stop-color="rgb(4.051208%, 4.051208%, 4.051208%)" offset="0.09375"/><stop stop-opacity="1" stop-color="rgb(4.402161%, 4.402161%, 4.402161%)" offset="0.101562"/><stop stop-opacity="1" stop-color="rgb(4.754639%, 4.754639%, 4.754639%)" offset="0.109375"/><stop stop-opacity="1" stop-color="rgb(5.107117%, 5.107117%, 5.107117%)" offset="0.117187"/><stop stop-opacity="1" stop-color="rgb(5.459595%, 5.459595%, 5.459595%)" offset="0.125"/><stop stop-opacity="1" stop-color="rgb(5.812073%, 5.812073%, 5.812073%)" offset="0.132812"/><stop stop-opacity="1" stop-color="rgb(6.164551%, 6.164551%, 6.164551%)" offset="0.140625"/><stop stop-opacity="1" stop-color="rgb(6.517029%, 6.517029%, 6.517029%)" offset="0.148438"/><stop stop-opacity="1" stop-color="rgb(6.869507%, 6.869507%, 6.869507%)" offset="0.15625"/><stop stop-opacity="1" stop-color="rgb(7.221985%, 7.221985%, 7.221985%)" offset="0.164062"/><stop stop-opacity="1" stop-color="rgb(7.574463%, 7.574463%, 7.574463%)" offset="0.171875"/><stop stop-opacity="1" stop-color="rgb(7.926941%, 7.926941%, 7.926941%)" offset="0.179687"/><stop stop-opacity="1" stop-color="rgb(8.277893%, 8.277893%, 8.277893%)" offset="0.1875"/><stop stop-opacity="1" stop-color="rgb(8.630371%, 8.630371%, 8.630371%)" offset="0.195312"/><stop stop-opacity="1" stop-color="rgb(8.982849%, 8.982849%, 8.982849%)" offset="0.203125"/><stop stop-opacity="1" stop-color="rgb(9.335327%, 9.335327%, 9.335327%)" offset="0.210937"/><stop stop-opacity="1" stop-color="rgb(9.687805%, 9.687805%, 9.687805%)" offset="0.21875"/><stop stop-opacity="1" stop-color="rgb(10.040283%, 10.040283%, 10.040283%)" offset="0.226562"/><stop stop-opacity="1" stop-color="rgb(10.392761%, 10.392761%, 10.392761%)" offset="0.234375"/><stop stop-opacity="1" stop-color="rgb(10.745239%, 10.745239%, 10.745239%)" offset="0.242188"/><stop stop-opacity="1" stop-color="rgb(11.097717%, 11.097717%, 11.097717%)" offset="0.25"/><stop stop-opacity="1" stop-color="rgb(11.450195%, 11.450195%, 11.450195%)" offset="0.257812"/><stop stop-opacity="1" stop-color="rgb(11.802673%, 11.802673%, 11.802673%)" offset="0.265625"/><stop stop-opacity="1" stop-color="rgb(12.155151%, 12.155151%, 12.155151%)" offset="0.273437"/><stop stop-opacity="1" stop-color="rgb(12.506104%, 12.506104%, 12.506104%)" offset="0.28125"/><stop stop-opacity="1" stop-color="rgb(12.858582%, 12.858582%, 12.858582%)" offset="0.289062"/><stop stop-opacity="1" stop-color="rgb(13.21106%, 13.21106%, 13.21106%)" offset="0.296875"/><stop stop-opacity="1" stop-color="rgb(13.563538%, 13.563538%, 13.563538%)" offset="0.304687"/><stop stop-opacity="1" stop-color="rgb(13.916016%, 13.916016%, 13.916016%)" offset="0.3125"/><stop stop-opacity="1" stop-color="rgb(14.268494%, 14.268494%, 14.268494%)" offset="0.320312"/><stop stop-opacity="1" stop-color="rgb(14.620972%, 14.620972%, 14.620972%)" offset="0.328125"/><stop stop-opacity="1" stop-color="rgb(14.97345%, 14.97345%, 14.97345%)" offset="0.335938"/><stop stop-opacity="1" stop-color="rgb(15.325928%, 15.325928%, 15.325928%)" offset="0.34375"/><stop stop-opacity="1" stop-color="rgb(15.678406%, 15.678406%, 15.678406%)" offset="0.351562"/><stop stop-opacity="1" stop-color="rgb(16.030884%, 16.030884%, 16.030884%)" offset="0.359375"/><stop stop-opacity="1" stop-color="rgb(16.381836%, 16.381836%, 16.381836%)" offset="0.367188"/><stop stop-opacity="1" stop-color="rgb(16.734314%, 16.734314%, 16.734314%)" offset="0.375"/><stop stop-opacity="1" stop-color="rgb(17.086792%, 17.086792%, 17.086792%)" offset="0.382812"/><stop stop-opacity="1" stop-color="rgb(17.43927%, 17.43927%, 17.43927%)" offset="0.390625"/><stop stop-opacity="1" stop-color="rgb(17.791748%, 17.791748%, 17.791748%)" offset="0.398437"/><stop stop-opacity="1" stop-color="rgb(18.144226%, 18.144226%, 18.144226%)" offset="0.40625"/><stop stop-opacity="1" stop-color="rgb(18.496704%, 18.496704%, 18.496704%)" offset="0.414062"/><stop stop-opacity="1" stop-color="rgb(18.849182%, 18.849182%, 18.849182%)" offset="0.421875"/><stop stop-opacity="1" stop-color="rgb(19.20166%, 19.20166%, 19.20166%)" offset="0.429688"/><stop stop-opacity="1" stop-color="rgb(19.554138%, 19.554138%, 19.554138%)" offset="0.4375"/><stop stop-opacity="1" stop-color="rgb(19.906616%, 19.906616%, 19.906616%)" offset="0.445312"/><stop stop-opacity="1" stop-color="rgb(20.257568%, 20.257568%, 20.257568%)" offset="0.453125"/><stop stop-opacity="1" stop-color="rgb(20.610046%, 20.610046%, 20.610046%)" offset="0.460938"/><stop stop-opacity="1" stop-color="rgb(20.962524%, 20.962524%, 20.962524%)" offset="0.46875"/><stop stop-opacity="1" stop-color="rgb(21.315002%, 21.315002%, 21.315002%)" offset="0.476562"/><stop stop-opacity="1" stop-color="rgb(21.66748%, 21.66748%, 21.66748%)" offset="0.484375"/><stop stop-opacity="1" stop-color="rgb(22.019958%, 22.019958%, 22.019958%)" offset="0.492187"/><stop stop-opacity="1" stop-color="rgb(22.372437%, 22.372437%, 22.372437%)" offset="0.5"/><stop stop-opacity="1" stop-color="rgb(22.724915%, 22.724915%, 22.724915%)" offset="0.507812"/><stop stop-opacity="1" stop-color="rgb(23.077393%, 23.077393%, 23.077393%)" offset="0.515625"/><stop stop-opacity="1" stop-color="rgb(23.429871%, 23.429871%, 23.429871%)" offset="0.523437"/><stop stop-opacity="1" stop-color="rgb(23.782349%, 23.782349%, 23.782349%)" offset="0.53125"/><stop stop-opacity="1" stop-color="rgb(24.134827%, 24.134827%, 24.134827%)" offset="0.539062"/><stop stop-opacity="1" stop-color="rgb(24.485779%, 24.485779%, 24.485779%)" offset="0.546875"/><stop stop-opacity="1" stop-color="rgb(24.838257%, 24.838257%, 24.838257%)" offset="0.554687"/><stop stop-opacity="1" stop-color="rgb(25.190735%, 25.190735%, 25.190735%)" offset="0.5625"/><stop stop-opacity="1" stop-color="rgb(25.543213%, 25.543213%, 25.543213%)" offset="0.570312"/><stop stop-opacity="1" stop-color="rgb(25.895691%, 25.895691%, 25.895691%)" offset="0.578125"/><stop stop-opacity="1" stop-color="rgb(26.248169%, 26.248169%, 26.248169%)" offset="0.585937"/><stop stop-opacity="1" stop-color="rgb(26.600647%, 26.600647%, 26.600647%)" offset="0.59375"/><stop stop-opacity="1" stop-color="rgb(26.953125%, 26.953125%, 26.953125%)" offset="0.601562"/><stop stop-opacity="1" stop-color="rgb(27.305603%, 27.305603%, 27.305603%)" offset="0.609375"/><stop stop-opacity="1" stop-color="rgb(27.658081%, 27.658081%, 27.658081%)" offset="0.617187"/><stop stop-opacity="1" stop-color="rgb(28.010559%, 28.010559%, 28.010559%)" offset="0.625"/><stop stop-opacity="1" stop-color="rgb(28.361511%, 28.361511%, 28.361511%)" offset="0.632812"/><stop stop-opacity="1" stop-color="rgb(28.713989%, 28.713989%, 28.713989%)" offset="0.640625"/><stop stop-opacity="1" stop-color="rgb(29.066467%, 29.066467%, 29.066467%)" offset="0.648437"/><stop stop-opacity="1" stop-color="rgb(29.418945%, 29.418945%, 29.418945%)" offset="0.65625"/><stop stop-opacity="1" stop-color="rgb(29.771423%, 29.771423%, 29.771423%)" offset="0.664062"/><stop stop-opacity="1" stop-color="rgb(30.123901%, 30.123901%, 30.123901%)" offset="0.671875"/><stop stop-opacity="1" stop-color="rgb(30.476379%, 30.476379%, 30.476379%)" offset="0.679688"/><stop stop-opacity="1" stop-color="rgb(30.828857%, 30.828857%, 30.828857%)" offset="0.6875"/><stop stop-opacity="1" stop-color="rgb(31.181335%, 31.181335%, 31.181335%)" offset="0.695312"/><stop stop-opacity="1" stop-color="rgb(31.533813%, 31.533813%, 31.533813%)" offset="0.703125"/><stop stop-opacity="1" stop-color="rgb(31.886292%, 31.886292%, 31.886292%)" offset="0.710937"/><stop stop-opacity="1" stop-color="rgb(32.237244%, 32.237244%, 32.237244%)" offset="0.71875"/><stop stop-opacity="1" stop-color="rgb(32.589722%, 32.589722%, 32.589722%)" offset="0.726562"/><stop stop-opacity="1" stop-color="rgb(32.9422%, 32.9422%, 32.9422%)" offset="0.734375"/><stop stop-opacity="1" stop-color="rgb(33.294678%, 33.294678%, 33.294678%)" offset="0.742187"/><stop stop-opacity="1" stop-color="rgb(33.647156%, 33.647156%, 33.647156%)" offset="0.75"/><stop stop-opacity="1" stop-color="rgb(33.999634%, 33.999634%, 33.999634%)" offset="0.757812"/><stop stop-opacity="1" stop-color="rgb(34.352112%, 34.352112%, 34.352112%)" offset="0.765625"/><stop stop-opacity="1" stop-color="rgb(34.70459%, 34.70459%, 34.70459%)" offset="0.773437"/><stop stop-opacity="1" stop-color="rgb(35.057068%, 35.057068%, 35.057068%)" offset="0.78125"/><stop stop-opacity="1" stop-color="rgb(35.409546%, 35.409546%, 35.409546%)" offset="0.789062"/><stop stop-opacity="1" stop-color="rgb(35.762024%, 35.762024%, 35.762024%)" offset="0.796875"/><stop stop-opacity="1" stop-color="rgb(36.114502%, 36.114502%, 36.114502%)" offset="0.804687"/><stop stop-opacity="1" stop-color="rgb(36.465454%, 36.465454%, 36.465454%)" offset="0.8125"/><stop stop-opacity="1" stop-color="rgb(36.817932%, 36.817932%, 36.817932%)" offset="0.820312"/><stop stop-opacity="1" stop-color="rgb(37.17041%, 37.17041%, 37.17041%)" offset="0.828125"/><stop stop-opacity="1" stop-color="rgb(37.522888%, 37.522888%, 37.522888%)" offset="0.835937"/><stop stop-opacity="1" stop-color="rgb(37.875366%, 37.875366%, 37.875366%)" offset="0.84375"/><stop stop-opacity="1" stop-color="rgb(38.227844%, 38.227844%, 38.227844%)" offset="0.851562"/><stop stop-opacity="1" stop-color="rgb(38.580322%, 38.580322%, 38.580322%)" offset="0.859375"/><stop stop-opacity="1" stop-color="rgb(38.9328%, 38.9328%, 38.9328%)" offset="0.867188"/><stop stop-opacity="1" stop-color="rgb(39.285278%, 39.285278%, 39.285278%)" offset="0.875"/><stop stop-opacity="1" stop-color="rgb(39.637756%, 39.637756%, 39.637756%)" offset="0.882812"/><stop stop-opacity="1" stop-color="rgb(39.990234%, 39.990234%, 39.990234%)" offset="0.890625"/><stop stop-opacity="1" stop-color="rgb(40.341187%, 40.341187%, 40.341187%)" offset="0.898437"/><stop stop-opacity="1" stop-color="rgb(40.693665%, 40.693665%, 40.693665%)" offset="0.90625"/><stop stop-opacity="1" stop-color="rgb(41.046143%, 41.046143%, 41.046143%)" offset="0.914062"/><stop stop-opacity="1" stop-color="rgb(41.398621%, 41.398621%, 41.398621%)" offset="0.921875"/><stop stop-opacity="1" stop-color="rgb(41.751099%, 41.751099%, 41.751099%)" offset="0.929687"/><stop stop-opacity="1" stop-color="rgb(42.103577%, 42.103577%, 42.103577%)" offset="0.9375"/><stop stop-opacity="1" stop-color="rgb(42.456055%, 42.456055%, 42.456055%)" offset="0.945312"/><stop stop-opacity="1" stop-color="rgb(42.808533%, 42.808533%, 42.808533%)" offset="0.953125"/><stop stop-opacity="1" stop-color="rgb(43.161011%, 43.161011%, 43.161011%)" offset="0.960937"/><stop stop-opacity="1" stop-color="rgb(43.513489%, 43.513489%, 43.513489%)" offset="0.96875"/><stop stop-opacity="1" stop-color="rgb(43.865967%, 43.865967%, 43.865967%)" offset="0.976562"/><stop stop-opacity="1" stop-color="rgb(44.216919%, 44.216919%, 44.216919%)" offset="0.984375"/><stop stop-opacity="1" stop-color="rgb(44.569397%, 44.569397%, 44.569397%)" offset="0.992187"/><stop stop-opacity="1" stop-color="rgb(44.921875%, 44.921875%, 44.921875%)" offset="1"/></linearGradient><clipPath id="5bfb7d7f7f"><path d="M 108.277344 42.339844 L 701.527344 42.339844 L 701.527344 307 L 108.277344 307 Z M 108.277344 42.339844 " clip-rule="nonzero"/></clipPath><clipPath id="7e12fe51ff"><path d="M 108.277344 141 L 701.527344 141 L 701.527344 767.589844 L 108.277344 767.589844 Z M 108.277344 141 " clip-rule="nonzero"/></clipPath><clipPath id="c8909d1ff8"><path d="M 108.277344 306 L 701.527344 306 L 701.527344 471 L 108.277344 471 Z M 108.277344 306 " clip-rule="nonzero"/></clipPath><clipPath id="a889febe63"><path d="M 108.277344 454 L 701.527344 454 L 701.527344 620 L 108.277344 620 Z M 108.277344 454 " clip-rule="nonzero"/></clipPath></defs><g clip-path="url(#b9e52b95e5)"><g clip-path="url(#3a6f5198ce)"><path fill="url(#26cd624ce4)" d="M 147.960938 101.914062 L 147.960938 716.925781 L 665.96875 716.925781 L 665.96875 101.914062 Z M 147.960938 101.914062 " fill-rule="nonzero"/></g></g><g clip-path="url(#5bfb7d7f7f)"><path fill="#c89efc" d="M 183.847656 160.382812 C 174.554688 168.625 174.21875 173.371094 174.21875 174.214844 C 174.21875 175.054688 174.554688 179.804688 183.847656 188.042969 C 193.101562 196.25 208.371094 205.144531 230.074219 213.28125 C 273.234375 229.464844 335.070312 240.152344 404.996094 240.152344 C 474.921875 240.152344 536.757812 229.464844 579.917969 213.28125 C 601.621094 205.144531 616.890625 196.25 626.148438 188.042969 C 635.441406 179.804688 635.777344 175.054688 635.777344 174.214844 C 635.777344 173.371094 635.441406 168.625 626.148438 160.382812 C 616.890625 152.179688 601.621094 143.285156 579.917969 135.148438 C 536.757812 118.960938 474.921875 108.277344 404.996094 108.277344 C 335.070312 108.277344 273.234375 118.960938 230.074219 135.148438 C 208.371094 143.285156 193.101562 152.179688 183.847656 160.382812 Z M 206.921875 73.40625 C 259.222656 53.796875 329.257812 42.339844 404.996094 42.339844 C 480.734375 42.339844 550.773438 53.796875 603.070312 73.40625 C 629.097656 83.167969 652.453125 95.585938 669.890625 111.046875 C 687.289062 126.472656 701.714844 147.742188 701.714844 174.214844 C 701.714844 200.683594 687.289062 221.953125 669.890625 237.382812 C 652.453125 252.84375 629.097656 265.261719 603.070312 275.019531 C 550.773438 294.632812 480.734375 306.089844 404.996094 306.089844 C 329.257812 306.089844 259.222656 294.632812 206.921875 275.019531 C 180.894531 265.261719 157.542969 252.84375 140.101562 237.382812 C 122.703125 221.953125 108.28125 200.683594 108.28125 174.214844 C 108.28125 147.742188 122.703125 126.472656 140.101562 111.046875 C 157.542969 95.585938 180.894531 83.167969 206.921875 73.40625 Z M 206.921875 73.40625 " fill-opacity="1" fill-rule="evenodd"/></g><g clip-path="url(#7e12fe51ff)"><path fill="#c89efc" d="M 141.25 141.246094 C 159.457031 141.246094 174.21875 156.007812 174.21875 174.214844 L 174.21875 635.773438 C 174.21875 636.613281 174.554688 641.367188 183.847656 649.605469 C 193.101562 657.808594 208.371094 666.703125 230.074219 674.84375 C 273.234375 691.027344 335.070312 701.710938 404.996094 701.710938 C 474.921875 701.710938 536.757812 691.027344 579.917969 674.84375 C 601.621094 666.703125 616.890625 657.808594 626.148438 649.605469 C 635.441406 641.367188 635.777344 636.613281 635.777344 635.773438 L 635.777344 174.214844 C 635.777344 156.007812 650.535156 141.246094 668.746094 141.246094 C 686.953125 141.246094 701.714844 156.007812 701.714844 174.214844 L 701.714844 635.773438 C 701.714844 662.246094 687.289062 683.515625 669.890625 698.941406 C 652.453125 714.402344 629.097656 726.820312 603.070312 736.578125 C 550.773438 756.191406 480.734375 767.648438 404.996094 767.648438 C 329.257812 767.648438 259.222656 756.191406 206.921875 736.578125 C 180.894531 726.820312 157.542969 714.402344 140.101562 698.941406 C 122.703125 683.515625 108.28125 662.246094 108.28125 635.773438 L 108.28125 174.214844 C 108.28125 156.007812 123.039062 141.246094 141.25 141.246094 Z M 141.25 141.246094 " fill-opacity="1" fill-rule="evenodd"/></g><g clip-path="url(#c8909d1ff8)"><path fill="#c89efc" d="M 141.25 306.089844 C 159.457031 306.089844 174.21875 320.847656 174.21875 339.058594 C 174.21875 339.898438 174.554688 344.648438 183.847656 352.886719 C 193.101562 361.089844 208.371094 369.984375 230.074219 378.125 C 273.234375 394.308594 335.070312 404.996094 404.996094 404.996094 C 474.921875 404.996094 536.757812 394.308594 579.917969 378.125 C 601.621094 369.984375 616.890625 361.089844 626.148438 352.886719 C 635.441406 344.648438 635.777344 339.898438 635.777344 339.058594 C 635.777344 320.847656 650.535156 306.089844 668.746094 306.089844 C 686.953125 306.089844 701.714844 320.847656 701.714844 339.058594 C 701.714844 365.527344 687.289062 386.800781 669.890625 402.226562 C 652.453125 417.6875 629.097656 430.101562 603.070312 439.863281 C 550.773438 459.476562 480.734375 470.929688 404.996094 470.929688 C 329.257812 470.929688 259.222656 459.476562 206.921875 439.863281 C 180.894531 430.101562 157.542969 417.6875 140.101562 402.226562 C 122.703125 386.800781 108.28125 365.527344 108.28125 339.058594 C 108.28125 320.847656 123.039062 306.089844 141.25 306.089844 Z M 141.25 306.089844 " fill-opacity="1" fill-rule="evenodd"/></g><g clip-path="url(#a889febe63)"><path fill="#c89efc" d="M 141.25 454.445312 C 159.457031 454.445312 174.21875 469.207031 174.21875 487.414062 C 174.21875 488.257812 174.554688 493.007812 183.847656 501.246094 C 193.101562 509.449219 208.371094 518.34375 230.074219 526.484375 C 273.234375 542.667969 335.070312 553.351562 404.996094 553.351562 C 474.921875 553.351562 536.757812 542.667969 579.917969 526.484375 C 601.621094 518.34375 616.890625 509.449219 626.148438 501.246094 C 635.441406 493.007812 635.777344 488.257812 635.777344 487.414062 C 635.777344 469.207031 650.535156 454.445312 668.746094 454.445312 C 686.953125 454.445312 701.714844 469.207031 701.714844 487.414062 C 701.714844 513.886719 687.289062 535.15625 669.890625 550.582031 C 652.453125 566.046875 629.097656 578.460938 603.070312 588.21875 C 550.773438 607.832031 480.734375 619.289062 404.996094 619.289062 C 329.257812 619.289062 259.222656 607.832031 206.921875 588.21875 C 180.894531 578.460938 157.542969 566.046875 140.101562 550.582031 C 122.703125 535.15625 108.28125 513.886719 108.28125 487.414062 C 108.28125 469.207031 123.039062 454.445312 141.25 454.445312 Z M 141.25 454.445312 " fill-opacity="1" fill-rule="evenodd"/></g></svg>