<svg xmlns="http://www.w3.org/2000/svg" xmlns:xlink="http://www.w3.org/1999/xlink" width="113" zoomAndPan="magnify" viewBox="0 0 84.75 84.749999" height="113" preserveAspectRatio="xMidYMid meet" version="1.0"><defs><clipPath id="3560e85b9a"><path d="M 8.558594 8.410156 L 75.714844 8.410156 L 75.714844 75.570312 L 8.558594 75.570312 Z M 8.558594 8.410156 " clip-rule="nonzero"/></clipPath><clipPath id="1bd3ecc693"><path d="M 42.136719 8.410156 C 23.59375 8.410156 8.558594 23.445312 8.558594 41.988281 C 8.558594 60.535156 23.59375 75.570312 42.136719 75.570312 C 60.683594 75.570312 75.714844 60.535156 75.714844 41.988281 C 75.714844 23.445312 60.683594 8.410156 42.136719 8.410156 Z M 42.136719 8.410156 " clip-rule="nonzero"/></clipPath><clipPath id="078bfbe28a"><path d="M 8.449219 8.449219 L 76.050781 8.449219 L 76.050781 76.050781 L 8.449219 76.050781 Z M 8.449219 8.449219 " clip-rule="nonzero"/></clipPath><clipPath id="988c6e000f"><path d="M 42.25 8.449219 C 23.582031 8.449219 8.449219 23.582031 8.449219 42.25 C 8.449219 60.917969 23.582031 76.050781 42.25 76.050781 C 60.917969 76.050781 76.050781 60.917969 76.050781 42.25 C 76.050781 23.582031 60.917969 8.449219 42.25 8.449219 Z M 42.25 8.449219 " clip-rule="nonzero"/></clipPath><clipPath id="a24f5fa99d"><path d="M 0.449219 0.449219 L 68.050781 0.449219 L 68.050781 68.050781 L 0.449219 68.050781 Z M 0.449219 0.449219 " clip-rule="nonzero"/></clipPath><clipPath id="ed9a530e5c"><path d="M 34.25 0.449219 C 15.582031 0.449219 0.449219 15.582031 0.449219 34.25 C 0.449219 52.917969 15.582031 68.050781 34.25 68.050781 C 52.917969 68.050781 68.050781 52.917969 68.050781 34.25 C 68.050781 15.582031 52.917969 0.449219 34.25 0.449219 Z M 34.25 0.449219 " clip-rule="nonzero"/></clipPath><clipPath id="ff9020448a"><rect x="0" width="69" y="0" height="69"/></clipPath></defs><g clip-path="url(#3560e85b9a)"><g clip-path="url(#1bd3ecc693)"><path fill="#c89efc" d="M 8.558594 8.410156 L 75.714844 8.410156 L 75.714844 75.570312 L 8.558594 75.570312 Z M 8.558594 8.410156 " fill-opacity="1" fill-rule="nonzero"/></g></g><g clip-path="url(#078bfbe28a)"><g clip-path="url(#988c6e000f)"><g transform="matrix(1, 0, 0, 1, 8, 8)"><g clip-path="url(#ff9020448a)"><g clip-path="url(#a24f5fa99d)"><g clip-path="url(#ed9a530e5c)"><path fill="#dedde6" d="M 0.449219 0.449219 L 68.050781 0.449219 L 68.050781 68.050781 L 0.449219 68.050781 Z M 0.449219 0.449219 " fill-opacity="1" fill-rule="nonzero"/></g></g></g></g></g></g></svg>