<svg xmlns="http://www.w3.org/2000/svg" xmlns:xlink="http://www.w3.org/1999/xlink" width="150" zoomAndPan="magnify" viewBox="0 0 112.5 112.499997" height="150" preserveAspectRatio="xMidYMid meet" version="1.0"><defs><clipPath id="df5264ace6"><path d="M 11.394531 11.199219 L 100.800781 11.199219 L 100.800781 100.609375 L 11.394531 100.609375 Z M 11.394531 11.199219 " clip-rule="nonzero"/></clipPath><clipPath id="7449d87e0a"><path d="M 56.097656 11.199219 C 31.410156 11.199219 11.394531 31.214844 11.394531 55.902344 C 11.394531 80.59375 31.410156 100.609375 56.097656 100.609375 C 80.789062 100.609375 100.800781 80.59375 100.800781 55.902344 C 100.800781 31.214844 80.789062 11.199219 56.097656 11.199219 Z M 56.097656 11.199219 " clip-rule="nonzero"/></clipPath><clipPath id="f427617a01"><path d="M 0.394531 0.199219 L 89.800781 0.199219 L 89.800781 89.609375 L 0.394531 89.609375 Z M 0.394531 0.199219 " clip-rule="nonzero"/></clipPath><clipPath id="1ab65cd4f0"><path d="M 45.097656 0.199219 C 20.410156 0.199219 0.394531 20.214844 0.394531 44.902344 C 0.394531 69.59375 20.410156 89.609375 45.097656 89.609375 C 69.789062 89.609375 89.800781 69.59375 89.800781 44.902344 C 89.800781 20.214844 69.789062 0.199219 45.097656 0.199219 Z M 45.097656 0.199219 " clip-rule="nonzero"/></clipPath><clipPath id="b1b0bf9b49"><rect x="0" width="90" y="0" height="90"/></clipPath></defs><g clip-path="url(#df5264ace6)"><g clip-path="url(#7449d87e0a)"><g transform="matrix(1, 0, 0, 1, 11, 11)"><g clip-path="url(#b1b0bf9b49)"><g clip-path="url(#f427617a01)"><g clip-path="url(#1ab65cd4f0)"><path fill="#ffffff" d="M 0.394531 0.199219 L 89.800781 0.199219 L 89.800781 89.609375 L 0.394531 89.609375 Z M 0.394531 0.199219 " fill-opacity="1" fill-rule="nonzero"/></g></g></g></g></g></g></svg>